<svg id="visual" viewBox="0 0 900 600" width="900" height="600" xmlns="http://www.w3.org/2000/svg" xmlns:xlink="http://www.w3.org/1999/xlink" version="1.1"><path d="M0 187L13.7 183C27.3 179 54.7 171 82 161C109.3 151 136.7 139 163.8 131C191 123 218 119 245.2 127C272.3 135 299.7 155 327 167C354.3 179 381.7 183 409 177C436.3 171 463.7 155 491 145C518.3 135 545.7 131 573 142C600.3 153 627.7 179 654.8 175C682 171 709 137 736.2 116C763.3 95 790.7 87 818 90C845.3 93 872.7 107 886.3 114L900 121L900 0L886.3 0C872.7 0 845.3 0 818 0C790.7 0 763.3 0 736.2 0C709 0 682 0 654.8 0C627.7 0 600.3 0 573 0C545.7 0 518.3 0 491 0C463.7 0 436.3 0 409 0C381.7 0 354.3 0 327 0C299.7 0 272.3 0 245.2 0C218 0 191 0 163.8 0C136.7 0 109.3 0 82 0C54.7 0 27.3 0 13.7 0L0 0Z" fill="#77bb78"></path><path d="M0 385L13.7 382C27.3 379 54.7 373 82 367C109.3 361 136.7 355 163.8 346C191 337 218 325 245.2 317C272.3 309 299.7 305 327 316C354.3 327 381.7 353 409 364C436.3 375 463.7 371 491 377C518.3 383 545.7 399 573 393C600.3 387 627.7 359 654.8 336C682 313 709 295 736.2 293C763.3 291 790.7 305 818 326C845.3 347 872.7 375 886.3 389L900 403L900 119L886.3 112C872.7 105 845.3 91 818 88C790.7 85 763.3 93 736.2 114C709 135 682 169 654.8 173C627.7 177 600.3 151 573 140C545.7 129 518.3 133 491 143C463.7 153 436.3 169 409 175C381.7 181 354.3 177 327 165C299.7 153 272.3 133 245.2 125C218 117 191 121 163.8 129C136.7 137 109.3 149 82 159C54.7 169 27.3 177 13.7 181L0 185Z" fill="#5eae60"></path><path d="M0 451L13.7 446C27.3 441 54.7 431 82 430C109.3 429 136.7 437 163.8 435C191 433 218 421 245.2 424C272.3 427 299.7 445 327 453C354.3 461 381.7 459 409 461C436.3 463 463.7 469 491 475C518.3 481 545.7 487 573 475C600.3 463 627.7 433 654.8 422C682 411 709 419 736.2 418C763.3 417 790.7 407 818 421C845.3 435 872.7 473 886.3 492L900 511L900 401L886.3 387C872.7 373 845.3 345 818 324C790.7 303 763.3 289 736.2 291C709 293 682 311 654.8 334C627.7 357 600.3 385 573 391C545.7 397 518.3 381 491 375C463.7 369 436.3 373 409 362C381.7 351 354.3 325 327 314C299.7 303 272.3 307 245.2 315C218 323 191 335 163.8 344C136.7 353 109.3 359 82 365C54.7 371 27.3 377 13.7 380L0 383Z" fill="#43a047"></path><path d="M0 565L13.7 562C27.3 559 54.7 553 82 548C109.3 543 136.7 539 163.8 536C191 533 218 531 245.2 525C272.3 519 299.7 509 327 509C354.3 509 381.7 519 409 527C436.3 535 463.7 541 491 544C518.3 547 545.7 547 573 540C600.3 533 627.7 519 654.8 515C682 511 709 517 736.2 518C763.3 519 790.7 515 818 520C845.3 525 872.7 539 886.3 546L900 553L900 509L886.3 490C872.7 471 845.3 433 818 419C790.7 405 763.3 415 736.2 416C709 417 682 409 654.8 420C627.7 431 600.3 461 573 473C545.7 485 518.3 479 491 473C463.7 467 436.3 461 409 459C381.7 457 354.3 459 327 451C299.7 443 272.3 425 245.2 422C218 419 191 431 163.8 433C136.7 435 109.3 427 82 428C54.7 429 27.3 439 13.7 444L0 449Z" fill="#3a8a3e"></path><path d="M0 601L13.7 601C27.3 601 54.7 601 82 601C109.3 601 136.7 601 163.8 601C191 601 218 601 245.2 601C272.3 601 299.7 601 327 601C354.3 601 381.7 601 409 601C436.3 601 463.7 601 491 601C518.3 601 545.7 601 573 601C600.3 601 627.7 601 654.8 601C682 601 709 601 736.2 601C763.3 601 790.7 601 818 601C845.3 601 872.7 601 886.3 601L900 601L900 551L886.3 544C872.7 537 845.3 523 818 518C790.7 513 763.3 517 736.2 516C709 515 682 509 654.8 513C627.7 517 600.3 531 573 538C545.7 545 518.3 545 491 542C463.7 539 436.3 533 409 525C381.7 517 354.3 507 327 507C299.7 507 272.3 517 245.2 523C218 529 191 531 163.8 534C136.7 537 109.3 541 82 546C54.7 551 27.3 557 13.7 560L0 563Z" fill="#317535"></path></svg>