<svg id="visual" viewBox="0 0 900 600" width="900" height="600" xmlns="http://www.w3.org/2000/svg" xmlns:xlink="http://www.w3.org/1999/xlink" version="1.1"><rect x="0" y="0" width="900" height="600" fill="#43A047"></rect><defs><linearGradient id="grad1_0" x1="33.3%" y1="0%" x2="100%" y2="100%"><stop offset="20%" stop-color="#43a047" stop-opacity="1"></stop><stop offset="80%" stop-color="#43a047" stop-opacity="1"></stop></linearGradient></defs><defs><linearGradient id="grad2_0" x1="0%" y1="0%" x2="66.7%" y2="100%"><stop offset="20%" stop-color="#43a047" stop-opacity="1"></stop><stop offset="80%" stop-color="#43a047" stop-opacity="1"></stop></linearGradient></defs><g transform="translate(900, 0)"><path d="M0 405.6C-52.8 397.8 -105.5 390 -153.5 370.5C-201.4 351 -244.4 319.8 -282.8 282.8C-321.3 245.9 -355.1 203.3 -374.7 155.2C-394.4 107.1 -400 53.6 -405.6 0L0 0Z" fill="#ffffff"></path></g><g transform="translate(0, 600)"><path d="M0 -405.6C50.3 -393.6 100.6 -381.6 150.8 -364C200.9 -346.5 250.9 -323.4 286.8 -286.8C322.8 -250.2 344.7 -200.1 362.2 -150C379.6 -100 392.6 -50 405.6 0L0 0Z" fill="#ffffff"></path></g></svg>