<svg id="visual" viewBox="0 0 900 600" width="900" height="600" xmlns="http://www.w3.org/2000/svg" xmlns:xlink="http://www.w3.org/1999/xlink" version="1.1"><rect x="0" y="0" width="900" height="600" fill="#43A047"></rect><defs><linearGradient id="grad1_0" x1="33.3%" y1="0%" x2="100%" y2="100%"><stop offset="20%" stop-color="#ffffff" stop-opacity="1"></stop><stop offset="80%" stop-color="#ffffff" stop-opacity="1"></stop></linearGradient></defs><defs><linearGradient id="grad1_1" x1="33.3%" y1="0%" x2="100%" y2="100%"><stop offset="20%" stop-color="#ffffff" stop-opacity="1"></stop><stop offset="80%" stop-color="#c3e0bf" stop-opacity="1"></stop></linearGradient></defs><defs><linearGradient id="grad1_2" x1="33.3%" y1="0%" x2="100%" y2="100%"><stop offset="20%" stop-color="#87c083" stop-opacity="1"></stop><stop offset="80%" stop-color="#c3e0bf" stop-opacity="1"></stop></linearGradient></defs><defs><linearGradient id="grad1_3" x1="33.3%" y1="0%" x2="100%" y2="100%"><stop offset="20%" stop-color="#87c083" stop-opacity="1"></stop><stop offset="80%" stop-color="#43a047" stop-opacity="1"></stop></linearGradient></defs><defs><linearGradient id="grad2_0" x1="0%" y1="0%" x2="66.7%" y2="100%"><stop offset="20%" stop-color="#ffffff" stop-opacity="1"></stop><stop offset="80%" stop-color="#ffffff" stop-opacity="1"></stop></linearGradient></defs><defs><linearGradient id="grad2_1" x1="0%" y1="0%" x2="66.7%" y2="100%"><stop offset="20%" stop-color="#c3e0bf" stop-opacity="1"></stop><stop offset="80%" stop-color="#ffffff" stop-opacity="1"></stop></linearGradient></defs><defs><linearGradient id="grad2_2" x1="0%" y1="0%" x2="66.7%" y2="100%"><stop offset="20%" stop-color="#c3e0bf" stop-opacity="1"></stop><stop offset="80%" stop-color="#87c083" stop-opacity="1"></stop></linearGradient></defs><defs><linearGradient id="grad2_3" x1="0%" y1="0%" x2="66.7%" y2="100%"><stop offset="20%" stop-color="#43a047" stop-opacity="1"></stop><stop offset="80%" stop-color="#87c083" stop-opacity="1"></stop></linearGradient></defs><g transform="translate(900, 0)"><path d="M0 486.7C-94.3 479.3 -188.6 471.9 -243.4 421.5C-298.1 371.2 -313.3 277.9 -347.3 200.5C-381.2 123.1 -434 61.5 -486.7 0L0 0Z" fill="#67b065"></path><path d="M0 365.1C-70.7 359.5 -141.5 353.9 -182.5 316.2C-223.6 278.4 -235 208.4 -260.5 150.4C-285.9 92.3 -325.5 46.2 -365.1 0L0 0Z" fill="#a5d0a1"></path><path d="M0 243.4C-47.2 239.7 -94.3 235.9 -121.7 210.8C-149.1 185.6 -156.7 139 -173.6 100.3C-190.6 61.5 -217 30.8 -243.4 0L0 0Z" fill="#e1efdf"></path><path d="M0 121.7C-23.6 119.8 -47.2 118 -60.8 105.4C-74.5 92.8 -78.3 69.5 -86.8 50.1C-95.3 30.8 -108.5 15.4 -121.7 0L0 0Z" fill="#ffffff"></path></g><g transform="translate(0, 600)"><path d="M0 -486.7C81.8 -469.1 163.6 -451.5 238.5 -413.1C313.4 -374.7 381.3 -315.7 421.5 -243.4C461.8 -171.1 474.3 -85.5 486.7 0L0 0Z" fill="#67b065"></path><path d="M0 -365.1C61.4 -351.8 122.7 -338.6 178.9 -309.8C235 -281.1 286 -236.8 316.2 -182.5C346.3 -128.3 355.7 -64.2 365.1 0L0 0Z" fill="#a5d0a1"></path><path d="M0 -243.4C40.9 -234.5 81.8 -225.7 119.2 -206.5C156.7 -187.4 190.7 -157.8 210.8 -121.7C230.9 -85.5 237.1 -42.8 243.4 0L0 0Z" fill="#e1efdf"></path><path d="M0 -121.7C20.5 -117.3 40.9 -112.9 59.6 -103.3C78.3 -93.7 95.3 -78.9 105.4 -60.8C115.4 -42.8 118.6 -21.4 121.7 0L0 0Z" fill="#ffffff"></path></g></svg>