<svg id="visual" viewBox="0 0 900 600" width="900" height="600" xmlns="http://www.w3.org/2000/svg" xmlns:xlink="http://www.w3.org/1999/xlink" version="1.1"><rect x="0" y="0" width="900" height="600" fill="#43A047"></rect><defs><linearGradient id="grad1_0" x1="33.3%" y1="0%" x2="100%" y2="100%"><stop offset="20%" stop-color="#43A047" stop-opacity="1"></stop><stop offset="80%" stop-color="#43A047" stop-opacity="1"></stop></linearGradient></defs><defs><linearGradient id="grad2_0" x1="0%" y1="0%" x2="66.7%" y2="100%"><stop offset="20%" stop-color="#43A047" stop-opacity="1"></stop><stop offset="80%" stop-color="#43A047" stop-opacity="1"></stop></linearGradient></defs><g transform="translate(900, 0)"><path d="M0 432.7C-26.7 403.3 -53.3 374 -83.9 367.5C-114.5 361.1 -148.9 377.5 -181.4 376.6C-213.8 375.8 -244.3 357.7 -266.2 333.8C-288.2 310 -301.7 280.5 -319.8 255C-337.8 229.6 -360.4 208.2 -379.3 182.7C-398.2 157.1 -413.5 127.4 -421.8 96.3C-430.1 65.1 -431.4 32.6 -432.7 0L0 0Z" fill="#FFFFFF"></path></g><g transform="translate(0, 600)"><path d="M0 -432.7C26.6 -407 53.2 -381.3 86.6 -379.2C120 -377.2 160.2 -398.9 187.7 -389.8C215.3 -380.7 230.2 -340.9 251.3 -315.1C272.3 -289.3 299.6 -277.4 322.9 -257.5C346.2 -237.6 365.5 -209.5 373 -179.6C380.5 -149.7 376.1 -117.9 384.1 -87.7C392.1 -57.4 412.4 -28.7 432.7 0L0 0Z" fill="#FFFFFF"></path></g></svg>