<svg id="visual" viewBox="0 0 900 600" width="900" height="600" xmlns="http://www.w3.org/2000/svg" xmlns:xlink="http://www.w3.org/1999/xlink" version="1.1"><rect x="0" y="0" width="900" height="600" fill="#43A047"></rect><defs><linearGradient id="grad1_0" x1="33.3%" y1="0%" x2="100%" y2="100%"><stop offset="20%" stop-color="#43A047" stop-opacity="1"></stop><stop offset="80%" stop-color="#43A047" stop-opacity="1"></stop></linearGradient></defs><defs><linearGradient id="grad2_0" x1="0%" y1="0%" x2="66.7%" y2="100%"><stop offset="20%" stop-color="#43A047" stop-opacity="1"></stop><stop offset="80%" stop-color="#43A047" stop-opacity="1"></stop></linearGradient></defs><g transform="translate(900, 0)"><path d="M0 486.7C-47 438.9 -93.9 391.1 -155 374.2C-216 357.2 -291.2 371 -344.2 344.2C-397.2 317.3 -428 249.8 -448.1 185.6C-468.1 121.5 -477.4 60.7 -486.7 0L0 0Z" fill="#FFFFFF"></path></g><g transform="translate(0, 600)"><path d="M0 -486.7C71.2 -485.7 142.3 -484.7 184.8 -446.2C227.3 -407.7 241.2 -331.8 287.1 -287.1C333 -242.4 411.1 -228.9 449.7 -186.3C488.3 -143.6 487.5 -71.8 486.7 0L0 0Z" fill="#FFFFFF"></path></g></svg>