<svg transform="scale(1)" version="1.1" id="Layer_1" xmlns="http://www.w3.org/2000/svg" xmlns:xlink="http://www.w3.org/1999/xlink" x="0px" y="0px" viewBox="0 0 500 500" xml:space="preserve" class="show_show__wrapper__graphic__5Waiy "><title>React</title><style type="text/css">
	.st0{fill:#3E2928;}
	.st1{fill:#68E1FD;}
	.st2{fill:#FF8F6F;}
	.st3{opacity:0.24;fill:#3E2928;enable-background:new    ;}
	.st4{fill:#EFDDD8;}
	.st5{opacity:0.32;fill:url(#SVGID_1_);enable-background:new    ;}
	.st6{opacity:0.32;fill:url(#SVGID_00000068641365368043288710000011106535156844614529_);enable-background:new    ;}
	.st7{opacity:0.32;fill:url(#SVGID_00000173881151600510845870000009339682708069858973_);enable-background:new    ;}
	.st8{opacity:0.32;fill:url(#SVGID_00000182513130929402927520000003273906955270345405_);enable-background:new    ;}
	.st9{fill:#FFC050;}
	.st10{fill:#146666;}
	.st11{fill:#FFFFFF;}
	.st12{fill:#2C9390;}
	.st13{fill:#EA8B24;}
	.st14{opacity:0.53;fill:#FFFFFF;enable-background:new    ;}
	.st15{opacity:0.24;}
	.st16{fill:#FFB5A9;}
</style><g id="Pie_Chart"><ellipse class="st0" transform="matrix(0.9333 -0.3592 0.3592 0.9333 -28.0309 120.3753)" cx="309.9" cy="135.6" rx="36.5" ry="38.1"></ellipse><ellipse class="st1" transform="matrix(0.9333 -0.3592 0.3592 0.9333 -28.6362 119.3974)" cx="307" cy="136.8" rx="34.8" ry="38.1"></ellipse><path class="st2" d="M265.2,128.6l43.7,8.1l-22.2-40.4C286.8,96.3,267.5,105.7,265.2,128.6z"></path><path class="st3" d="M308.9,136.7l32.8-4.2c0,0-0.6-18.7-21.8-30c-9.3-4.7-20.3-4.7-29.6,0L308.9,136.7z"></path></g><polygon class="st4" id="Base" points="51,266.5 304.9,413.7 443.4,333.8 190.6,187.4 "></polygon><g id="Shadow"><linearGradient id="SVGID_1_" gradientUnits="userSpaceOnUse" x1="137.9338" y1="-1740.2657" x2="177.4738" y2="-1778.3856" gradientTransform="matrix(1 0 0 1 0 2038.04)"><stop offset="0" style="stop-color: rgb(255, 255, 255); stop-opacity: 0.03;"></stop><stop offset="0.99" style="stop-color: rgb(62, 41, 40);"></stop></linearGradient><path class="st5" d="M189.3,272c-8.4-5.8-17.1-11.2-24.5-18.3l-64.2,38.8l40,22.3l58.9-35C196.1,277.1,192.8,274.3,189.3,272z"></path><linearGradient id="SVGID_00000068658300425490458850000003380363595001457588_" gradientUnits="userSpaceOnUse" x1="222.2524" y1="-1697.3169" x2="259.2124" y2="-1732.9468" gradientTransform="matrix(1 0 0 1 0 2038.04)"><stop offset="0" style="stop-color: rgb(255, 255, 255); stop-opacity: 0.03;"></stop><stop offset="0.99" style="stop-color: rgb(62, 41, 40);"></stop></linearGradient><path style="opacity: 0.32; fill: url(&quot;#SVGID_00000068658300425490458850000003380363595001457588_&quot;);" d="
		M267.5,313.9c-8.4-5.8-10.2-2.1-17.6-9.2L189.3,338l29.4,18.8l58.9-35C274.3,319.1,271,316.3,267.5,313.9z"></path><linearGradient id="SVGID_00000078004788379941651090000005487528328750493318_" gradientUnits="userSpaceOnUse" x1="311.7789" y1="-1657.8412" x2="358.6789" y2="-1703.0612" gradientTransform="matrix(1 0 0 1 0 2038.04)"><stop offset="0" style="stop-color: rgb(255, 255, 255); stop-opacity: 0.03;"></stop><stop offset="0.99" style="stop-color: rgb(62, 41, 40);"></stop></linearGradient><path style="opacity: 0.32; fill: url(&quot;#SVGID_00000078004788379941651090000005487528328750493318_&quot;);" d="
		M350.5,355.1c-8.4-5.8-10.2-2.1-17.6-9.2l-60.5,33.2l29.4,18.8l77.9-44.2C376.4,351,354,357.5,350.5,355.1z"></path><linearGradient id="SVGID_00000178206134694969245470000003226433406672052669_" gradientUnits="userSpaceOnUse" x1="89.3059" y1="-1763.3444" x2="128.8559" y2="-1801.4843" gradientTransform="matrix(1 0 0 1 0 2038.04)"><stop offset="0" style="stop-color: rgb(255, 255, 255); stop-opacity: 0.03;"></stop><stop offset="0.99" style="stop-color: rgb(62, 41, 40);"></stop></linearGradient><polyline style="opacity: 0.32; fill: url(&quot;#SVGID_00000178206134694969245470000003226433406672052669_&quot;);" points="
		169.2,242.8 90,289.7 50,267.5 128.9,219.8 	"></polyline></g><g id="Desk"><polygon class="st9" points="228.2,157.8 228.2,208.4 139.2,260.2 139.2,200.6 	"></polygon><polyline class="st1" points="99.9,236.6 99.9,185.4 139.2,208.1 139.2,260.2 	"></polyline><polygon class="st10" points="139.2,260.2 139.2,208.1 99.9,185.4 99.9,236.6 	"></polygon><polygon class="st11" points="138.8,208.6 99.6,186 191.1,134 228.2,157.8 	"></polygon></g><g id="Plant"><path class="st12" d="M185.6,135.9c-5.9-0.5-12.1-2.3-16.4-6.3V147c0,10,8.1,18.1,18,18.1c0,0,0,0,0,0l0,0c10,0,18.1-8.1,18.1-18.1
		c0,0,0,0,0,0l0,0v-17.7C199.1,131.8,192.1,136.5,185.6,135.9z"></path><ellipse class="st12" cx="187.2" cy="129.5" rx="18.1" ry="9.6"></ellipse><path class="st12" d="M187.2,131.1c0,0-12.3-1.8-15.6-21.7C171.7,109.4,182.2,115.2,187.2,131.1z"></path><path class="st12" d="M189.1,128.6c0,0-14.1-25.3,0-42.3C193.4,100.1,193.4,114.8,189.1,128.6z"></path><path class="st12" d="M187.2,112.7c0,0-12.2-1.8-15.6-21.7C171.7,91,182.2,96.8,187.2,112.7z"></path><path class="st12" d="M188.7,120.8c0,0-3.1-12,14-22.7C202.7,98.1,201.4,110,188.7,120.8z"></path><ellipse class="st0" cx="187.2" cy="129.5" rx="18.1" ry="9.6"></ellipse><path class="st12" d="M187.2,131.1c0,0-12.3-1.8-15.6-21.7C171.7,109.4,182.2,115.2,187.2,131.1z"></path><path class="st12" d="M189.1,128.6c0,0-14.1-25.3,0-42.3C193.4,100.1,193.4,114.8,189.1,128.6z"></path><path class="st12" d="M187.2,112.7c0,0-12.2-1.8-15.6-21.7C171.7,91,182.2,96.8,187.2,112.7z"></path><path class="st12" d="M188.7,120.8c0,0-3.1-12,14-22.7C202.7,98.1,201.4,110,188.7,120.8z"></path></g><g id="Coins_1"><polygon class="st13" points="168.8,173.5 168.8,178.7 164.9,178.7 167.8,174.6 	"></polygon><polygon class="st13" points="168.8,163.7 168.8,168.8 164.9,168.8 167.8,164.7 	"></polygon><polygon class="st13" points="156.8,156.1 156.8,161.3 152.9,161.3 155.8,157.1 	"></polygon><ellipse class="st13" cx="138.2" cy="178.7" rx="30.6" ry="17.9"></ellipse><polygon class="st13" points="107.5,178.7 107.5,173.5 110.9,177.7 	"></polygon><ellipse class="st9" cx="138.2" cy="173.5" rx="30.6" ry="17.9"></ellipse><path class="st13" d="M153.7,171.1c0.2,0.4,0.3,0.9,0.2,1.4l-0.1,0.5h-5.6c0-0.2,0.1-0.3,0.1-0.5c0-0.4-0.1-0.7-0.3-1
		c-0.3-0.5-0.8-1-1.4-1.2c-0.8-0.4-1.7-0.7-2.6-0.7c-0.8-0.1-1.7,0.1-2.5,0.4c-0.8,0.3-1.1,0.8-0.9,1.3c0.3,0.7,0.7,1.3,1.2,1.8
		c0.6,0.6,1.2,1.3,1.7,1.9c0.5,0.6,0.6,1.4,0.3,2.2c-0.6,1-1.6,1.8-2.7,2.1c-1.9,0.8-3.9,1.2-5.9,1.2c-2.2,0.1-4.4-0.2-6.5-0.9
		l-3.2,1.4l-3.8-1.8l3.1-1.4c-0.6-0.4-1.1-0.9-1.5-1.4c-0.3-0.4-0.6-0.8-0.7-1.2c-0.1-0.3-0.2-0.7-0.2-1c0-0.2,0-0.5,0-0.7l0.1-0.3
		h5.6c-0.1,0.2-0.1,0.4-0.1,0.6c0,0.5,0.2,0.9,0.4,1.3c0.4,0.7,1.1,1.3,1.9,1.6c1,0.5,2.1,0.8,3.2,0.8c1,0.1,2-0.1,3-0.5
		c0.8-0.3,1.1-0.8,0.9-1.3c-0.3-0.7-0.7-1.3-1.2-1.8c-0.6-0.6-1.2-1.2-1.7-1.9c-0.5-0.6-0.6-1.5-0.2-2.2c0.6-1,1.6-1.8,2.8-2.2
		c1.8-0.7,3.7-1.1,5.7-1.1c2.1-0.1,4.1,0.2,6.1,0.9l3.2-1.4l3.5,1.9l-3.2,1.4C152.8,169.8,153.4,170.4,153.7,171.1z"></path><path class="st13" d="M138.2,193c-16.8,0-29.9-8.5-29.9-19.3s13.1-19.3,29.9-19.3s29.9,8.5,29.9,19.3S155,193,138.2,193z
		 M138.2,162.9c-12.7,0-21.5,5.7-21.5,10.9s8.8,10.9,21.5,10.9s21.5-5.7,21.5-10.9S150.9,162.9,138.2,162.9L138.2,162.9z"></path><ellipse class="st13" cx="138.2" cy="168.8" rx="30.6" ry="17.9"></ellipse><polygon class="st13" points="107.5,168.8 107.5,163.7 110.9,167.8 	"></polygon><ellipse class="st9" cx="138.2" cy="163.7" rx="30.6" ry="17.9"></ellipse><path class="st13" d="M153.7,161.2c0.2,0.4,0.3,0.9,0.2,1.4l-0.1,0.5h-5.6c0-0.2,0.1-0.3,0.1-0.5c0-0.4-0.1-0.7-0.3-1
		c-0.3-0.5-0.8-1-1.4-1.2c-0.8-0.4-1.7-0.7-2.6-0.7c-0.8-0.1-1.7,0.1-2.5,0.4c-0.8,0.3-1.1,0.8-0.9,1.3c0.3,0.7,0.7,1.3,1.2,1.8
		c0.6,0.6,1.2,1.3,1.7,1.9c0.5,0.6,0.6,1.4,0.3,2.2c-0.6,1-1.6,1.8-2.7,2.1c-1.9,0.8-3.9,1.2-5.9,1.2c-2.2,0.1-4.4-0.2-6.5-0.9
		l-3.2,1.4l-3.8-1.8l3.1-1.4c-0.6-0.4-1.1-0.9-1.5-1.4c-0.3-0.4-0.6-0.8-0.7-1.2c-0.1-0.3-0.2-0.7-0.2-1c0-0.2,0-0.5,0-0.7l0.1-0.3
		h5.6c-0.1,0.2-0.1,0.4-0.1,0.6c0,0.5,0.2,0.9,0.4,1.3c0.4,0.7,1.1,1.2,1.9,1.6c1,0.5,2.1,0.8,3.2,0.8c1,0.1,2-0.1,3-0.5
		c0.8-0.3,1.1-0.8,0.9-1.3c-0.3-0.7-0.7-1.3-1.2-1.8c-0.6-0.6-1.2-1.3-1.7-1.9c-0.5-0.6-0.6-1.5-0.2-2.2c0.7-1,1.6-1.8,2.8-2.2
		c1.8-0.7,3.7-1.1,5.7-1.1c2.1-0.1,4.1,0.2,6.1,0.9l3.2-1.4l3.6,1.9l-3.2,1.4C152.8,159.9,153.4,160.5,153.7,161.2z"></path><path class="st13" d="M138.2,180.3c-15.2,0-27.1-7.2-27.1-16.5s11.9-16.5,27.1-16.5s27.1,7.2,27.1,16.5S153.4,180.3,138.2,180.3z
		 M138.2,150.2c-13.4,0-24.3,6.1-24.3,13.7s10.9,13.7,24.3,13.7s24.3-6.1,24.3-13.7S151.6,150.2,138.2,150.2z"></path><ellipse class="st13" cx="126.2" cy="161.3" rx="30.6" ry="17.9"></ellipse><polygon class="st13" points="95.6,161.3 95.6,156.1 98.9,160.2 	"></polygon><ellipse class="st9" cx="126.2" cy="156.1" rx="30.6" ry="17.9"></ellipse><path class="st13" d="M141.7,153.7c0.2,0.4,0.3,0.9,0.2,1.4l-0.1,0.5h-5.6c0-0.2,0.1-0.3,0.1-0.5c0-0.4-0.1-0.7-0.3-1
		c-0.3-0.5-0.8-1-1.4-1.2c-0.8-0.4-1.7-0.6-2.6-0.7c-0.8-0.1-1.7,0.1-2.5,0.4c-0.8,0.3-1.1,0.8-0.9,1.3c0.3,0.7,0.7,1.3,1.2,1.8
		c0.6,0.6,1.2,1.3,1.7,1.9c0.5,0.6,0.6,1.4,0.3,2.1c-0.6,1-1.5,1.8-2.6,2.2c-1.9,0.8-3.9,1.2-5.9,1.2c-2.2,0.1-4.4-0.2-6.5-0.9
		l-3.2,1.4l-3.8-1.8l3.1-1.4c-0.6-0.4-1.1-0.9-1.5-1.4c-0.3-0.4-0.6-0.8-0.7-1.2c-0.1-0.3-0.2-0.7-0.2-1c0-0.2,0-0.5,0-0.7l0.1-0.3
		h5.6c-0.1,0.2-0.1,0.4-0.1,0.6c0,0.5,0.2,0.9,0.4,1.3c0.4,0.7,1.1,1.3,1.8,1.6c1,0.5,2.1,0.8,3.2,0.8c1,0.1,2-0.1,3-0.5
		c0.8-0.3,1.1-0.8,0.9-1.3c-0.3-0.7-0.7-1.3-1.2-1.8c-0.6-0.6-1.2-1.2-1.7-1.9c-0.5-0.6-0.6-1.5-0.2-2.2c0.7-1,1.6-1.8,2.8-2.2
		c1.8-0.7,3.7-1.1,5.7-1.1c2.1-0.1,4.1,0.2,6.1,0.9l3.2-1.4l3.5,1.9l-3.2,1.4C140.9,152.4,141.4,153,141.7,153.7z"></path><path class="st13" d="M126.2,172.8c-15.2,0-27.1-7.2-27.1-16.5s11.9-16.5,27.1-16.5s27.1,7.2,27.1,16.5S141.4,172.8,126.2,172.8z
		 M126.2,142.6c-13.4,0-24.3,6.1-24.3,13.7s10.9,13.7,24.3,13.7s24.3-6.1,24.3-13.7S139.7,142.6,126.2,142.6z"></path></g><g id="Percentage"><path class="st10" d="M153.2,262.4l36.4-21.6c1.5-0.9,3.4-0.9,4.9,0l28.8,17.1c2.3,1.3,3,4.3,1.7,6.5c0,0,0,0,0,0
		c-0.4,0.7-1,1.3-1.8,1.7l-34.8,19.7c-1.5,0.8-3.2,0.8-4.7,0l-30.4-17.1c-1.8-1-2.4-3.2-1.4-5C152.2,263.2,152.7,262.7,153.2,262.4z
		"></path><polygon class="st10" points="151.4,265.5 151.4,259.5 155.6,260.8 154.3,265.6 	"></polygon><polygon class="st10" points="225.6,261.5 225.6,256 222.1,257.6 223.8,260.8 	"></polygon><path class="st12" d="M153.2,256.4l36.4-21.6c1.5-0.9,3.4-0.9,4.9,0l28.8,17.1c2.3,1.3,3,4.3,1.7,6.5c0,0,0,0,0,0
		c-0.4,0.7-1,1.3-1.8,1.7l-34.8,19.7c-1.5,0.8-3.2,0.8-4.7,0l-30.4-17.1c-1.7-1-2.3-3.2-1.4-5C152.3,257.1,152.7,256.7,153.2,256.4z
		"></path><polygon class="st11" points="184.4,248.8 188.4,247.1 197.1,263.7 193,265.5 	"></polygon><path class="st11" d="M204.3,253c1.9,0,3.7,0.3,5.4,1c1.4,0.6,2.1,1.4,2.1,2.4s-0.8,1.8-2.3,2.4c-3.6,1.3-7.5,1.2-11-0.1
		c-1.4-0.6-2.1-1.4-2.1-2.4s0.7-1.8,2.3-2.4C200.5,253.2,202.4,252.9,204.3,253z M207.4,256.4c0-0.4-0.3-0.7-1-1
		c-1.5-0.6-3.1-0.6-4.6-0.1c-0.6,0.3-1,0.6-1,1s0.3,0.7,1,1c1.5,0.6,3.1,0.6,4.6,0.1C207.1,257.2,207.4,256.8,207.4,256.4"></path><path class="st11" d="M185.1,256.2c0,1-0.8,1.8-2.3,2.4c-3.6,1.3-7.5,1.2-11-0.1c-1.4-0.6-2.1-1.4-2.2-2.4s0.8-1.8,2.3-2.4
		c3.6-1.3,7.5-1.2,11,0.1C184.3,254.5,185.1,255.3,185.1,256.2z M175,257.1c0.7,0.3,1.5,0.5,2.3,0.5c0.8,0,1.6-0.1,2.3-0.4
		c0.7-0.3,1-0.6,1-1s-0.3-0.7-1-1c-1.5-0.6-3.1-0.6-4.6-0.1c-0.6,0.3-1,0.6-1,1S174.3,256.9,175,257.1"></path></g><g id="Coins_2"><path class="st13" d="M387.8,121.4c-5.8,0.3-11.5,1.7-16.8,4c-8.4,3.8,16.8,10.7,16.8,10.7"></path><ellipse class="st13" transform="matrix(0.9442 -0.3294 0.3294 0.9442 -27.547 137.0298)" cx="390.7" cy="149.8" rx="26.2" ry="28.7"></ellipse><ellipse class="st9" transform="matrix(0.9442 -0.3294 0.3294 0.9442 -28.5557 134.5469)" cx="382.8" cy="151.6" rx="26.2" ry="28.7"></ellipse><path class="st13" d="M384.2,177.2c-10.1,0-19.9-7-23.7-17.9c-2.3-6.3-2.1-13.3,0.5-19.5c4.6-11.4,17.7-16.9,29.1-12.3
		c0.9,0.4,1.8,0.8,2.6,1.3c12.2,6.8,17.3,21.6,12,34.5c-2.4,5.9-7.3,10.6-13.3,12.7C389,176.8,386.6,177.2,384.2,177.2z
		 M381.5,127.3c-2.3,0-4.6,0.4-6.8,1.2c-5.7,2-10.2,6.4-12.5,11.9c-2.5,5.9-2.6,12.5-0.5,18.5c4.5,12.8,17.5,19.8,29.1,15.8
		c5.7-2,10.2-6.4,12.5-11.9c5-12.2,0.1-26.3-11.4-32.7C388.8,128.2,385.2,127.3,381.5,127.3z"></path><path class="st13" d="M388.3,138c0.8,0.4,1.5,0.8,2.1,1.4l0.6,0.6l-3.4,3.6c-0.1-0.2-0.4-0.4-0.6-0.6c-0.5-0.4-1.1-0.7-1.7-1
		c-0.8-0.4-1.7-0.6-2.6-0.6c-0.9,0-1.9,0.3-2.6,0.8c-0.6,0.5-1,1.2-1,2c0,0.9,0.6,1.7,1.4,2.1c1,0.6,2.1,1.1,3.2,1.4
		c1.3,0.4,2.5,0.8,3.8,1.3c1.3,0.5,2.4,1.3,3.3,2.4c0.9,1.2,1.4,2.7,1.4,4.3c0,1.9-0.6,3.7-1.9,5.2c-1.4,1.5-3.2,2.5-5.2,2.8v3.6
		h-4.9v-3.5c-1-0.1-1.9-0.4-2.8-0.7c-0.8-0.3-1.5-0.6-2.2-1.1c-0.5-0.3-1.1-0.7-1.6-1.1c-0.4-0.3-0.7-0.6-1-0.9l-0.3-0.4l3.3-3.4
		c0.2,0.2,0.4,0.4,0.7,0.8c0.6,0.5,1.3,0.9,2.1,1.2c1.1,0.5,2.2,0.8,3.4,0.8c1.1,0.1,2.3-0.3,3.2-1c0.7-0.6,1.2-1.5,1.1-2.4
		c0-0.9-0.6-1.7-1.4-2.1c-1-0.6-2.1-1.1-3.2-1.4c-1.3-0.4-2.6-0.8-3.8-1.3c-1.3-0.5-2.4-1.3-3.2-2.4c-0.9-1.2-1.4-2.7-1.4-4.3
		c0-1.8,0.8-3.5,2-4.7c1.3-1.5,3.1-2.4,5.1-2.7v-3.6h4.9v3.6C386.2,137,387.3,137.4,388.3,138z"></path></g><g id="Arrow_Up"><polygon class="st12" points="393.9,267.3 405.3,273.8 405.3,224.4 414.3,229.6 400.2,196.8 385.2,213.6 394.3,218.6 	"></polygon><polygon class="st12" points="429.5,289.3 441,295.6 441,206.6 450,211.8 435.9,179 420.9,195.8 430,200.8 	"></polygon></g><g id="Magnifying_Glass"><path class="st14" d="M325.9,324.8l64.6-5.6c0,0,5.8,5.2,4.7,6.9l-69.3,5.9C325.9,332,323.5,326.2,325.9,324.8z"></path><polygon class="st14" points="328.4,337.3 396.4,332 394.4,334.6 330.6,340.1 	"></polygon><path class="st1" d="M359.9,356.2c-24.3,0-43.3-12.6-43.3-28.6s19-28.5,43.3-28.5s43.3,12.6,43.3,28.6S384.1,356.2,359.9,356.2z
		 M359.9,308.8c-18.2,0-33.5,8.6-33.5,18.8s15.4,18.8,33.5,18.8s33.5-8.6,33.5-18.8S378,308.9,359.9,308.8L359.9,308.8z"></path><path class="st1" d="M325.5,338.4l-53.4,31.7c-7.7,4.6-0.7,16.7,7,12.1l53.4-31.7C340.3,345.9,333.2,333.8,325.5,338.4z"></path><g class="st15"><path class="st0" d="M359.9,356.2c-24.3,0-43.3-12.6-43.3-28.6s19-28.5,43.3-28.5s43.3,12.6,43.3,28.6S384.1,356.2,359.9,356.2z
			 M359.9,308.8c-18.2,0-33.5,8.6-33.5,18.8s15.4,18.8,33.5,18.8s33.5-8.6,33.5-18.8S378,308.9,359.9,308.8L359.9,308.8z"></path><path class="st0" d="M325.5,338.4l-53.4,31.7c-7.7,4.6-0.7,16.7,7,12.1l53.4-31.7C340.3,345.9,333.2,333.8,325.5,338.4z"></path></g></g><g id="Character"><path class="st2" d="M249.3,159.2c-5.6,4.8-9.8,11-12.3,18c-4.3,11.9,6.4,31.3,6.4,31.3l16.8-13.2"></path><path class="st0" d="M247.5,316.5l-4.6-2.5l1.1-6.5c0,0,6.8,0.6,7.4,3"></path><path class="st12" d="M249.2,316.4c1-0.6,2.1-1.2,3.1-1.8c2.6-1.4,6.4-2.9,8-5.6c0.7-1.1,0.6-2.5-0.2-3.5
		c-2.4-2.9-7.6,1.9-10.3-1.4c-0.5-0.6-0.8-10.6-0.8-10.6l-10.1,2.8c0,0-1.7,20.1-1.5,21.4s3.7,2.4,3.7,2.4c1-0.2,2-0.6,2.9-1.1
		c1.1-0.8,0.1-10.2,1.4-8.9s1.9,6.5,1.9,6.5C248,316.5,248.6,316.5,249.2,316.4z"></path><path class="st0" d="M266.9,326.2l-4.5-2.5l1.1-6.5c0,0,6.8,0.6,7.4,3"></path><path class="st12" d="M268.6,326.1c1-0.6,2.1-1.2,3.1-1.8c2.6-1.4,6.4-2.9,8-5.6c0.7-1.1,0.6-2.5-0.2-3.5
		c-2.4-2.9-7.6,1.9-10.3-1.4c-0.5-0.6-0.8-10.6-0.8-10.6l-10.1,2.8c0,0-1.7,20.1-1.5,21.4s3.7,2.4,3.7,2.4c1-0.2,2-0.6,2.9-1.1
		c1.1-0.8,0.1-10.2,1.4-8.9s1.9,6.5,1.9,6.5C267.4,326.3,268,326.2,268.6,326.1z"></path><path class="st0" d="M233.9,260.8l-2.9,39.9c0,0,4.8,6.6,20.7,2.9l0,0l0.1-26.9"></path><path class="st0" d="M252.3,268.7c-0.4,3.4,0,41.4,0,41.4s4.4,8.3,23.6,0l-0.3-32.2"></path><path class="st0" d="M235.5,271.1c5,2.9,10.3,5.3,15.8,7h0.1c0.5-0.2,1.2,0,1.4,0.5c3.4,1,6.8,1.8,10.3,2.4
		c4.5,0.7,8.2-2.6,12.8-2.8c0-17.6,0.1-67.9-7.4-78.4l-22.2-7.4c-0.1,1.8-10.8,14.2-10.5,29.3c0.2,13.4-0.5,26.8-2,40.1"></path><path class="st2" d="M270.5,179.3l-2,20.2c0,0-16.6,0.7-23.7-4.2v-17.2"></path><path class="st16" d="M291.7,166l-1.7,2.3c0.9-1.9,1.7-3.8,2.4-5.8c0.5-1.4-1.7-1.9-2.1-0.6l-0.3,0.7c0.2-0.7,0.4-1.4,0.6-2.2
		c0.1-0.6-0.2-1.2-0.8-1.4c-0.6-0.1-1.2,0.2-1.4,0.8l0,0l0,0c-0.5,1.9-1,3.7-1.7,5.5c0.4-1.6,0.6-3.2,0.8-4.9c0.1-1.4-2.1-1.4-2.2,0
		c-0.2,1.9-0.5,3.8-1,5.6c0-0.6-0.1-1.3-0.2-1.9c0-0.3-0.2-0.6-0.5-0.8c0-0.3-0.1-0.5-0.2-0.7c-0.2-0.6-0.9-0.9-1.4-0.7
		c-0.4,0.2-0.7,0.5-0.7,1l-0.1,8.4c-0.4,0.9-0.9,1.7-1.6,2.4c1.1,0.8,2.1,1.6,3.1,2.4c0.9,0.8,1.7,1.6,2.5,2.4
		c0.7-0.9,1.4-1.8,2.1-2.7c0.1-0.1,0.1-0.1,0.2-0.2c2-2.9,4-5.8,6.1-8.6C294.4,166,292.5,164.9,291.7,166z"></path><path class="st2" d="M260.1,160.9c0,0,7.8,2.1,11,7.2c2,3.5,3.7,7.1,5.2,10.8l5.8-9c0,0,7,2.2,9.8,5.6c0,0-8.4,18.2-15.6,19.8
		s-15-10.8-15-10.8s-1.6,5.1-1.3-0.4"></path><path class="st10" d="M265,180.3c-2.3-1.8-4-4.2-5-7c-0.9-3.2,0.2-6,1.4-9c1.2-3,1.8-6.1,2-9.2c0.1-3.1-0.3-6.2-0.5-9.3
		c0-0.1,0-0.3,0-0.4c-1-3.5-3.2-6.5-7.4-6.8c-10.9-0.9-11.6,11.2-11.5,16.1s0.6,8.2-3,10.3s-6.2,7.4-2.8,11.8s0.4,2.8-1.9,6.6
		s-1.7,8.7,3,10.5s26.7-1.5,28.8-3.6c0.7-0.8,1.1-1.9,1-3C268.6,184.6,267.1,182.1,265,180.3z"></path></g></svg>