<svg transform="scale(1)" version="1.1" id="_x30_363_x5F_Message_Received" xmlns="http://www.w3.org/2000/svg" xmlns:xlink="http://www.w3.org/1999/xlink" x="0px" y="0px" viewBox="0 0 500 500" xml:space="preserve" class="show_show__wrapper__graphic__5Waiy "><title>React</title><style type="text/css">
	.st0{fill:#FFFFFF;}
	.st1{fill:#00410c;}
	.st2{fill:none;}
	.st3{fill:#43A047;}
</style><g id="envelop"><rect class="st0" x="110.8" y="178.4" transform="matrix(0.9703 -0.2419 0.2419 0.9703 -51.4136 56.3332)" width="185.8" height="118.4"></rect><path class="st1" d="M127.9,317.9c-0.2,0-0.5-0.2-0.5-0.4L98.7,202.7c0-0.1,0-0.3,0.1-0.4c0.1-0.1,0.2-0.2,0.3-0.2l180.3-44.9
		c0.1,0,0.3,0,0.4,0.1c0.1,0.1,0.2,0.2,0.2,0.3l28.6,114.9c0,0.1,0,0.3-0.1,0.4c-0.1,0.1-0.2,0.2-0.3,0.2L128,317.9L127.9,317.9z
		 M99.9,203l28.4,113.8l179.3-44.7l-28.4-113.8L99.9,203z"></path><polygon class="st0" points="279.5,157.6 260.5,177.7 203.7,237.5 125.5,211.4 99.2,202.6 117.3,178.5 161.6,119.4 171.1,106.7 
		185.4,113.4 252.3,144.8 	"></polygon><path class="st1" d="M203.7,238c-0.1,0-0.1,0-0.2,0L99.1,203.1c-0.3-0.1-0.4-0.4-0.3-0.6c0-0.1,0-0.1,0.1-0.2l71.8-95.9
		c0.1-0.2,0.4-0.3,0.6-0.2l108.5,50.9c0.2,0.1,0.3,0.2,0.3,0.4c0,0.2,0,0.3-0.1,0.4l-75.8,79.9C204,238,203.8,238.1,203.7,238z
		 M100.1,202.3l103.4,34.6l75.1-79.1l-107.4-50.4L100.1,202.3z"></path><line class="st2" x1="171.6" y1="226.8" x2="127.9" y2="317.4"></line><path class="st1" d="M127.9,317.9c-0.1,0-0.2,0-0.2-0.1c-0.3-0.1-0.4-0.4-0.2-0.7c0,0,0,0,0,0l43.7-90.6c0.1-0.3,0.4-0.4,0.7-0.2
		s0.4,0.4,0.2,0.7l-43.7,90.6C128.3,317.8,128.1,317.9,127.9,317.9z"></path><line class="st2" x1="308.1" y1="272.5" x2="227" y2="213"></line><path class="st1" d="M308.1,273c-0.1,0-0.2,0-0.3-0.1l-81.1-59.5c-0.2-0.1-0.3-0.5-0.2-0.7c0.1-0.2,0.5-0.3,0.7-0.2
		c0,0,0.1,0,0.1,0.1l81.1,59.5c0.2,0.2,0.3,0.5,0.1,0.7C308.5,272.9,308.3,273,308.1,273L308.1,273z"></path><polygon class="st3" points="241,99.6 260.5,177.7 203.7,237.5 125.5,211.4 106,133.2 	"></polygon><path class="st1" d="M203.7,238c-0.1,0-0.1,0-0.2,0l-78.2-26.2c-0.2-0.1-0.3-0.2-0.3-0.4l-19.5-78.1c-0.1-0.3,0.1-0.6,0.4-0.6
		l135-33.7c0.1,0,0.3,0,0.4,0.1c0.1,0.1,0.2,0.2,0.2,0.3l19.5,78.1c0,0.2,0,0.4-0.1,0.5l-56.8,59.8C204,238,203.8,238,203.7,238z
		 M125.9,211l77.6,26l56.4-59.4l-19.3-77.3l-134,33.4L125.9,211z"></path><path class="st1" d="M127.4,152.3c-0.3,0-0.6-0.2-0.6-0.5c0-0.3,0.2-0.6,0.5-0.6l38.9-9.7c0.3-0.1,0.6,0.1,0.6,0.4c0,0,0,0,0,0
		c0.1,0.3-0.1,0.6-0.4,0.6l-38.9,9.7L127.4,152.3z"></path><path class="st1" d="M130.8,165.8c-0.2,0-0.4-0.2-0.5-0.4c-0.1-0.3,0.1-0.6,0.4-0.6c0,0,0,0,0,0l97.2-24.2c0.3-0.1,0.6,0.1,0.6,0.4
		c0.1,0.3-0.1,0.6-0.4,0.6l-97.2,24.2L130.8,165.8z"></path><path class="st1" d="M134.1,179.2c-0.2,0-0.5-0.2-0.5-0.4c-0.1-0.3,0.1-0.6,0.4-0.6l97.2-24.2c0.3-0.1,0.6,0.1,0.6,0.4c0,0,0,0,0,0
		c0.1,0.3-0.1,0.6-0.4,0.6l-97.2,24.2L134.1,179.2z"></path><path class="st1" d="M137.5,192.7c-0.3,0-0.6-0.2-0.6-0.5c0-0.3,0.2-0.6,0.5-0.6l97.2-24.2c0.3-0.1,0.6,0.1,0.6,0.4
		c0.1,0.3-0.1,0.6-0.4,0.6c0,0,0,0,0,0l-97.2,24.3L137.5,192.7z"></path><path class="st1" d="M140.8,206.1c-0.3,0-0.6-0.2-0.6-0.5c0-0.3,0.2-0.6,0.5-0.6l97.2-24.2c0.3-0.1,0.6,0.1,0.6,0.4
		c0.1,0.3-0.1,0.6-0.4,0.6L141,206.1H140.8z"></path></g><g id="element"><path class="st0" id="blink_2" d="M134.1,265.4c-10.3,0-18.7,8.3-18.7,18.6c0,0,0,0,0,0c0-10.3-8.3-18.7-18.6-18.7c0,0,0,0,0,0
		c10.3,0,18.7-8.4,18.7-18.7c0,0,0,0,0,0C115.5,257,123.8,265.4,134.1,265.4z"></path><path class="st1" d="M115.5,284.6c-0.3,0-0.5-0.2-0.5-0.5c0-10-8.1-18.1-18.1-18.1c-0.3,0-0.5-0.2-0.5-0.5c0-0.3,0.2-0.5,0.5-0.5
		c10,0,18.1-8.1,18.1-18.1c0-0.3,0.2-0.5,0.5-0.5c0.3,0,0.5,0.2,0.5,0.5c0,10,8.1,18.1,18.1,18.1l0,0c0.3,0,0.5,0.2,0.5,0.5
		c0,0.3-0.2,0.5-0.5,0.5c-10,0-18.1,8.1-18.1,18.1c0,0,0,0,0,0C116,284.3,115.7,284.6,115.5,284.6z M101.3,265.4
		c7,1.7,12.5,7.2,14.2,14.2c1.7-7,7.2-12.5,14.2-14.2c-7-1.7-12.5-7.2-14.2-14.2C113.8,258.2,108.3,263.7,101.3,265.4z"></path><path class="st1" d="M66.4,321.4c-0.3,0-0.5-0.2-0.5-0.5c0-0.1,0.1-0.3,0.2-0.4l21-19.8c0.2-0.2,0.5-0.2,0.7,0
		c0.2,0.2,0.2,0.5,0,0.7l-21,19.8C66.7,321.4,66.5,321.4,66.4,321.4z"></path><path class="st1" d="M186.1,349.4L186.1,349.4c-0.3,0-0.5-0.3-0.5-0.6c0,0,0,0,0,0l3.4-31.5c0-0.3,0.3-0.5,0.6-0.5
		c0.3,0,0.5,0.3,0.5,0.6l-3.4,31.5C186.6,349.3,186.4,349.4,186.1,349.4z"></path><path class="st1" d="M87.4,206.1H46c-0.3,0-0.5-0.2-0.5-0.5c0-0.3,0.2-0.5,0.5-0.5h41.4c0.3,0,0.5,0.2,0.5,0.5
		C87.9,205.9,87.7,206.1,87.4,206.1z"></path><path class="st1" d="M61.7,245.7c-0.3,0-0.5-0.2-0.5-0.5c0-0.3,0.2-0.5,0.5-0.6c0,0,0,0,0,0l23.1-2.5c0.3,0,0.5,0.1,0.6,0.4
		c0,0,0,0,0,0c0,0.3-0.2,0.5-0.5,0.6L61.7,245.7L61.7,245.7z"></path><path class="st1" d="M93.9,159.9h-0.1l-32.1-7.6c-0.3-0.1-0.5-0.4-0.4-0.6s0.4-0.5,0.6-0.4l32.1,7.6c0.3,0,0.5,0.3,0.5,0.6
		C94.4,159.7,94.2,159.9,93.9,159.9L93.9,159.9z"></path><path class="st1" d="M134.1,107.2c-0.2,0-0.4-0.1-0.5-0.3l-10.7-29c-0.1-0.3,0-0.6,0.3-0.7c0.3-0.1,0.6,0,0.7,0.3c0,0,0,0,0,0
		l10.7,29c0.1,0.3,0,0.6-0.3,0.7L134.1,107.2z"></path><path class="st1" d="M220.2,92.7c-0.1,0-0.1,0-0.2,0c-0.3-0.1-0.4-0.4-0.3-0.7l7.8-21.8c0.1-0.3,0.4-0.4,0.6-0.3c0,0,0,0,0,0
		c0.3,0.1,0.4,0.4,0.3,0.7l-7.8,21.8C220.6,92.6,220.5,92.7,220.2,92.7z"></path><path class="st1" d="M267.6,123c-0.3,0-0.5-0.2-0.5-0.5c0-0.1,0.1-0.3,0.2-0.4l16.4-15.8c0.2-0.2,0.5-0.2,0.7,0
		c0.2,0.2,0.2,0.5,0,0.7l0,0l-16.4,15.8C267.9,122.9,267.7,123,267.6,123z"></path></g><g id="character"><path class="st0" d="M436.6,371.6c-5.8,17.1-27.4,23.4-27.4,23.4l-50.5-44.6c-1.1-1-2.1-2.1-3-3.3l-28.4-38.9l-13.6-9l-29,15.4
		c-3.2,1.7-5.1,5.1-4.9,8.7l3,47.4c-24,9.2-40,0-40,0l-4.5-65.3c-0.4-5.7,0.9-11.4,3.8-16.4l65.9-16.4l-1.2-4.9l56.8,8.6l3.6,10.4
		l19.8,37.7L436.6,371.6z"></path><path class="st1" d="M409.2,395.5c-0.1,0-0.2-0.1-0.3-0.1l-50.5-44.5c-1.1-1-2.2-2.1-3-3.4L327,308.6l-13.3-8.8L285,315.1
		c-3,1.6-4.8,4.8-4.6,8.2l3,47.3c0,0.2-0.1,0.4-0.3,0.5c-24,9.2-40.3,0.1-40.4,0c-0.2-0.1-0.3-0.2-0.3-0.4l-4.5-65.3
		c-0.4-5.8,0.9-11.6,3.9-16.7c0.1-0.1,0.2-0.2,0.3-0.2l65.4-16.3l-1-4.4c0-0.2,0-0.3,0.1-0.5c0.1-0.1,0.3-0.2,0.5-0.2l56.8,8.6
		c0.2,0,0.4,0.2,0.4,0.3l3.6,10.4l19.7,37.6l49.4,47.1c0.1,0.1,0.2,0.4,0.1,0.5c-5.9,17.1-27.5,23.7-27.8,23.7L409.2,395.5z
		 M313.8,298.7c0.1,0,0.2,0,0.3,0.1l13.6,9c0.1,0,0.1,0.1,0.1,0.1l28.4,38.9c0.8,1.1,1.8,2.2,2.9,3.1l50.2,44.4
		c2.5-0.8,21.2-7.3,26.7-22.6l-49.2-47c0,0-0.1-0.1-0.1-0.1l-19.8-37.7l-3.5-10.1l-55.7-8.5l1,4.1c0.1,0.3-0.1,0.6-0.4,0.6
		l-65.7,16.4c-2.7,4.8-4,10.4-3.6,15.9l4.5,65.1c2.1,1,17.2,8.2,38.9,0l-3-47c-0.2-3.8,1.8-7.4,5.1-9.2l29-15.4
		C313.6,298.7,313.7,298.7,313.8,298.7z"></path><g id="character-2"><path class="st0" d="M307.2,187.8c-7.7-9.1-4.5-29.8-4.5-29.8l-3.6-33.8c0,0-3.8-6.7,0-15.9c3.8-9.1,14.3-11.3,20.2-5.5
			c0,0,25-4,32.4,19.1c7.4,23.1-4.5,27.1,7.4,39.8c11.9,12.7,12.2,16.4,12.4,24c0.2,7.7,8.9,8.7,14.2,15.1s14,27.2-28.3,26
			S307.2,187.8,307.2,187.8z"></path><path class="st1" d="M360.9,227.3c-1.2,0-2.4,0-3.6-0.1c-41-1.2-50-36.8-50.6-39.3c-7.5-9.1-4.8-28.5-4.6-30.1l-3.6-33.6
			c-0.5-0.9-3.6-7.4,0-16.2c1.7-4.5,5.5-7.8,10.2-8.8c3.8-0.8,7.8,0.2,10.6,2.9c2.7-0.3,25.7-2.5,32.7,19.5
			c2.5,7.3,3.3,15.1,2.2,22.8c-0.7,6.1-1,10.1,5.1,16.8c11.8,12.7,12.4,16.4,12.5,24.3c0.1,4.4,3.3,6.6,7,9c2.6,1.6,5,3.5,7,5.8
			c2.7,3.3,6.6,10.6,3.5,16.9C386.3,224,376.7,227.3,360.9,227.3z M311.3,100.1c-0.8,0-1.6,0.1-2.4,0.2c-4.3,0.9-7.9,4-9.4,8.1
			c-3.6,8.8-0.1,15.3,0,15.4c0,0.1,0.1,0.1,0.1,0.2l3.6,33.8v0.1c0,0.2-3,20.5,4.4,29.4c0.1,0.1,0.1,0.1,0.1,0.2
			c0.1,0.4,8.2,37.3,49.6,38.6c17.2,0.5,28.1-2.7,31.3-9.3c2.9-5.8-1-12.9-3.4-15.8c-2-2.2-4.2-4.1-6.8-5.5
			c-3.8-2.5-7.4-4.9-7.5-9.9c-0.2-7.2-0.3-10.7-12.3-23.6c-6.5-7-6.1-11.5-5.4-17.6c1.1-7.5,0.3-15.2-2.2-22.4
			c-7.2-22.4-31.6-18.8-31.8-18.8c-0.2,0-0.3,0-0.4-0.1C316.9,101.2,314.2,100.1,311.3,100.1z"></path><path class="st3" d="M284,177c0,0,14.1-9.4,27-11.7c12.9-2.3,43.1-2.3,50.3,11.7c7.2,14,7.2,53.6,7.9,69.7c0.8,16.2,0,34,0,34
			s-49.8,3.8-75.1-4.7l13.6-4.9l-8-32.1l-33.8,5.8c-1.4,0.2-2.8-0.5-3.5-1.8c-1.4-2.9-3.7-8.2-4.4-12.8c-0.5-3.6,0.1-7.3,1.6-10.5
			c0.4-0.9,1.2-1.5,2.1-1.8l30.7-8L284,177z"></path><path class="st1" d="M304.3,238.1c-0.3,0-0.5-0.2-0.5-0.4c-0.1-0.3,0.1-0.5,0.4-0.6c0,0,0,0,0,0c29.7-5.7,47.9-25.9,54.3-34.4
			c0.2-0.2,0.5-0.3,0.7-0.1c0.2,0.2,0.3,0.5,0.1,0.7c0,0,0,0,0,0.1C352.8,211.8,334.4,232.2,304.3,238.1L304.3,238.1z"></path><path class="st1" d="M294.8,210.2c-0.3,0-0.6-0.2-0.6-0.4c0-0.3,0.2-0.6,0.4-0.6c19.6-6.5,30.1-16.6,39.4-25.5
			c2-1.9,3.9-3.7,5.8-5.4c0.2-0.2,0.5-0.2,0.7,0c0,0,0,0,0,0c0.2,0.2,0.2,0.5,0,0.7c0,0,0,0,0,0c-1.9,1.7-3.8,3.5-5.8,5.4
			c-9.4,9-20,19.1-39.8,25.7C294.9,210.2,294.9,210.2,294.8,210.2z"></path><path class="st1" d="M358.9,215.1c-0.2,0-0.4-0.1-0.4-0.3c-1.5-2.7-7.1-2.7-7.1-2.7c-0.3,0-0.5-0.2-0.5-0.5c0,0,0,0,0,0
			c0-0.3,0.2-0.5,0.5-0.5c0,0,0,0,0,0c0.3,0,6.3-0.1,8,3.2c0.1,0.3,0.1,0.6-0.2,0.7C359.1,215.1,359,215.1,358.9,215.1z"></path><path class="st1" d="M290.4,202L290.4,202c-0.4,0-0.6-0.3-0.5-0.6c0,0,0,0,0,0c0-0.1,2.1-12.6,4.4-19.2c0.1-0.3,0.4-0.4,0.7-0.3
			c0.3,0.1,0.4,0.4,0.3,0.7c0,0,0,0,0,0c-2.3,6.5-4.4,18.9-4.4,19.1C290.8,201.8,290.6,202,290.4,202z"></path><path class="st0" d="M261.2,221.7c-10.9-1.4-21.7-3.9-25.2-3.1c-3.5,0.8-3.4,3.6,1.6,5.5c0,0-8.9,0.8-14.4,3.7s-5.4,6.7-3.3,7.9
			c2.1,1.2,7.3-6.7,19.4-6.5c0,0-8.8,2.1-13.3,7c-3.1,3.4-1,5.7,1.5,5.5c2.5-0.2,4.7-5.2,9.1-6.6c2.7-0.8,5.4-1.3,8.2-1.3
			c0,0-5.7,2.3-8.7,5.6c-4.6,4.8-2.9,7.4,1,5.5c2.1-0.9,7.6-5.8,13.3-6.1c0,0-4.7,4.1-4.2,7.5s5.6,5.9,7.3,3.6
			c1.7-2.3-2.2-4.7,1-6.5s11.2-1.2,14.7-6.3C272.6,231.8,269.2,223.6,261.2,221.7z"></path><path class="st1" d="M251.5,251.3c-0.4,0-0.8-0.1-1.2-0.2c-2.3-0.6-4.2-2.4-4.7-4.8c-0.4-2.6,1.8-5.4,3.2-6.9
			c-3.5,0.7-6.9,2.9-9.3,4.5c-0.7,0.5-1.5,1-2.3,1.4c-1.9,0.9-3.5,0.8-4.2-0.1c-0.9-1.3,0-3.6,2.5-6.3c1.9-1.8,4-3.4,6.4-4.5
			c-1.8,0.2-3.6,0.6-5.4,1.1c-2.2,0.7-3.9,2.4-5.4,3.9c-1.5,1.5-2.5,2.6-3.9,2.7c-1.3,0.2-2.7-0.4-3.3-1.6c-0.4-0.8-0.7-2.4,1.5-4.8
			c2.6-2.9,6.5-4.8,9.4-5.9c-4,0.7-7.9,2.3-11.2,4.7c-1.9,1.2-3.1,2.1-4.2,1.5c-1-0.6-1.7-1.7-1.6-2.9c0-2.1,1.8-4.3,4.9-6
			c4.1-2.2,9.8-3.1,12.7-3.6c-1.7-1-2.7-2.1-2.6-3.3c0.1-1.2,1-2,2.8-2.4c2.4-0.6,7.8,0.3,14.7,1.5c3.3,0.5,7.1,1.2,10.7,1.6h0.1
			c4.1,0.9,7.5,3.8,9,7.7c1.2,2.8,0.9,5.9-0.7,8.5c-2.4,3.6-6.9,4.5-10.4,5.2c-1.5,0.2-3,0.6-4.4,1.3c-1.4,0.8-1.2,1.5-0.8,2.8
			c0.6,1.1,0.5,2.5-0.1,3.6C253.4,250.9,252.5,251.4,251.5,251.3z M250.4,238.3c0.3,0,0.5,0.2,0.5,0.5c0,0.2-0.1,0.3-0.2,0.4
			c0,0-4.4,3.9-4,7.1c0.5,1.9,2,3.4,3.9,3.9c0.9,0.3,1.9,0.1,2.5-0.6c0.6-0.8,0.3-1.6,0-2.6c-0.4-1.3-1-2.8,1.2-4
			c1.5-0.7,3.1-1.1,4.7-1.4c3.6-0.7,7.6-1.6,9.8-4.8c1.4-2.3,1.6-5.1,0.6-7.5c-1.5-3.6-4.5-6.2-8.3-7c-3.7-0.5-7.4-1.1-10.7-1.6
			c-6.5-1-12.1-2-14.3-1.5c-1.2,0.3-2,0.8-2,1.5s0.9,1.9,3.7,3c0.2,0.1,0.4,0.3,0.3,0.6c0,0.2-0.2,0.4-0.5,0.4
			c-0.1,0-8.9,0.8-14.2,3.7c-2.7,1.4-4.3,3.3-4.3,5.1c0,0.8,0.4,1.5,1,1.9c0.5,0.3,1.7-0.5,3.1-1.4c4.7-3.4,10.3-5.2,16-5.1
			c0.3,0,0.5,0.2,0.5,0.5c0,0.3-0.1,0.5-0.4,0.6c-0.1,0-8.7,2.1-13.1,6.9c-1.3,1.4-1.7,2.7-1.3,3.6c0.5,0.8,1.4,1.2,2.3,1
			c1-0.1,2-1.2,3.2-2.4c1.5-1.5,3.3-3.4,5.8-4.2c2.7-0.8,5.5-1.3,8.4-1.4c0.3-0.1,0.6,0.1,0.6,0.4c0.1,0.3-0.1,0.6-0.4,0.6
			c-0.1,0-5.6,2.3-8.5,5.5c-2.7,2.8-2.8,4.4-2.4,4.9c0.3,0.5,1.3,0.5,2.9-0.2c0.7-0.4,1.5-0.8,2.2-1.3
			C241.8,241.3,246,238.6,250.4,238.3L250.4,238.3z"></path><path class="st1" d="M237.6,224.5c-0.3,0-0.6-0.1-0.6-0.4c0-0.3,0.1-0.6,0.4-0.6c0.3-0.1,7-2.5,17.9-0.2c0.3,0.1,0.5,0.3,0.4,0.6
			c-0.1,0.3-0.3,0.5-0.6,0.4c0,0,0,0,0,0c-10.6-2.3-17.3,0.1-17.4,0.1L237.6,224.5z"></path><path class="st3" d="M284.1,378l0.5,29.6c0,2.1-1.6,3.8-3.7,3.8l-54.6,1.3c-2.1,0-3.8-1.6-3.8-3.7c0-0.2,0-0.3,0-0.5l0.1-1.3
			c0,0,2.5-25.7,29.6-28C252.2,379.2,265.7,382.6,284.1,378z"></path><path class="st1" d="M223.3,407.2c-0.3,0-0.5-0.2-0.5-0.5s0.2-0.5,0.5-0.5l60.6-1.4c0.3,0,0.5,0.2,0.5,0.5c0,0,0,0,0,0
			c0,0.3-0.2,0.5-0.5,0.5c0,0,0,0,0,0L223.3,407.2L223.3,407.2z"></path><path class="st1" d="M269.2,406.1L269.2,406.1c-0.3,0-0.5-0.3-0.5-0.5c0,0,0,0,0,0c0-0.1,0.9-13.6,15.5-14.6
			c0.3,0,0.5,0.2,0.6,0.5c0,0.3-0.2,0.5-0.5,0.6c-13.7,1-14.5,13.1-14.6,13.6C269.8,405.9,269.5,406.1,269.2,406.1z"></path><path class="st1" d="M253.1,388.4c-0.1,0-0.2,0-0.3-0.1l-12.8-10.7c-0.2-0.2-0.2-0.5-0.1-0.7c0.2-0.2,0.5-0.3,0.7-0.1c0,0,0,0,0,0
			l12.8,10.7c0.2,0.2,0.3,0.5,0.1,0.7C253.4,388.3,253.3,388.4,253.1,388.4z"></path><path class="st1" d="M246.9,390.9c-0.1,0-0.2,0-0.3-0.1l-12.8-10.6c-0.2-0.2-0.3-0.5-0.1-0.7c0,0,0,0,0,0c0.2-0.2,0.5-0.3,0.7-0.1
			c0,0,0,0,0,0l12.8,10.6c0.2,0.2,0.3,0.5,0.1,0.7c0,0,0,0,0,0C247.2,390.8,247.1,390.9,246.9,390.9z"></path><path class="st3" d="M440.4,379.5l16,24.9c1.1,1.7,0.7,4.1-1.1,5.2c0,0,0,0,0,0l-45.7,29.9c-1.7,1.1-4.1,0.7-5.2-1.1
			c-0.1-0.1-0.2-0.3-0.3-0.5l-0.5-1.2c0,0-11.5-23.2,10.3-39.4C413.9,397.4,427.2,393.2,440.4,379.5z"></path><path class="st1" d="M403.9,436.4c-0.2,0-0.3-0.1-0.4-0.2c-0.2-0.2-0.1-0.6,0.1-0.7l50.7-33.2c0.2-0.2,0.6-0.1,0.7,0.2
			c0.2,0.2,0.1,0.6-0.2,0.7l0,0l-50.7,33.2C404.1,436.4,404,436.4,403.9,436.4z"></path><path class="st1" d="M442.3,411.3c-0.2,0-0.4-0.1-0.5-0.3c-0.1-0.1-6.4-12,5.5-20.6c0.2-0.2,0.6-0.1,0.7,0.1
			c0.2,0.2,0.1,0.5-0.1,0.7c0,0,0,0,0,0c-11.1,8.1-5.4,18.8-5.1,19.3c0.1,0.3,0.1,0.6-0.2,0.7C442.5,411.3,442.4,411.3,442.3,411.3z
			"></path><path class="st1" d="M419.3,404.7L419.3,404.7l-16.6-2.3c-0.3,0-0.5-0.3-0.4-0.6s0.3-0.5,0.6-0.4l16.5,2.3c0.3,0,0.5,0.3,0.5,0.6
			C419.8,404.5,419.5,404.8,419.3,404.7z"></path><path class="st1" d="M415.4,410.1L415.4,410.1l-16.6-2.3c-0.3,0-0.5-0.3-0.4-0.6c0,0,0,0,0,0c0-0.3,0.3-0.5,0.6-0.4l16.5,2.3
			c0.3,0,0.5,0.3,0.4,0.6C415.8,409.9,415.6,410.1,415.4,410.1z"></path><path class="st0" d="M318.4,160.7c0,0-0.3,8-2.6,13l17.9,0.1l-1.3-19.4L318.4,160.7z"></path><path class="st1" d="M333.7,174.3L333.7,174.3l-17.9-0.1c-0.2,0-0.3-0.1-0.4-0.2c-0.1-0.2-0.1-0.3,0-0.5
			c2.3-4.8,2.6-12.7,2.6-12.8c0-0.2,0.1-0.4,0.3-0.5l14-6.3c0.1-0.1,0.3-0.1,0.5,0c0.1,0.1,0.2,0.2,0.3,0.4l1.3,19.4
			c0,0.1,0,0.3-0.1,0.4C334,174.3,333.8,174.3,333.7,174.3z M316.6,173.2l16.5,0.1l-1.2-18.1l-13,5.8
			C318.9,162.5,318.4,168.7,316.6,173.2L316.6,173.2z"></path><path class="st0" d="M304.9,115.4c0,0-16,17.3-10.7,36c5.3,18.7,35.4,15,40.4,0c0,0,7.2,2.4,8.4-3.1c0.9-4.4-1.7-7.5-5.1-6.8
			c-1.5,0.4-2.8,1.4-3.5,2.9l-2.2,4.3l-1.3-11.4c0,0-10.3-4.1-14.5-11.4C311.3,124.1,307.2,120.3,304.9,115.4z"></path><path class="st1" d="M313.1,164.7h-0.6c-9.5-0.2-16.5-5.1-18.8-13.1c-2.8-9.8,0.3-19.2,3.4-25.4c2-4,4.5-7.7,7.4-11.1
			c0.1-0.1,0.3-0.2,0.5-0.2c0.2,0,0.3,0.1,0.4,0.3c2.3,4.7,6.3,8.4,11.2,10.2c0.1,0,0.2,0.1,0.3,0.2c4,7.1,14.2,11.1,14.3,11.2
			c0.2,0.1,0.3,0.2,0.3,0.4l1,9.6l1.4-2.7c0.7-1.6,2.2-2.7,3.9-3.1c1.6-0.3,3.2,0.1,4.3,1.3c1.5,1.7,2,4,1.4,6.2
			c-0.2,1.4-1.1,2.6-2.3,3.3c-2.2,1.2-5.1,0.6-6.3,0.3C331.9,160.4,321.8,164.7,313.1,164.7z M304.8,116.4
			c-2.7,3.1-14.7,18.6-10.1,34.9c2.1,7.5,8.8,12.1,17.8,12.3c11.4,0.3,19.5-6,21.6-12.3c0-0.1,0.1-0.2,0.3-0.3
			c0.1-0.1,0.3-0.1,0.4,0c0,0,3.6,1.2,5.9-0.1c0.9-0.6,1.6-1.5,1.8-2.6c0.5-1.8,0.1-3.8-1.2-5.2c-0.9-0.9-2.1-1.3-3.4-1
			c-1.4,0.3-2.5,1.3-3.1,2.6l-2.2,4.3c-0.1,0.3-0.4,0.4-0.7,0.2c-0.2-0.1-0.3-0.2-0.3-0.4l-1.2-11.1c-1.7-0.7-10.4-4.6-14.4-11.3
			C311.2,124.6,307.2,121,304.8,116.4L304.8,116.4z"></path><path class="st1" d="M307.8,129.4c0.8-0.3,1.6-0.5,2.5-0.6c0.9-0.1,1.7-0.1,2.6,0c0.8,0.1,1.7,0.3,2.5,0.6
			c0.8,0.3,1.6,0.7,2.3,1.1c0.2,0.2,0.3,0.5,0.1,0.7c-0.1,0.2-0.3,0.3-0.5,0.2l0,0c-1.6-0.3-3-0.7-4.6-0.9c-0.8-0.1-1.5-0.1-2.3-0.2
			s-1.6,0-2.3,0H308c-0.3,0-0.5-0.2-0.5-0.5C307.5,129.6,307.6,129.4,307.8,129.4z"></path><path class="st1" d="M295.3,126.8c0.6-0.3,1.3-0.4,2-0.5c0.7-0.1,1.4,0,2.1,0.1c0.7,0.1,1.3,0.4,1.9,0.7c0.6,0.3,1.1,0.8,1.6,1.3
			c0.2,0.2,0.2,0.6,0,0.8c-0.1,0.1-0.4,0.2-0.5,0.1l0,0c-1.1-0.4-2.2-0.8-3.3-1c-0.6-0.1-1.1-0.2-1.7-0.3c-0.6-0.1-1.2-0.1-1.7-0.1
			h-0.1c-0.3,0-0.5-0.3-0.5-0.6C295.1,127.1,295.2,127,295.3,126.8z"></path><path class="st0" d="M300.9,131.2c-0.9,2.8-2.1,5.5-3.5,8.1c0,0-4-2-4.9,0.9c-1,3.4,4.1,4.3,5.4,1.6"></path><path class="st1" d="M295.1,143.9c-0.5,0-1-0.1-1.4-0.3c-1.5-0.5-2.2-2.1-1.7-3.6c0,0,0,0,0-0.1c0.2-0.8,0.7-1.4,1.5-1.7
			c1.2-0.4,2.5-0.3,3.7,0.3c1.3-2.4,2.4-5,3.3-7.6c0.1-0.3,0.4-0.4,0.7-0.3c0.3,0.1,0.4,0.4,0.3,0.7c-0.9,2.8-2.1,5.6-3.6,8.2
			c-0.1,0.2-0.4,0.3-0.7,0.2c-1-0.5-2.2-0.7-3.3-0.4c-0.4,0.2-0.8,0.6-0.9,1c-0.4,0.9,0,1.9,0.9,2.3c0,0,0.1,0,0.1,0
			c1.3,0.5,2.7,0,3.4-1.1c0.1-0.3,0.4-0.4,0.7-0.2c0.3,0.1,0.4,0.4,0.2,0.7C297.8,143.2,296.5,143.9,295.1,143.9z"></path><path class="st1" d="M311.8,136.5c-0.3,1.3-1.2,2.1-2.1,1.9s-1.3-1.4-1-2.6c0.1-0.4,0.2-0.7,0.4-1l1.3,1.1l-0.3-2
			c0.2-0.1,0.4-0.1,0.6,0C311.6,134,312.1,135.2,311.8,136.5z"></path><path class="st1" d="M298.1,134.2c-0.2,0.9-0.9,1.6-1.6,1.4c-0.6-0.2-1-1-0.8-2c0.1-0.3,0.2-0.5,0.3-0.8l1,0.9l-0.2-1.5
			c0.2,0,0.3,0,0.5,0C298,132.4,298.3,133.3,298.1,134.2z"></path><path class="st1" d="M306.8,151.3c-1.4,0-2.8-0.7-3.8-1.7c-0.2-0.2-0.1-0.6,0.1-0.7c0.2-0.1,0.4-0.2,0.6,0c0.9,1,2.2,1.5,3.5,1.4
			c2.7-0.4,4.7-3.6,4.7-3.6c0.2-0.2,0.5-0.3,0.7-0.2c0,0,0,0,0,0c0.2,0.2,0.3,0.5,0.2,0.7c-0.1,0.1-2.3,3.7-5.5,4.1
			C307.2,151.3,307,151.3,306.8,151.3z"></path><path class="st0" d="M335.6,146.6c0,0,1-3.4,4.2-2.8"></path><path class="st1" d="M335.6,147.1h-0.2c-0.3-0.1-0.4-0.4-0.3-0.7c0.4-1.3,2-3.7,4.8-3.1c0.3,0.1,0.5,0.3,0.4,0.6
			c-0.1,0.3-0.3,0.5-0.6,0.4c-2.6-0.5-3.5,2.3-3.6,2.4C336.1,147,335.9,147.1,335.6,147.1z"></path><path class="st0" d="M339.8,149.1c0,0,0.9-3.5-1.7-5.2"></path><path class="st1" d="M339.8,149.6h-0.1c-0.3-0.1-0.4-0.4-0.4-0.6c0,0,0,0,0,0c0-0.1,0.8-3.1-1.5-4.6c-0.3-0.1-0.3-0.5-0.2-0.7
			c0.1-0.3,0.5-0.3,0.7-0.2c0,0,0,0,0,0c2.9,1.9,2,5.6,1.9,5.8C340.3,149.5,340,149.6,339.8,149.6z"></path></g></g></svg>