<svg transform="scale(1)" version="1.1" id="_0102_Asynchronous_Work_1_1_" xmlns="http://www.w3.org/2000/svg" xmlns:xlink="http://www.w3.org/1999/xlink" x="0px" y="0px" viewBox="0 0 500 500" xml:space="preserve" class="show_show__wrapper__graphic__5Waiy "><title>React</title><style type="text/css">
	.st0{fill:#43A047;}
	.st1{fill:#00410c;}
	.st2{fill:#FFFFFF;}
	.st3{fill:none;}
</style><g id="plane-2"><path class="st0" d="M418,227.5c-1.1,29.6-5.3,58.6-18.8,85.4c-4.7,5.4-9.7,10.4-15.1,15c9.1,0.3,13.7,0.5,22.9,0.9l0-0.1
		c0.1-0.3,0.4-1,0.8-2c0.2-0.4,0.3-0.9,0.5-1.4l0.6-1.7C419.6,292.5,421.8,259.9,418,227.5z"></path><path class="st1" d="M406.9,329.2L406.9,329.2c-9.2-0.4-13.7-0.6-22.9-0.9c-0.3,0-0.5-0.2-0.5-0.5c0-0.1,0.1-0.3,0.2-0.4
		c5.4-4.6,10.4-9.6,15-14.9c11.7-23.2,17.5-49.5,18.7-85.1c0-0.3,0.2-0.5,0.5-0.5c0.3,0,0.5,0.2,0.5,0.4c4.1,34.6,1,67-9.1,96.2
		l-0.6,1.7l-0.5,1.3l-0.1,0.2c-0.3,0.9-0.6,1.6-0.7,1.9l0,0.1C407.3,328.9,407.1,329.2,406.9,329.2z M385.3,327.4
		c8.3,0.2,12.7,0.4,21.2,0.8c0.1-0.4,0.4-1,0.7-1.8l0.1-0.2c0.1-0.4,0.3-0.8,0.5-1.2l0.6-1.7c9.4-27.2,12.7-57.1,9.8-89.1
		c-1.8,32.5-7.6,57-18.6,78.9c0,0,0,0.1-0.1,0.1C395.1,318.2,390.4,323,385.3,327.4L385.3,327.4z M399.1,312.9L399.1,312.9z"></path><path class="st2" d="M418,227.3c3.4,33,2.1,64.6-9.1,96.1l-0.6,1.7c-0.2,0.5-0.4,1-0.5,1.4c-0.4,1-0.6,1.7-0.8,2l0,0.1
		c3.2,6.7,5.8,13.6,8,20.6C426.9,307.8,427.4,269.5,418,227.3z"></path><path class="st1" d="M414.9,349.8c-0.2,0-0.4-0.1-0.5-0.4c-2.2-7-4.8-13.9-8-20.6c-0.1-0.1-0.1-0.3,0-0.4l0-0.1v-0.1
		c0.1-0.3,0.4-1,0.7-1.9l0.1-0.2c0.1-0.4,0.3-0.8,0.5-1.2l0.6-1.7c10-28.2,12.9-58.7,9.1-95.9c0-0.3,0.1-0.5,0.4-0.6
		c0.3,0,0.5,0.1,0.6,0.4c9.6,42.9,8.6,81.7-3.1,122.3C415.2,349.7,415,349.8,414.9,349.8L414.9,349.8z M407.4,328.7
		c2.9,6.1,5.4,12.5,7.4,18.9c10.5-37.1,11.9-72.9,4.4-111.8c2.6,33.5-0.6,61.6-9.9,87.8l-0.6,1.7l-0.5,1.3l-0.1,0.2
		C407.9,327.6,407.6,328.3,407.4,328.7L407.4,328.7z"></path><path class="st2" d="M418,227.3v0.2c3.8,32.4,1.6,65-9.1,96C420,291.9,421.4,260.3,418,227.3z"></path><path class="st1" d="M408.8,324h-0.2c-0.3-0.1-0.4-0.4-0.3-0.6c5.3-15.3,8.6-31.1,10-47.2c1.2-15.8,0.9-31.7-0.8-47.4l-0.1-1.1
		c0-0.1,0-0.2,0-0.2l0,0c0-0.3,0.2-0.5,0.4-0.6c0.3,0,0.5,0.2,0.6,0.4l0,0c0,0.5,0.1,1.1,0.2,1.6c1.8,15.7,2.1,31.6,0.7,47.4
		c-1.3,16.1-4.6,32.1-10,47.3C409.3,323.9,409.1,324,408.8,324z"></path><path class="st2" d="M418,227.3L418,227.3L418,227.3c-6.7,24.4-15.3,46.5-29.8,67.5c3,4.3,5.7,8.7,8.2,13.2
		c1.1,1.9,1.6,2.9,2.7,4.9c13.5-26.8,17.8-55.8,18.8-85.4L418,227.3z"></path><path class="st1" d="M399.1,313.4c-0.2,0-0.4-0.1-0.4-0.3c-1-2-1.6-2.9-2.7-4.9c-2.5-4.5-5.3-8.9-8.3-13.1c-0.1-0.2-0.1-0.4,0-0.6
		c12.9-18.6,22-39.4,29.7-67.3c0-0.1,0-0.1,0.1-0.2c0.1-0.2,0.4-0.3,0.7-0.2c0.1,0.1,0.2,0.2,0.3,0.4v0.3
		c-1.3,35.8-7.1,62.2-18.9,85.6C399.5,313.3,399.3,313.4,399.1,313.4L399.1,313.4z M388.8,294.9c2.9,4.1,5.6,8.4,8.1,12.9
		c1,1.6,1.5,2.6,2.2,4c11-22.1,16.6-47.1,18.2-80.3C409.9,257.5,401,277.1,388.8,294.9L388.8,294.9z M418,227.3L418,227.3z"></path><path class="st2" d="M396.5,308c-3.6,6.9-7.8,13.6-12.5,19.8c5.4-4.6,10.4-9.6,15.1-15C398.1,310.9,397.5,309.9,396.5,308z"></path><path class="st1" d="M384,328.3c-0.1,0-0.2-0.1-0.3-0.1c-0.2-0.2-0.2-0.5,0-0.7c4.6-6.3,8.8-12.9,12.4-19.8
		c0.1-0.2,0.2-0.3,0.4-0.3c0.2,0,0.4,0.1,0.4,0.2c1.1,2,1.6,2.9,2.7,4.9c0.1,0.2,0.1,0.4-0.1,0.6c-4.7,5.4-9.7,10.4-15.1,15
		C384.3,328.3,384.1,328.3,384,328.3z M396.5,309c-2.9,5.3-6,10.5-9.4,15.5c4.1-3.7,7.9-7.6,11.5-11.7
		C397.7,311.3,397.2,310.4,396.5,309z"></path></g><g id="plane-1"><path class="st0" d="M85.1,187.4c10.7-27.6,24.2-53.6,45.7-74.5c6.2-3.5,12.6-6.6,19.2-9.2c-8.6-3.2-12.8-4.9-21.3-8.3l-0.1,0.1
		c-0.2,0.2-0.7,0.8-1.4,1.6l-1,1.2l-1.1,1.4C104.8,125.4,92.1,155.5,85.1,187.4z"></path><path class="st1" d="M85.1,187.9c0,0-0.1,0-0.2,0c-0.2-0.1-0.4-0.3-0.3-0.6c7.5-34.1,20.9-63.6,40-87.9c0.4-0.6,0.7-0.8,1.1-1.4
		l0.9-1.1l0.1-0.1c0.6-0.8,1.1-1.3,1.3-1.6l0.1-0.1c0.1-0.2,0.5-0.3,0.7-0.3c8.6,3.4,12.7,5,21.3,8.3c0.3,0.1,0.4,0.4,0.3,0.6
		c-0.1,0.1-0.2,0.2-0.3,0.3c-6.6,2.6-12.9,5.6-19.1,9.2c-18.6,18.1-32.6,41.1-45.5,74.3C85.5,187.8,85.3,187.9,85.1,187.9z
		 M128.7,95.9l-1.2,1.5l-0.1,0.1c-0.3,0.3-0.6,0.7-0.9,1l-1.1,1.5c-17.8,22.6-30.7,49.8-38.3,81c12.3-30.1,25.8-51.4,43.3-68.5
		l0.1-0.1c5.8-3.3,11.8-6.3,18.1-8.8C140.9,100.7,136.7,99.1,128.7,95.9L128.7,95.9z"></path><path class="st2" d="M85,187.6c7.6-32.3,19.1-61.8,40-87.9l1.1-1.4l1-1.2c0.7-0.8,1.2-1.4,1.4-1.6l0.1-0.1
		c-0.8-7.3-1.1-14.7-0.8-22.1C102.8,108.6,89.9,144.6,85,187.6z"></path><path class="st1" d="M85,188.1L85,188.1c-0.3-0.1-0.5-0.3-0.5-0.6c4.9-43.7,18.5-80.1,42.8-114.6c0.1-0.2,0.4-0.3,0.6-0.2
		c0.2,0.1,0.3,0.3,0.3,0.5c-0.3,7.3,0,14.7,0.8,22c0,0.1,0,0.3-0.1,0.4l-0.1,0.1l-0.1,0.1c-0.2,0.3-0.7,0.8-1.3,1.5l-0.1,0.1
		c-0.3,0.3-0.6,0.7-0.9,1l-1.1,1.5c-18.7,23.4-31.4,51.3-39.9,87.7C85.5,187.9,85.2,188.1,85,188.1z M127.2,74.9
		c-22,31.7-35.1,65-40.6,104.2c8.5-32.5,20.7-58,38-79.8c0.4-0.6,0.7-0.8,1.1-1.4l0.9-1.1l0.1-0.1c0.6-0.8,1.1-1.3,1.3-1.6l0,0
		C127.3,88.5,127,81.7,127.2,74.9z"></path><path class="st2" d="M85,187.6l0.1-0.2c7-31.9,19.7-62,40-87.7C104.2,125.8,92.6,155.3,85,187.6z"></path><path class="st1" d="M85,188.1h-0.1c-0.3-0.1-0.4-0.3-0.4-0.6c0,0,0,0,0,0l0,0l0.4-1.5c3.4-15.5,8.4-30.6,14.8-45.1
		c6.5-14.9,14.8-28.8,24.9-41.5c0.2-0.2,0.5-0.3,0.7-0.1c0.2,0.2,0.3,0.5,0.1,0.7c0,0,0,0-0.1,0.1c-9.9,12.7-18.3,26.6-24.8,41.4
		c-6.3,14.5-11.2,29.6-14.8,45.1c-0.1,0.3-0.2,0.7-0.2,1l-0.1,0.2l0,0C85.5,187.9,85.3,188.1,85,188.1z"></path><path class="st2" d="M85,187.6L85,187.6L85,187.6c14.3-20.9,29.6-39,50.2-54.1c-1.5-5-2.6-10-3.6-15.1c-0.4-2.2-0.6-3.3-0.9-5.5
		c-21.5,20.9-35,46.9-45.7,74.5L85,187.6z"></path><path class="st1" d="M85,188c-0.1,0-0.2,0-0.2-0.1c-0.2-0.1-0.3-0.3-0.2-0.5c0-0.1,0-0.2,0.1-0.2c12.9-33.4,27-56.5,45.8-74.7
		c0.1-0.1,0.3-0.2,0.5-0.1c0.2,0.1,0.3,0.2,0.3,0.4c0.3,2.2,0.5,3.3,0.9,5.5c0.9,5.1,2.1,10.1,3.5,15.1c0.1,0.2,0,0.4-0.2,0.5
		c-18.2,13.4-33.7,30-50.1,53.9c0,0.1-0.1,0.1-0.1,0.1C85.3,187.9,85.1,188,85,188z M130.4,113.8c-17.6,17.4-31.1,39.1-43.4,70
		c15.5-22.1,30.3-37.8,47.7-50.6c-1.4-4.9-2.6-9.8-3.5-14.8C130.9,116.6,130.7,115.5,130.4,113.8L130.4,113.8z"></path><path class="st2" d="M131.7,118.3c5.7-5.4,11.8-10.3,18.2-14.7c-6.6,2.6-13,5.7-19.2,9.2C131.1,115.1,131.3,116.2,131.7,118.3z"></path><path class="st1" d="M131.7,118.8h-0.2c-0.2-0.1-0.3-0.2-0.3-0.4c-0.4-2.2-0.6-3.3-1-5.5c0-0.2,0.1-0.4,0.2-0.5
		c6.2-3.5,12.6-6.6,19.2-9.2c0.2-0.1,0.5,0,0.7,0.2s0,0.5-0.2,0.7l0,0c-6.4,4.4-12.5,9.3-18.1,14.6
		C131.9,118.8,131.8,118.8,131.7,118.8z M131.3,113.1c0.3,1.7,0.4,2.7,0.7,4.2c4.5-4.1,9.1-7.9,14-11.5
		C141,108,136.1,110.4,131.3,113.1z"></path></g><g id="hand-and-paper"><path class="st0" d="M88.6,266.7c-7-2.2-7-12-0.8-28.2s26.5-48.8,60.5-54s-5.7,55.3-5.7,55.3s-14.7,3.7-19.9,14.1
		s-9.5,17.7-15.9,16.5S88.6,266.7,88.6,266.7z"></path><polygon class="st2" points="87,349.4 87.9,292.2 151.1,292.3 150,361.7 101.6,361.7 	"></polygon><path class="st1" d="M150,362.2L150,362.2h-48.3c-0.1,0-0.2,0-0.3-0.1l-14.6-12.3c-0.1-0.1-0.2-0.2-0.2-0.4l0.9-57.2
		c0-0.3,0.2-0.5,0.5-0.5l0,0h63.1c0.1,0,0.3,0.1,0.4,0.1c0.1,0.1,0.1,0.2,0.1,0.4l-1.1,69.5C150.5,362,150.3,362.2,150,362.2z
		 M101.8,361.2h47.7l1.1-68.5H88.4l-0.9,56.5L101.8,361.2z"></path><polygon class="st0" points="87,349.4 102.3,349.4 101.6,361.7 	"></polygon><path class="st1" d="M101.6,362.2c-0.1,0-0.2,0-0.3-0.1l-14.6-12.3c-0.2-0.1-0.2-0.4-0.2-0.5c0.1-0.2,0.3-0.3,0.5-0.3h15.3l0,0
		c0.1,0,0.3,0.1,0.4,0.1c0.1,0.1,0.1,0.2,0.1,0.4l-0.7,12.3c0,0.2-0.1,0.4-0.3,0.4C101.7,362.2,101.7,362.2,101.6,362.2z
		 M88.4,349.9l12.8,10.7l0.6-10.8L88.4,349.9z"></path><line class="st3" x1="141.5" y1="343.7" x2="105.9" y2="343.7"></line><path class="st1" d="M141.5,344.2L141.5,344.2h-35.6c-0.3,0-0.5-0.2-0.5-0.5c0,0,0,0,0,0c0-0.3,0.2-0.5,0.5-0.5l0,0h35.6
		c0.3,0,0.5,0.2,0.5,0.5S141.8,344.2,141.5,344.2L141.5,344.2z"></path><line class="st3" x1="141.7" y1="334.4" x2="106.1" y2="334.3"></line><path class="st1" d="M141.7,334.9L141.7,334.9h-35.6c-0.3,0-0.5-0.2-0.5-0.5s0.2-0.5,0.5-0.5l0,0h35.6c0.3,0,0.5,0.2,0.5,0.5
		S142,334.9,141.7,334.9z"></path><line class="st3" x1="141.9" y1="325" x2="106.3" y2="325"></line><path class="st1" d="M141.9,325.5L141.9,325.5h-35.6c-0.3,0-0.5-0.2-0.5-0.5s0.2-0.5,0.5-0.5l0,0h35.6c0.3,0,0.5,0.2,0.5,0.5
		S142.2,325.5,141.9,325.5z"></path><line class="st3" x1="142.1" y1="315.7" x2="106.5" y2="315.6"></line><path class="st1" d="M142.1,316.2L142.1,316.2h-35.6c-0.3,0-0.5-0.2-0.5-0.5s0.2-0.5,0.5-0.5l0,0h35.6c0.3,0,0.5,0.2,0.5,0.5
		C142.6,315.9,142.4,316.2,142.1,316.2z"></path><line class="st3" x1="142.4" y1="306.3" x2="106.7" y2="306.3"></line><path class="st1" d="M142.4,306.8L142.4,306.8h-35.6c-0.3,0-0.5-0.2-0.5-0.5c0-0.3,0.2-0.5,0.5-0.5l0,0h35.6c0.3,0,0.5,0.2,0.5,0.5
		C142.9,306.6,142.6,306.8,142.4,306.8z"></path><path class="st2" d="M88.1,261.9c-1.6,8.6-6,16.5-12.4,22.5c-6.3,5.7-9.5,7.3-9.5,7.3s2.7,7.3,10,5.4s9.9-6.3,9.9-6.3l-0.8,30.7
		c0,0,6.2,3.2,7-5.2s1.7-23.5,1.7-23.5l18.3-5.8c0,0-1.2-7.4-1.5-12.4s1.1-8.9-6.1-11.3S88.1,261.9,88.1,261.9z"></path><path class="st1" d="M87.8,322.6c-1,0-1.9-0.2-2.8-0.6c-0.2-0.1-0.3-0.3-0.3-0.5l0.8-29.2c-2.5,2.6-5.7,4.5-9.3,5.3
		c-7.7,2-10.6-5.6-10.6-5.7c-0.1-0.2,0-0.5,0.2-0.6c0,0,3.3-1.6,9.4-7.2c6.3-5.9,10.6-13.7,12.2-22.3c0-0.2,0.2-0.4,0.4-0.4
		c0.4,0,9.8-1,17,1.4c6.3,2.1,6.3,5.4,6.3,9.3c0,0.8,0,1.6,0.1,2.5c0.3,5,1.5,12.3,1.5,12.3c0,0.2-0.1,0.5-0.3,0.6l-18,5.7
		c-0.1,2.3-1,15.5-1.7,23.2c-0.3,3-1.2,4.9-2.8,5.8C89.3,322.5,88.6,322.7,87.8,322.6z M85.8,321.2c1.2,0.5,2.5,0.5,3.7,0
		c1.3-0.7,2.1-2.4,2.3-5c0.8-8.4,1.7-23.4,1.7-23.5c0-0.2,0.1-0.4,0.3-0.4l17.9-5.7c-0.2-1.6-1.2-7.7-1.4-12c0-0.9-0.1-1.7-0.1-2.5
		c0-3.8,0-6.5-5.7-8.4c-6.2-2.1-14.3-1.5-16.1-1.4c-1.7,8.6-6.1,16.5-12.5,22.5c-2.8,2.7-5.9,5.1-9.2,7.2c0.7,1.5,3.3,6.2,9.2,4.7
		c7-1.8,9.6-6,9.6-6.1c0.1-0.2,0.4-0.3,0.7-0.2c0.2,0.1,0.3,0.3,0.2,0.4L85.8,321.2z"></path><path class="st2" d="M58,290c0.7-1.2,2-1.9,3.3-1.7c0.4,0.1,0.8,0.2,1.1,0.3l4.8,2.5l10.7,5.5l8,4.1l7.4,3.8l5,2.6l17.4,9l4,3.9
		c-0.9,0.7-1.4,1.7-1.6,2.8c0,0.2,0,0.3,0,0.5l-6-0.8l-19.5-10.3l-7-3.7l-26.3-13.8c-1.6-0.9-2.2-2.9-1.4-4.5
		C58,290.1,58,290,58,290z"></path><path class="st1" d="M118.2,323.7L118.2,323.7l-6.1-0.7c-0.1,0-0.1,0-0.2-0.1L59.1,295c-1.9-1-2.6-3.3-1.6-5.2c0,0,0-0.1,0-0.1l0,0
		c0.8-1.4,2.3-2.1,3.8-1.9c0.4,0.1,0.9,0.2,1.3,0.4l53.3,27.3l0.1,0.1l4,3.9c0.1,0.1,0.2,0.2,0.2,0.4c0,0.1-0.1,0.3-0.2,0.4
		c-0.8,0.6-1.3,1.5-1.4,2.5v0.4C118.6,323.5,118.4,323.7,118.2,323.7C118.2,323.7,118.2,323.7,118.2,323.7L118.2,323.7z M112.4,322
		l5.3,0.7c0.1-1,0.6-2,1.3-2.7l-3.6-3.5l-53.2-27.3c-1.4-0.7-3-0.2-3.8,1.1c-0.8,1.4-0.3,3.1,1.1,3.9c0,0,0,0,0,0L112.4,322z"></path><path class="st2" d="M93.2,304.8c0,0-0.5,3.2,4,2.5s3.8-5.5,3.9-10.2s1.3-12.6-1.6-12.9s-5,0.9-5.5,8.5S93.2,304.8,93.2,304.8z"></path><path class="st1" d="M96.1,307.9c-1,0.1-1.9-0.3-2.6-0.9c-0.6-0.6-0.8-1.5-0.8-2.3c0-0.3,0.3-4.6,0.8-12c0.3-4.3,1.1-6.9,2.6-8.1
		c1-0.8,2.3-1.1,3.5-0.9c2.8,0.3,2.5,5.8,2.2,10.7c-0.1,0.9-0.1,1.8-0.2,2.7s0,1.4,0,2c0,4-0.1,8.1-4.3,8.7
		C96.9,307.9,96.5,307.9,96.1,307.9z M93.7,304.9c-0.1,0.5,0.1,1.1,0.5,1.5c0.9,0.6,1.9,0.8,2.9,0.5c3.2-0.5,3.4-3.2,3.5-7.7
		c0-0.7,0-1.4,0-2.1s0.1-1.7,0.1-2.7c0.3-4,0.6-9.5-1.3-9.7c-1-0.2-2,0-2.8,0.6c-1.2,1-2,3.5-2.2,7.4
		C94,300.4,93.7,304.8,93.7,304.9L93.7,304.9z M93.2,304.8L93.2,304.8z"></path><path class="st2" d="M100.1,301.6c2.7,1.3,6.5,2.1,6.9-1.6s0.1-18.4-1.2-19.1s-5.6,0.4-6.2,6.1S100.1,301.6,100.1,301.6z"></path><path class="st1" d="M104,303.2c-1.4-0.1-2.9-0.5-4.2-1.1c-0.2-0.1-0.3-0.2-0.3-0.4c0-0.4-1.1-9.2-0.5-14.8
		c0.3-2.9,1.7-5.2,3.8-6.2c1-0.6,2.2-0.7,3.2-0.3c1.8,1,1.8,16.7,1.4,19.6c0,1.1-0.7,2.2-1.6,2.7C105.3,303.1,104.6,303.2,104,303.2
		z M100.5,301.3c2.1,1,3.8,1.2,4.8,0.6c0.7-0.4,1.1-1.2,1.1-2c0.5-4.3,0-17.7-1-18.7c-0.8-0.2-1.6-0.1-2.2,0.3
		c-1,0.5-2.8,1.9-3.2,5.4C99.5,292,100.4,299.8,100.5,301.3L100.5,301.3z"></path><path class="st2" d="M106.3,297.3c3.1,0.9,7,1.5,7-3.6s-2.1-11.8-4.4-12.1s-3.9,3.7-3.4,9.2S106.3,297.3,106.3,297.3z"></path><path class="st1" d="M109.8,298.4c-1.2,0-2.4-0.2-3.6-0.6c-0.1,0-0.3-0.2-0.3-0.3c0-0.1-0.4-1.1-0.8-6.6c-0.3-4.1,0.4-7.6,2-9.1
		c0.5-0.5,1.3-0.8,2-0.7c2.7,0.4,4.8,7.8,4.8,12.6c0,1.8-0.5,3.1-1.5,3.9C111.6,298.1,110.7,298.4,109.8,298.4z M106.8,296.9
		c1.8,0.5,3.8,0.9,5,0c0.8-0.8,1.2-2,1.1-3.1c0-5.1-2.2-11.4-3.9-11.6c-0.4-0.1-0.9,0.1-1.2,0.4c-1.1,1-2,4-1.7,8.3
		C106.1,292.8,106.4,294.8,106.8,296.9L106.8,296.9z"></path><path class="st0" d="M119.7,319.9l4,4l-5.6-0.7C118.2,323.2,117.3,320.5,119.7,319.9z"></path><path class="st1" d="M123.7,324.4L123.7,324.4l-5.6-0.7c-0.2,0-0.4-0.2-0.4-0.4c-0.3-0.9-0.2-1.9,0.2-2.7c0.4-0.6,1-1.1,1.7-1.2
		c0.2,0,0.3,0,0.5,0.1l4,4c0.2,0.2,0.2,0.4,0.1,0.6C124.1,324.3,123.9,324.4,123.7,324.4z M118.6,322.7l3.8,0.5l-2.7-2.8
		c-0.3,0.1-0.6,0.3-0.8,0.7C118.5,321.6,118.4,322.2,118.6,322.7z"></path></g><g id="hand-with-phone"><path class="st2" d="M363,80.2c7.6-13.8,13.5-24.1,16.5-23.2s23.2,7,24.1,8.3s-3.8,8.3-3.8,8.3L388.3,103l-8.2,15.4l-9.1,8.5
		c0,0-11.2,0-13.2-1.4s-10.4-9.2-10.4-10.8s-0.8-7.1,0-8.2S363,80.2,363,80.2z"></path><path class="st1" d="M371.1,127.4c-1.2,0-11.4,0-13.5-1.4c-1.5-1-10.7-9.2-10.7-11.2c0-0.4-0.1-1.1-0.1-1.9
		c-0.2-3.2-0.4-5.7,0.2-6.5s10.4-17.6,15.5-26.4c8.4-15.3,13.8-24.5,17.1-23.5c10.6,3.2,23.5,7.2,24.3,8.5c1,1.5-2.3,6.6-3.8,8.8
		l-11.5,29.3l-8.2,15.5c0,0-0.1,0.1-0.1,0.1l-9.1,8.5C371.3,127.4,371.2,127.4,371.1,127.4z M379.1,57.4c-3,0-10,12.7-15.7,23l0,0
		c-0.6,1-14.8,25.4-15.6,26.4c-0.4,0.6-0.2,4.2,0,5.9c0.1,0.8,0.1,1.6,0.1,2c0.1,1.2,7.8,8.7,10.2,10.3c1.3,0.9,8.2,1.3,12.7,1.3
		l8.9-8.3l8.1-15.4l11.5-29.3c0,0,0-0.1,0-0.1c2.4-3.6,4.2-7.2,3.8-7.8c-0.7-0.8-10.3-4.1-23.8-8.1
		C379.3,57.4,379.2,57.4,379.1,57.4L379.1,57.4z M363,80.2L363,80.2z"></path><polygon class="st0" points="378.3,61.2 397.7,67.9 372,114.6 353.6,107.1 	"></polygon><path class="st2" d="M341.4,136.2c3.9-7.1,3.9-12,3.9-22.2s5.6-24.1,12.3-29.8s12.9-7.4,14.7-5c1.4,1.9-0.5,6.9-5.9,10.4
		c-4.3,2.9-7.7,6.9-9.9,11.6l-5.5,11.7l16.4,7.2c3.1,1.3,6.6,0.1,8.3-2.8l24.2-43.4c0,0,4.1-4.2,6.2-2.6s-3.5,12.6-7.9,19.8
		s-7.4,20.3-13,27.2s-12.1,9.2-14.7,13.3s-4.8,14.4-4.8,14.4S348.7,146.3,341.4,136.2z"></path><path class="st1" d="M365.2,146.4c-2.8,0-17.4-0.5-24.2-9.9c-0.1-0.2-0.1-0.4,0-0.5c3.9-7,3.9-11.7,3.9-22
		c0-10.5,5.7-24.4,12.4-30.2c4.8-4.2,9.8-6.5,13-6.2c1,0,1.8,0.5,2.4,1.2c0.5,0.8,0.7,1.9,0.5,2.8c-0.4,2.2-2.3,5.6-6.5,8.2
		c-4.2,2.8-7.6,6.8-9.7,11.4l-5.3,11.2l15.9,7c2.8,1.2,6.1,0.1,7.6-2.6l24.2-43.4c0,0,0-0.1,0.1-0.1c0.5-0.5,4.5-4.5,6.9-2.6
		c2.9,2.3-5.2,16.2-7.8,20.5c-2,3.6-3.7,7.4-5.1,11.3c-2.3,5.8-4.7,11.9-8,16c-2.6,3.1-5.7,5.9-9.1,8.2c-2.4,1.7-4.4,3.2-5.6,5.1
		c-2.5,4-4.8,14.1-4.8,14.2c-0.1,0.2-0.2,0.4-0.5,0.4L365.2,146.4z M342,136.1c6.5,8.7,20.7,9.2,23.2,9.2c0.5-2,2.5-10.4,4.8-14.1
		c1.2-2,3.4-3.5,5.8-5.3c3.3-2.2,6.3-4.9,8.9-8c3.2-4,5.5-9.9,7.8-15.7c1.4-4,3.2-7.8,5.2-11.5c6-9.8,9.4-18.1,8-19.2
		s-4.4,1.4-5.5,2.5L376,117.3c-1.8,3.1-5.6,4.4-8.9,3l-16.4-7.2c-0.1-0.1-0.2-0.2-0.3-0.3c-0.1-0.1-0.1-0.3,0-0.4l5.6-11.7
		c2.2-4.8,5.7-8.9,10.1-11.8c3.9-2.5,5.7-5.7,6.1-7.6c0.2-0.7,0.1-1.4-0.3-2c-0.4-0.5-1.1-0.8-1.7-0.8c-2.9-0.3-7.7,2-12.2,5.9
		c-6.5,5.7-12.1,19.1-12.1,29.4C345.8,124,345.8,129.1,342,136.1z"></path><path class="st0" d="M365.5,140.1c5.4,2.8,5.6,8.2,3.2,19.7s-17.3,51-17.3,51l-35.2-29l11.9-37.2c0,0,8.2-16.6,17.5-13.6
		S365.5,140.1,365.5,140.1z"></path></g><g id="globe"><path class="st2" d="M365.6,234.5c0,61.7-50.1,111.7-111.7,111.7c-61.7,0-111.7-50.1-111.7-111.7S192.3,122.7,254,122.7
		c20.2,0,40.1,5.5,57.4,15.9l0,0C345.1,158.8,365.7,195.2,365.6,234.5L365.6,234.5z"></path><path class="st1" d="M253.9,346.7c-62,0-112.2-50.3-112.2-112.3s50.3-112.2,112.3-112.2c20.3,0,40.2,5.5,57.6,15.9h0.1
		c20.3,12.2,36.2,30.5,45.6,52.3c12.6,29.7,11.9,63.3-2,92.4C336.6,321.9,297.2,346.8,253.9,346.7z M253.9,123.3
		c-61.4,0-111.3,49.8-111.3,111.2s49.8,111.3,111.2,111.3c42.9,0,81.9-24.6,100.4-63.3c13.7-28.8,14.5-62.2,2-91.6
		c-9.3-21.6-25-39.7-45.1-51.8c0,0,0,0-0.1,0C293.8,128.7,274.1,123.2,253.9,123.3L253.9,123.3z"></path><path class="st0" d="M355.4,187.7c0.9,1.9,0.5,4.1-0.9,5.6c-5.5,5.7-15.3,11.9-20.3,12.4c-6.8,0.7-3.2,3.2-4.7,10.4
		s-6.5,5.4-14,8.6s-9.4-1.8-23-12.9s-10.4-0.4-25.5,0s-14-8.6-16.2-14.4s3.2-10.5,15.8-20.9s13.3-4,23.4-11.1
		c9-6.4,10.5-22.7,21.4-26.8l0,0C330.6,150.2,346,167.3,355.4,187.7z"></path><path class="st1" d="M311.5,226.3c-3.5,0-6.2-2.5-11-6.8c-2.2-2-4.9-4.4-8.4-7.3c-8-6.5-9.9-5.4-13.4-3.3
		c-3.5,2.2-7.6,3.4-11.7,3.4c-12.8,0.3-14.4-5.9-15.7-11.4c-0.3-1.1-0.6-2.2-0.9-3.3c-2.4-6.2,3.8-11.3,16-21.4
		c7-5.8,10.5-6.5,13.8-7.1c3.5-0.5,6.8-1.9,9.6-4.1c3.9-2.8,6.5-7.7,8.9-12.4c3.1-6,6.4-12.2,12.6-14.5c0.1-0.1,0.3-0.1,0.4,0
		c19.4,11.6,34.8,28.8,44.2,49.3c1,2.1,0.6,4.5-1,6.2c-5.7,5.9-15.7,12-20.6,12.6c-4.1,0.4-4,1.3-3.9,4.1c0.1,2,0,4-0.3,5.9
		c-1.1,5.3-4,6-8.2,7c-2.1,0.5-4.2,1.2-6.2,2C314.4,225.9,313,226.2,311.5,226.3z M283,206.3c2.2,0,5,1.3,9.8,5.2
		c3.5,2.8,6.2,5.3,8.4,7.3c6.5,5.9,8.7,7.9,14.1,5.6c2-0.8,4.2-1.5,6.3-2c4-1,6.5-1.6,7.4-6.3c0.4-1.9,0.5-3.8,0.3-5.7
		c-0.1-3.1,0-4.7,4.8-5.2s14.4-6.4,20-12.2c1.2-1.3,1.6-3.3,0.8-4.9c-9.3-20.3-24.5-37.2-43.6-48.8c-5.7,2.3-8.8,8.2-11.8,14
		c-2.5,4.8-5.1,9.8-9.2,12.7c-2.9,2.3-6.4,3.7-10,4.3c-3.2,0.6-6.5,1.2-13.3,6.9c-12.6,10.5-17.7,14.9-15.7,20.3
		c0.4,1.1,0.7,2.2,1,3.4c1.3,5.4,2.7,11,14.7,10.7c4,0,7.9-1.1,11.3-3.3C279.9,207.1,281.3,206.3,283,206.3L283,206.3z"></path><path class="st0" d="M209.9,188c1.3-0.2,2.7,0.2,3.7,1c6.1,4.9,7.2,9.3,6.6,15.2c-0.7,6.5-10.8,6.1-1.4,13.7s10.1,6.5,14,8.9
		s8.3,3,10.8,7.7c2.1,3.8,3.7,8,4.7,12.3c1.4,5.4-7,5.4,2.1,8.3c9.1,2.9,12.3,1.8,9.8,6.8s-11.1,13.3-14,14.4s-10.4,8.3-22.7,4
		s1.4-3.6-18.4-10.8s-21.9-7.9-25.5-7.6s-5.4,8.3-10.1-2.1c-2.8-6.3-6.1-12.5-9.7-18.4c0,0-5.8-8.9-3.2-15.6s10.4-17.5,14-21.8
		s13.3-13.3,19.1-13.7C194.1,190,205.3,188.6,209.9,188z"></path><path class="st1" d="M231,282.1c-2.7,0-5.3-0.5-7.8-1.4c-5.2-1.8-5.9-2.8-6.5-4.2c-0.5-1.2-1-2.7-11.9-6.6
		c-19.6-7.1-21.8-7.9-25.3-7.5c-1,0.3-1.9,0.8-2.6,1.6c-1.1,0.9-2.2,1.9-3.5,1.6s-2.8-2-4.4-5.6c-2.8-6.3-6.1-12.4-9.7-18.3
		c-0.2-0.4-5.9-9.1-3.3-16s10.6-17.8,14.1-22c3.9-4.6,13.5-13.5,19.4-13.9c4.5-0.3,15.6-1.7,20.2-2.2l0,0c1.5-0.2,3,0.2,4.1,1.1
		c6.5,5.2,7.4,10,6.8,15.7c-0.3,2.6-2,4.2-3.4,5.5c-1.1,1-2,1.9-2,3s1.3,2.8,3.8,4.8c6.6,5.4,8.9,6.4,11,7.3c1,0.4,2,0.9,2.9,1.5
		c1,0.6,2.1,1.1,3.2,1.6c2.9,1.3,5.9,2.7,7.8,6.3c2.2,3.9,3.7,8,4.7,12.4c0.5,1.8-0.1,3.8-1.5,5c-0.4,0.4-0.7,0.8-0.7,1
		s0.8,0.9,3.9,1.9c2.3,0.7,4.2,1.2,5.7,1.6c2.9,0.7,4.6,1.1,5.1,2.3c0.4,0.8,0.2,1.9-0.7,3.6c-2.6,5.2-11.4,13.5-14.3,14.6
		c-0.7,0.3-1.4,0.7-2.1,1.1C241.5,279.4,237.1,282.1,231,282.1z M180.8,261.3c3.2,0,7.1,1.4,24.4,7.7c11.3,4.1,11.9,5.8,12.5,7.2
		c0.4,0.9,0.7,1.8,5.9,3.6c9.7,3.4,16.5-0.6,20.1-2.8c0.7-0.5,1.4-0.9,2.2-1.2c2.7-1,11.3-9.2,13.8-14.1c0.7-1.4,0.9-2.3,0.7-2.8
		c-0.4-0.8-2-1.2-4.4-1.8c-1.6-0.4-3.5-0.9-5.8-1.6c-3.1-1-4.3-1.7-4.6-2.5s0.3-1.3,0.9-2c1.2-1,1.7-2.6,1.3-4.1
		c-1-4.3-2.5-8.3-4.6-12.2c-1.8-3.3-4.4-4.5-7.3-5.8c-1.1-0.5-2.2-1-3.3-1.6c-0.9-0.5-1.9-1-2.8-1.4c-2.2-1-4.5-2-11.3-7.5
		c-2.8-2.3-4.1-4-4.1-5.5s1.1-2.6,2.3-3.7s2.8-2.6,3.1-4.9c0.6-5.5-0.2-9.9-6.4-14.8c-0.9-0.8-2.2-1.1-3.4-0.9
		c-4.6,0.6-15.8,2-20.3,2.3c-5.5,0.4-15.1,9.1-18.7,13.5c-3.3,4-11.4,15-13.9,21.7c-2.4,6.4,3.1,15,3.2,15.1
		c3.6,5.9,6.9,12.1,9.8,18.4c1.4,3.1,2.6,4.8,3.7,5c0.9,0.2,1.7-0.5,2.6-1.4c0.8-0.9,2-1.6,3.2-1.8
		C179.9,261.3,180.4,261.3,180.8,261.3L180.8,261.3z"></path><path class="st0" d="M352.9,286.4c-14.5,27.5-39.7,47.8-69.8,56c-2.7,0.8-5.4-0.8-6.2-3.4c-0.4-1.3-0.2-2.8,0.5-4l0.1-0.1
		c2-4.8,1.3-2.2,2.6-8.4s-1.3-5.3,4-28.6s11-2.6,14.5-6.6c2.9-3.3,7.6-11,9.1-13.6c0.4-0.6,0.9-1.1,1.4-1.5
		c3.2-2.2,14.1-9.8,19.4-11.2c6.2-1.8,9.7,1.8,15.9,7.9c2.6,2.6,4.7,5.2,7.4,7.6C353.5,281.9,353.9,284.4,352.9,286.4z"></path><path class="st1" d="M281.7,343c-1.7,0-3.4-0.8-4.4-2.2c-1.4-1.8-1.5-4.2-0.4-6.1c0.5-1.3,0.9-2,1.1-2.6c0.6-1.3,0.6-1.3,1.2-4.3
		l0.3-1.5c0.3-1.6,0.5-3.2,0.4-4.9c0-3.2,0-8.1,3.5-23.8c1.6-7.3,3.5-11,5.7-11.6c2-0.6,3.8,1.3,5.4,3c1,1.1,2.1,2.2,2.9,2.2l0,0
		c0.3,0,0.5-0.2,0.6-0.4c2.9-3.2,7.7-11.2,9.1-13.6c0.4-0.7,0.9-1.3,1.6-1.7c3.2-2.3,14.2-9.8,19.5-11.3c6.4-1.8,10.2,1.9,16.3,8
		c1.1,1,2,2.1,3,3.1c1.5,1.6,2.8,3,4.4,4.5c1.8,1.7,2.3,4.4,1.1,6.7l0,0c-14.5,27.6-39.9,48-70.1,56.2
		C282.7,343,282.2,343.1,281.7,343z M290,287c-0.2,0-0.3,0-0.5,0.1c-1.8,0.5-3.5,4.2-5,10.9c-3.5,15.5-3.5,20.4-3.5,23.6
		c0.1,1.7-0.1,3.4-0.5,5.1l-0.3,1.5c-0.6,3.1-0.7,3.1-1.3,4.5c-0.2,0.5-0.6,1.3-1.1,2.5c0,0.1-0.1,0.1-0.1,0.2
		c-0.9,1.6-0.8,3.6,0.3,5c1.1,1.5,3,2.2,4.8,1.6c29.9-8.1,55-28.3,69.4-55.7c1-1.8,0.6-4.1-0.9-5.5c-1.6-1.5-3.1-3-4.5-4.5
		c-0.9-1-1.9-2-2.9-3.1c-6.1-6.1-9.5-9.5-15.4-7.8c-5.1,1.5-16,8.9-19.2,11.2c-0.5,0.4-1,0.8-1.3,1.4c-1.8,3-6.3,10.5-9.2,13.7
		c-0.3,0.4-0.8,0.7-1.4,0.7c-1.1,0-2.4-1.2-3.6-2.5S291.4,287,290,287z M352.9,286.4L352.9,286.4z"></path></g><g id="line"><path class="st1" d="M82,245.9c-0.3,0-0.5-0.2-0.5-0.4c-0.1-1.5-0.2-3-0.3-4.5c0-0.3,0.2-0.5,0.5-0.5c0,0,0,0,0,0
		c0.3,0,0.5,0.2,0.5,0.5c0.1,1.5,0.2,3,0.3,4.5C82.5,245.6,82.3,245.9,82,245.9C82.1,245.9,82.1,245.9,82,245.9L82,245.9z"></path><path class="st1" d="M81.5,237.1c-0.3,0-0.5-0.2-0.5-0.5c-0.1-1.8-0.1-3.7-0.1-5.6c0-0.8,0-1.5,0-2.3c0-0.3,0.2-0.5,0.4-0.5
		c0,0,0,0,0.1,0c0.3,0,0.5,0.2,0.5,0.5c0,0,0,0,0,0c0,0.7,0,1.5,0,2.2c0,1.9,0,3.7,0.1,5.6C82,236.8,81.8,237,81.5,237.1L81.5,237.1
		z M81.5,224.9L81.5,224.9c-0.3,0-0.5-0.2-0.5-0.5c0,0,0,0,0,0c0.1-2.6,0.3-5.2,0.5-7.8c0-0.3,0.3-0.5,0.5-0.5c0,0,0,0,0,0
		c0.3,0,0.5,0.3,0.5,0.5c0,0,0,0,0,0c-0.2,2.6-0.4,5.2-0.5,7.8C82,224.7,81.8,224.9,81.5,224.9L81.5,224.9z M82.4,212.8L82.4,212.8
		c-0.3,0-0.5-0.3-0.5-0.6c0.3-2.6,0.6-5.2,1-7.8c0-0.3,0.3-0.5,0.6-0.4c0.3,0,0.5,0.3,0.4,0.6c-0.4,2.6-0.8,5.2-1,7.7
		C82.9,212.6,82.7,212.7,82.4,212.8L82.4,212.8z"></path><path class="st1" d="M84.2,200.7L84.2,200.7c-0.4-0.1-0.5-0.3-0.5-0.6c0.3-1.5,0.6-3,0.9-4.4c0.1-0.3,0.3-0.5,0.6-0.4
		c0.3,0.1,0.5,0.3,0.4,0.6c-0.3,1.5-0.6,2.9-0.9,4.4C84.7,200.6,84.5,200.7,84.2,200.7z"></path><path class="st1" d="M370.4,351.2c-0.2,0-0.3-0.1-0.4-0.2c-0.2-0.2-0.2-0.5,0-0.7c1.1-1.1,2.1-2.1,3.1-3.2c0.2-0.2,0.5-0.2,0.7,0
		c0.2,0.2,0.2,0.5,0,0.7c-1,1.1-2.1,2.2-3.1,3.2C370.6,351.1,370.5,351.2,370.4,351.2z"></path><path class="st1" d="M249.9,400.8L249.9,400.8c-3.1,0-6.2-0.1-9.2-0.3c-0.3,0-0.5-0.3-0.5-0.5s0.3-0.5,0.5-0.5
		c3,0.2,6.1,0.3,9.2,0.3c0.3,0,0.5,0.2,0.5,0.5c0,0,0,0,0,0C250.4,400.5,250.1,400.8,249.9,400.8
		C249.9,400.8,249.9,400.8,249.9,400.8z M255,400.7c-0.3,0-0.5-0.2-0.5-0.5c0-0.3,0.2-0.5,0.5-0.5c3-0.1,6.1-0.2,9.2-0.5
		c0.3,0,0.5,0.2,0.5,0.5s-0.2,0.5-0.5,0.5C261.2,400.5,258,400.6,255,400.7L255,400.7z M235.6,400.1L235.6,400.1
		c-3.1-0.3-6.1-0.6-9.2-1.1c-0.3,0-0.5-0.3-0.4-0.6c0-0.3,0.3-0.5,0.6-0.4c3,0.4,6.1,0.8,9.1,1c0.3,0,0.5,0.3,0.5,0.5c0,0,0,0,0,0
		C236.1,399.9,235.9,400.1,235.6,400.1C235.6,400.1,235.6,400.1,235.6,400.1z M269.2,399.8c-0.3,0-0.5-0.2-0.5-0.5s0.2-0.5,0.5-0.5
		c3-0.3,6.1-0.8,9.1-1.2c0.3,0,0.5,0.1,0.6,0.4c0,0.3-0.1,0.5-0.4,0.6C275.4,399,272.3,399.4,269.2,399.8L269.2,399.8z M221.4,398.2
		L221.4,398.2c-3.1-0.5-6.2-1.1-9.1-1.8c-0.3-0.1-0.5-0.3-0.4-0.6c0.1-0.3,0.3-0.5,0.6-0.4c3,0.7,6,1.3,9,1.8c0.3,0,0.4,0.3,0.4,0.6
		c0,0,0,0,0,0C221.9,398.1,221.7,398.3,221.4,398.2L221.4,398.2z M283.4,397.6c-0.2,0-0.5-0.2-0.5-0.4c-0.1-0.3,0.1-0.5,0.4-0.6
		c0,0,0,0,0,0c3-0.6,6-1.3,8.9-2c0.3-0.1,0.5,0.1,0.6,0.4c0.1,0.3-0.1,0.5-0.4,0.6c0,0,0,0,0,0C289.5,396.4,286.5,397,283.4,397.6
		L283.4,397.6z M207.5,395.2h-0.1c-3-0.8-5.9-1.7-8.9-2.6c-0.3-0.1-0.4-0.4-0.3-0.6c0,0,0,0,0,0c0.1-0.3,0.4-0.4,0.6-0.3
		c2.9,0.9,5.9,1.8,8.8,2.6c0.3,0.1,0.4,0.3,0.4,0.6C207.9,395,207.7,395.2,207.5,395.2L207.5,395.2z M297.3,394.3
		c-0.3,0-0.5-0.2-0.6-0.4s0.2-0.5,0.4-0.6c2.9-0.8,5.9-1.8,8.7-2.8c0.3-0.1,0.5,0,0.6,0.3c0,0,0,0,0,0c0.1,0.3-0.1,0.5-0.3,0.6
		c-2.9,1-5.9,1.9-8.8,2.8C297.4,394.3,297.3,394.3,297.3,394.3L297.3,394.3z M193.8,391c-0.1,0-0.1,0-0.2,0c-2.9-1-5.8-2.1-8.6-3.3
		c-0.3-0.1-0.4-0.4-0.3-0.7c0.1-0.3,0.4-0.4,0.7-0.3c2.8,1.2,5.7,2.3,8.6,3.3c0.3,0.1,0.4,0.4,0.3,0.6
		C194.2,390.9,194,391,193.8,391z M310.8,389.8c-0.3,0-0.5-0.1-0.6-0.4s0.1-0.5,0.4-0.6c2.8-1.1,5.7-2.2,8.5-3.5
		c0.3-0.1,0.6,0,0.7,0.3s0,0.6-0.3,0.7c-2.8,1.2-5.7,2.4-8.5,3.5L310.8,389.8z M180.5,385.6c-0.1,0-0.1,0-0.2,0
		c-2.8-1.3-5.6-2.6-8.3-4.1c-0.2-0.1-0.3-0.4-0.2-0.7c0.1-0.2,0.4-0.3,0.7-0.2c0,0,0,0,0,0c2.7,1.4,5.5,2.8,8.2,4
		c0.3,0.1,0.4,0.4,0.2,0.7C180.9,385.5,180.7,385.6,180.5,385.6z M324,384.1c-0.2,0-0.4-0.1-0.5-0.3c-0.1-0.2,0-0.5,0.2-0.7
		c2.8-1.3,5.5-2.7,8.1-4.2c0.2-0.1,0.5,0,0.7,0.2c0,0,0,0,0,0c0.1,0.2,0,0.5-0.2,0.7c-2.7,1.5-5.4,2.9-8.2,4.2
		C324.2,384.1,324.1,384.1,324,384.1z M336.6,377.4c-0.3,0-0.5-0.2-0.5-0.5c0-0.2,0.1-0.3,0.2-0.4c2.6-1.5,5.2-3.2,7.8-4.9
		c0.2-0.2,0.5-0.1,0.7,0.1c0.2,0.2,0.1,0.5-0.1,0.7c-2.5,1.7-5.2,3.4-7.8,4.9C336.8,377.4,336.7,377.4,336.6,377.4L336.6,377.4z
		 M348.6,369.6c-0.2,0-0.3-0.1-0.4-0.2c-0.2-0.2-0.1-0.5,0.1-0.7c0,0,0,0,0,0c2.5-1.8,5-3.6,7.3-5.5c0.2-0.2,0.5-0.1,0.7,0.1
		c0.2,0.2,0.1,0.5-0.1,0.7c0,0,0,0,0,0c-2.4,1.9-4.9,3.8-7.4,5.5C348.8,369.6,348.7,369.6,348.6,369.6L348.6,369.6z M359.9,360.9
		c-0.1,0-0.3-0.1-0.4-0.2c-0.2-0.2-0.1-0.5,0.1-0.7c2.3-2,4.6-4,6.8-6.1c0.2-0.2,0.5-0.2,0.7,0c0,0,0,0,0,0c0.2,0.2,0.2,0.5,0,0.7
		c0,0,0,0,0,0c-2.2,2.1-4.5,4.2-6.9,6.1C360.2,360.8,360,360.9,359.9,360.9L359.9,360.9z"></path><path class="st1" d="M167.7,379c-0.1,0-0.2,0-0.2-0.1c-1.3-0.7-2.6-1.5-3.9-2.3c-0.2-0.1-0.3-0.4-0.2-0.7c0.1-0.2,0.4-0.3,0.7-0.2
		c0,0,0,0,0,0c1.3,0.8,2.6,1.5,3.9,2.2c0.2,0.1,0.3,0.4,0.2,0.7C168,378.9,167.9,379,167.7,379z"></path><path class="st1" d="M394,141.3c-0.2,0-0.3-0.1-0.4-0.2c-0.8-1.3-1.6-2.5-2.4-3.8c-0.2-0.2-0.1-0.5,0.1-0.7
		c0.2-0.2,0.5-0.1,0.7,0.1c0.8,1.2,1.7,2.5,2.5,3.8c0.1,0.2,0.1,0.5-0.1,0.7c0,0,0,0,0,0C394.2,141.3,394.1,141.3,394,141.3z"></path><path class="st1" d="M417.9,205.1c-0.2,0-0.5-0.2-0.5-0.4c-0.5-2.9-1-5.8-1.6-8.6c-0.1-0.3,0.1-0.5,0.4-0.6c0,0,0,0,0,0
		c0.3-0.1,0.5,0.1,0.6,0.4c0,0,0,0,0,0c0.6,2.9,1.1,5.8,1.6,8.7C418.5,204.8,418.3,205.1,417.9,205.1L417.9,205.1z M415.2,191.7
		c-0.2,0-0.4-0.2-0.5-0.4c-0.7-2.8-1.5-5.7-2.3-8.5c-0.1-0.3,0.1-0.5,0.3-0.6c0,0,0,0,0,0c0.3-0.1,0.5,0.1,0.6,0.3
		c0.8,2.8,1.6,5.7,2.3,8.6c0.1,0.3-0.1,0.5-0.4,0.6L415.2,191.7z M411.5,178.5c-0.2,0-0.4-0.1-0.5-0.3c-0.9-2.8-1.9-5.6-3-8.3
		c-0.1-0.2,0-0.5,0.2-0.7s0.5,0,0.7,0.2c0,0,0,0,0,0.1c1.1,2.7,2.1,5.5,3,8.3c0.1,0.3-0.1,0.5-0.3,0.6L411.5,178.5z M406.7,165.6
		c-0.2,0-0.4-0.1-0.5-0.3c-1.1-2.7-2.4-5.4-3.6-8c-0.1-0.2,0-0.5,0.2-0.7c0,0,0,0,0,0c0.2-0.1,0.5,0,0.7,0.2c0,0,0,0,0,0
		c1.3,2.6,2.5,5.3,3.7,8.1c0.1,0.3,0,0.5-0.3,0.7c0,0,0,0,0,0C406.8,165.6,406.7,165.6,406.7,165.6L406.7,165.6z M400.8,153.2
		c-0.2,0-0.4-0.1-0.5-0.3c-1.4-2.6-2.8-5.2-4.3-7.7c-0.1-0.2-0.1-0.5,0.2-0.7c0,0,0,0,0,0c0.2-0.1,0.5-0.1,0.7,0.2
		c1.5,2.5,2.9,5.1,4.3,7.7c0.1,0.2,0,0.5-0.2,0.7C401,153.2,400.9,153.2,400.8,153.2L400.8,153.2z"></path><path class="st1" d="M419.1,214.5c-0.3,0-0.5-0.2-0.5-0.4c-0.1-1.5-0.3-3-0.5-4.5c0-0.3,0.2-0.5,0.4-0.6s0.5,0.2,0.6,0.4
		c0.2,1.5,0.4,3,0.5,4.5C419.7,214.2,419.5,214.4,419.1,214.5C419.2,214.5,419.2,214.5,419.1,214.5L419.1,214.5z"></path><path class="st1" d="M152.7,93.4c-0.3,0-0.5-0.2-0.5-0.5c0-0.2,0.1-0.3,0.2-0.4c1.2-0.9,2.5-1.7,3.7-2.6c0.2-0.2,0.5-0.1,0.7,0.1
		c0,0,0,0,0,0c0.2,0.2,0.1,0.5-0.1,0.7c0,0,0,0,0,0c-1.2,0.8-2.5,1.7-3.7,2.6C152.9,93.4,152.8,93.4,152.7,93.4z"></path><path class="st1" d="M160.6,88.1c-0.2,0-0.3-0.1-0.4-0.2c-0.1-0.2-0.1-0.5,0.1-0.7c2.5-1.6,5.2-3.2,7.8-4.6c0.2-0.1,0.5,0,0.7,0.2
		c0.1,0.2,0,0.5-0.2,0.7c0,0,0,0,0,0c-2.6,1.5-5.2,3-7.7,4.6C160.8,88.1,160.7,88.1,160.6,88.1z M330,81.9c-0.1,0-0.2,0-0.2,0
		c-2.6-1.4-5.4-2.8-8.1-4c-0.3-0.1-0.4-0.4-0.2-0.7c0,0,0,0,0,0c0.1-0.2,0.4-0.4,0.6-0.2c0,0,0,0,0,0c2.7,1.3,5.5,2.6,8.1,4
		c0.2,0.1,0.3,0.4,0.2,0.7C330.4,81.8,330.2,81.9,330,81.9L330,81.9z M172.8,81.2c-0.2,0-0.4-0.1-0.4-0.3c-0.1-0.2,0-0.5,0.2-0.7
		c2.7-1.4,5.4-2.7,8.1-4c0.2-0.1,0.5,0,0.7,0.2c0,0,0,0,0,0c0.1,0.3,0,0.5-0.2,0.7c-2.7,1.2-5.4,2.6-8.1,3.9
		C173,81.1,172.9,81.1,172.8,81.2z M317.3,75.9c-0.1,0-0.1,0-0.2,0c-2.8-1.2-5.6-2.3-8.4-3.3c-0.3-0.1-0.4-0.4-0.3-0.7
		c0.1-0.3,0.4-0.4,0.6-0.3c2.8,1,5.6,2.2,8.4,3.3c0.3,0.1,0.4,0.4,0.3,0.6c0,0,0,0,0,0C317.7,75.8,317.5,75.9,317.3,75.9L317.3,75.9
		z M185.5,75.2c-0.2,0-0.4-0.1-0.5-0.3c-0.1-0.2,0-0.5,0.3-0.6c0,0,0,0,0,0c2.8-1.2,5.7-2.3,8.4-3.3c0.3-0.1,0.5,0,0.7,0.2
		c0.1,0.3,0,0.5-0.2,0.7c0,0-0.1,0-0.1,0c-2.8,1-5.6,2.1-8.4,3.2C185.7,75.2,185.6,75.2,185.5,75.2L185.5,75.2z M304.2,70.9h-0.2
		c-2.8-0.9-5.7-1.8-8.6-2.6c-0.3-0.1-0.4-0.4-0.4-0.6c0.1-0.3,0.4-0.4,0.6-0.4c2.9,0.8,5.8,1.7,8.7,2.6c0.3,0,0.5,0.3,0.4,0.6
		C304.8,70.7,304.5,70.9,304.2,70.9L304.2,70.9z M198.7,70.4c-0.2,0-0.4-0.1-0.5-0.3c-0.1-0.3,0.1-0.5,0.3-0.6
		c2.9-0.9,5.8-1.8,8.7-2.5c0.3-0.1,0.5,0.1,0.6,0.4c0,0,0,0,0,0c0.1,0.3-0.1,0.5-0.4,0.6c-2.9,0.8-5.8,1.6-8.6,2.5L198.7,70.4z
		 M290.7,67h-0.1c-2.9-0.7-5.9-1.3-8.8-1.9c-0.3-0.1-0.4-0.3-0.4-0.6c0.1-0.3,0.3-0.4,0.6-0.4c3,0.6,5.9,1.2,8.9,1.9
		c0.3,0.1,0.4,0.3,0.4,0.6C291.1,66.8,290.9,67,290.7,67L290.7,67z M212.2,66.6c-0.3,0-0.5-0.2-0.6-0.4c0-0.3,0.2-0.5,0.4-0.6
		c2.9-0.6,5.9-1.3,8.9-1.8c0.3,0,0.5,0.1,0.6,0.4c0,0.3-0.1,0.5-0.4,0.6c-2.9,0.5-5.9,1.1-8.8,1.8L212.2,66.6z M277,64.2L277,64.2
		c-3-0.5-6-0.8-9-1.2c-0.3,0-0.5-0.3-0.4-0.5c0,0,0,0,0,0c0-0.3,0.3-0.5,0.5-0.5c3,0.3,6,0.7,9,1.2c0.3,0,0.5,0.3,0.5,0.5
		C277.5,64.1,277.3,64.3,277,64.2L277,64.2z M226,64c-0.3,0-0.5-0.2-0.5-0.5s0.2-0.5,0.5-0.5c3-0.4,6-0.8,9-1.1
		c0.3,0,0.5,0.2,0.5,0.4c0,0,0,0,0,0c0,0.3-0.2,0.5-0.5,0.5c0,0,0,0,0,0C232,63.2,229,63.6,226,64L226,64z M263,62.7L263,62.7
		c-3-0.2-6-0.3-9-0.4c-0.3,0-0.5-0.2-0.5-0.5s0.2-0.5,0.5-0.5c3,0.1,6,0.2,9,0.4c0.3,0,0.5,0.3,0.5,0.5c0,0,0,0,0,0
		C263.5,62.4,263.3,62.6,263,62.7L263,62.7z M240,62.6c-0.3,0-0.5-0.2-0.5-0.5s0.2-0.5,0.5-0.5c3-0.2,6-0.3,9-0.3
		c0.3,0,0.5,0.2,0.5,0.5c0,0.3-0.2,0.5-0.5,0.5C246,62.2,243,62.4,240,62.6L240,62.6z"></path><path class="st1" d="M338.3,86.6c-0.1,0-0.2,0-0.3-0.1c-1.3-0.8-2.6-1.5-3.9-2.3c-0.2-0.1-0.3-0.4-0.2-0.7c0,0,0,0,0,0
		c0.1-0.2,0.4-0.3,0.7-0.2c1.3,0.8,2.6,1.5,3.9,2.3c0.2,0.1,0.3,0.5,0.2,0.7C338.7,86.5,338.5,86.6,338.3,86.6z"></path></g></svg>