<svg transform="scale(1)" version="1.1" id="_01107_Business_Card_1" xmlns="http://www.w3.org/2000/svg" xmlns:xlink="http://www.w3.org/1999/xlink" x="0px" y="0px" viewBox="0 0 500 500" xml:space="preserve" class="show_show__wrapper__graphic__5Waiy "><title>React</title><style type="text/css">
	.st0{fill:#FFFFFF;}
	.st1{fill:#00410c;}
	.st2{fill:#43A047;}
	.st3{fill:#43A047;}
</style><g id="hand"><polygon class="st0" points="220.8,294.8 314.1,252.5 261.7,222.6 174.4,258.8 	"></polygon><path class="st1" d="M220.8,295.3c-0.1,0-0.2,0-0.3-0.1l-46.4-36c-0.1-0.1-0.2-0.3-0.2-0.5c0-0.2,0.1-0.3,0.3-0.4l87.3-36.2
		c0.1-0.1,0.3-0.1,0.4,0l52.4,29.9c0.2,0.1,0.3,0.3,0.2,0.5s-0.1,0.4-0.3,0.4L221,295.2C220.9,295.2,220.8,295.3,220.8,295.3
		L220.8,295.3z M175.4,258.9l45.5,35.3l92.2-41.7l-51.3-29.3L175.4,258.9L175.4,258.9z"></path><path class="st2" d="M244.2,271.5l-20.9,9.2l-8.3-6.1c-4.6-3.4-3.6-8.1,2.2-10.6l0,0c5.8-2.5,14.1-1.9,18.7,1.5L244.2,271.5
		L244.2,271.5z"></path><path class="st2" d="M223.4,281.1c-0.1,0-0.2,0-0.3-0.1l-8.3-6.1c-2.2-1.6-3.3-3.6-3.1-5.7c0.3-2.3,2.2-4.5,5.3-5.8
		c5.9-2.6,14.5-1.9,19.2,1.5l8.3,6.1c0.1,0.1,0.2,0.3,0.2,0.5s-0.1,0.3-0.3,0.4l-20.8,9.2C223.5,281.1,223.4,281.1,223.4,281.1z
		 M225.2,262.9c-2.7,0-5.5,0.5-7.8,1.5c-2.8,1.2-4.5,3-4.7,5c-0.2,1.7,0.8,3.4,2.6,4.8l8,5.9l19.8-8.7l-7.6-5.5
		C233.1,263.9,229.2,262.9,225.2,262.9L225.2,262.9z"></path><path class="st1" d="M223.4,281.1c-0.1,0-0.2,0-0.3-0.1l-8.3-6.1c-2.2-1.6-3.3-3.6-3.1-5.7c0.3-2.3,2.2-4.5,5.3-5.8
		c5.9-2.6,14.5-1.9,19.2,1.5l8.3,6.1c0.1,0.1,0.2,0.3,0.2,0.5s-0.1,0.3-0.3,0.4l-20.8,9.2C223.5,281.1,223.4,281.1,223.4,281.1z
		 M225.2,262.9c-2.7,0-5.5,0.5-7.8,1.5c-2.8,1.2-4.5,3-4.7,5c-0.2,1.7,0.8,3.4,2.6,4.8l8,5.9l19.8-8.7l-7.6-5.5
		C233.1,263.9,229.2,262.9,225.2,262.9L225.2,262.9z"></path><path class="st2" d="M216.8,254.7c3.3,2.4,2.6,5.9-1.6,7.7c-4.2,1.8-10.2,1.4-13.5-1.1s-2.6-5.9,1.6-7.7
		C207.4,251.8,213.5,252.3,216.8,254.7z"></path><path class="st1" d="M209.5,264c-3,0-6.1-0.8-8.1-2.3c-1.6-1.2-2.4-2.7-2.3-4.2c0.2-1.7,1.6-3.3,3.9-4.3c4.3-1.9,10.6-1.4,14,1.1
		l0,0c1.6,1.2,2.4,2.7,2.3,4.2c-0.2,1.7-1.6,3.3-3.9,4.3C213.7,263.6,211.6,264,209.5,264z M209,253c-2,0-3.9,0.3-5.6,1.1
		c-2,0.9-3.2,2.2-3.3,3.5c-0.1,1.2,0.5,2.3,1.9,3.3c3.2,2.3,9,2.8,13,1c2-0.9,3.2-2.2,3.3-3.5c0.1-1.2-0.5-2.3-1.9-3.3l0,0
		C214.6,253.7,211.8,253,209,253z"></path><path class="st0" d="M188.6,242.7c12.2-2.7,42.6,0.3,46.4,3s-4.6,8.7-17.6,8.1c-13-0.5-16.8,0-16.8,0s-14.6,11.1-19.8,14.9
		s-7.2,16.6-7.2,16.6s8.3,2,12.9,0s11.1-7,14.4-5.9l11.5,8.9c0,0-12.9,15.4-26.8,17.2s-18.9,1.7-27.9,6.5s-24.4,15.5-24.4,15.5
		l-43.8-21.6c0,0,16.3-12.2,24.1-21.3s9.8-24.2,14.8-28.5s10.5-3.5,10.5-3.5s3.3-4.8,9.4-7c6.1-2.2,10.9-0.4,10.9-0.4
		s5.7-5,14.6-5.9S188.6,242.7,188.6,242.7L188.6,242.7z"></path><path class="st1" d="M133.2,327.9c-0.1,0-0.1,0-0.2,0l-43.8-21.6c-0.2-0.1-0.3-0.2-0.3-0.4c0-0.2,0.1-0.3,0.2-0.5
		c0.2-0.1,16.3-12.3,24-21.2c4.1-4.7,6.5-11.2,8.7-16.9c2-5.1,3.7-9.6,6.1-11.6c4.5-3.8,9.4-3.8,10.6-3.7c0.8-1,4-5,9.5-7
		c5.4-2,9.8-0.8,11-0.5c1.2-0.9,6.6-5,14.7-5.9c8.2-0.9,14,2.7,15.1,3.4c12.4-2.6,42.7,0.4,46.6,3.1c1,0.7,1.4,1.7,1,2.8
		c-1.2,3.4-9,6.7-18.9,6.3c-11.6-0.5-15.9-0.1-16.6,0c-1.3,1-14.8,11.2-19.7,14.8c-4.4,3.2-6.5,13.5-7,15.8
		c1.8,0.4,8.4,1.6,12.2-0.1c1.4-0.6,2.9-1.5,4.6-2.4c3.8-2.1,7.7-4.4,10.2-3.5c0.1,0,0.1,0,0.1,0.1l11.5,8.9
		c0.1,0.1,0.2,0.2,0.2,0.3s0,0.3-0.1,0.4c-0.5,0.6-13.2,15.5-27.1,17.4c-2.4,0.3-4.6,0.6-6.6,0.8c-9.2,1.1-13.8,1.7-21.2,5.6
		c-8.9,4.7-24.2,15.4-24.4,15.5C133.4,327.9,133.3,328,133.2,327.9L133.2,327.9z M90.3,305.7l42.8,21.1c2-1.4,15.9-11,24.2-15.4
		c7.6-4,12.2-4.6,21.6-5.7c2-0.2,4.1-0.5,6.6-0.8c12.3-1.6,24-14.2,26.2-16.6l-11-8.5c-2.1-0.6-5.9,1.5-9.3,3.5
		c-1.7,0.9-3.2,1.8-4.7,2.5c-4.7,2.1-12.9,0.1-13.3,0c-0.2-0.1-0.4-0.3-0.4-0.6c0.1-0.5,2.2-13,7.4-16.9
		c5.1-3.8,19.6-14.8,19.8-14.9c0.1-0.1,0.1-0.1,0.2-0.1c0.2,0,4-0.6,16.9,0c9.8,0.4,17-3,17.9-5.6c0.2-0.6,0-1.2-0.6-1.6
		c-1.7-1.2-10-2.7-19.8-3.4c-11-0.9-20.8-0.7-26.2,0.5c-0.1,0-0.3,0-0.4-0.1c-0.1,0-6-4.3-14.6-3.4c-8.6,0.9-14.3,5.8-14.3,5.8
		c-0.1,0.1-0.3,0.2-0.5,0.1c-0.1,0-4.7-1.8-10.6,0.4c-5.9,2.1-9.2,6.8-9.2,6.8c-0.1,0.2-0.3,0.2-0.5,0.2c-0.1,0-5.4-0.6-10.1,3.4
		c-2.2,1.9-3.9,6.2-5.8,11.2c-2.2,5.8-4.7,12.3-8.9,17.2C106.9,292.8,93.4,303.3,90.3,305.7L90.3,305.7z"></path><path class="st1" d="M168.5,253c-0.2,0-0.4-0.1-0.4-0.3c-0.1-0.2,0-0.6,0.2-0.7c0.6-0.3,14.2-7.7,20.2-9.9c0.3-0.1,0.6,0,0.6,0.3
		c0.1,0.3,0,0.6-0.3,0.6c-5.9,2.1-19.9,9.8-20,9.8C168.6,253,168.6,253,168.5,253L168.5,253z"></path><path class="st1" d="M150.6,255.1c-0.1,0-0.2,0-0.2-0.1c-0.2-0.1-0.3-0.4-0.2-0.7c0.1-0.2,2.9-4.9,8.6-9.6c0.2-0.2,0.5-0.1,0.7,0.1
		c0.2,0.2,0.1,0.5-0.1,0.7c-5.6,4.5-8.4,9.2-8.4,9.3C150.9,255,150.7,255.1,150.6,255.1L150.6,255.1z"></path><path class="st1" d="M130.9,263c-0.1,0-0.2,0-0.2-0.1c-0.2-0.1-0.3-0.5-0.2-0.7c0.1-0.1,1.9-3.3,7.8-10.1c0.2-0.2,0.5-0.2,0.7-0.1
		s0.2,0.5,0.1,0.7c-5.8,6.7-7.7,9.9-7.7,9.9C131.3,262.9,131.1,263,130.9,263L130.9,263z"></path><path class="st1" d="M241.1,249.1c-0.2,0-0.4-0.1-0.4-0.3c-0.1-0.2,0-0.6,0.2-0.7l18.9-9.5c0.2-0.1,0.5,0,0.7,0.2
		c0.1,0.2,0,0.6-0.2,0.7l-18.9,9.5C241.2,249,241.2,249.1,241.1,249.1L241.1,249.1z"></path><path class="st1" d="M246.8,255.1c-0.2,0-0.4-0.1-0.4-0.3c-0.1-0.2,0-0.6,0.2-0.7l25-11.9c0.2-0.1,0.5,0,0.7,0.2
		c0.1,0.2,0,0.6-0.2,0.7L247,255C246.9,255.1,246.8,255.1,246.8,255.1L246.8,255.1z"></path><path class="st1" d="M252.4,261.1c-0.2,0-0.4-0.1-0.4-0.3c-0.1-0.2,0-0.5,0.2-0.7l28.3-14.2c0.2-0.1,0.5,0,0.7,0.2
		c0.1,0.2,0,0.6-0.2,0.7L252.7,261C252.6,261.1,252.5,261.1,252.4,261.1L252.4,261.1z"></path><path class="st2" d="M37.4,347.9c-2-6.2,0.5-13,5.7-17c9.9-7.3,32.4-23.9,38.5-28c7.9-5.3,34.2-2.9,46.8,11.2s8.5,23.5,3.8,31.2
		c-3.5,5.7-24.2,25.8-34.4,35.5c-3.9,3.7-9.4,5.2-14.6,3.9c-8.7-2.1-22.4-7.2-34.4-19.4C42.2,358.5,38.8,352.6,37.4,347.9
		L37.4,347.9z"></path></g><g id="hand-2"><path class="st2" d="M378.3,288.4c-16.1-13.8-20.2-27-13.8-35.9c6.4-8.9,56.4-39.2,56.4-39.2s44.1,12.9,52.7,47.4
		c0,0-31,33.2-51.5,41.3C401.5,310.1,378.3,288.4,378.3,288.4z"></path><path class="st0" d="M403.3,277.8c-8.3-12.3-24.1-15.1-42.8-10.9s-18.2,1.5-31-1.9s-14.2-6.3-19.6-2.7s-0.9,16.7,13.9,20.9
		c0,0-9.9,5.9-22.4-1s-12.8-14.9-18.9-13c-6.1,1.9-3.8,11.3-3.8,11.3s-5.3,5.7,2,19.4c7.2,13.7,24.5,16.1,24.5,16.1s9.7,5.9,28.8,4
		c0,0,11.6,2.6,28.8-1.6C380.1,314.2,413.4,298.6,403.3,277.8L403.3,277.8z"></path><path class="st1" d="M343.6,321.4c-5.5,0-9-0.6-9.6-0.8c-18.3,1.8-27.9-3.4-29-4c-1.5-0.2-17.8-3.1-24.8-16.3
		c-6.6-12.6-3-18.6-2.1-19.8c-0.3-1.5-1.8-9.9,4.2-11.7c3.5-1.1,5.3,0.9,8,3.8c2.3,2.5,5.5,6,11.3,9.2c9.7,5.3,17.9,2.8,20.8,1.5
		c-9.4-3.1-14.4-9.6-15.2-14.8c-0.5-2.9,0.4-5.3,2.3-6.6c4-2.6,6-1.9,11-0.2c2.3,0.8,5.1,1.8,9,2.8c2.8,0.7,5,1.4,6.9,2.1
		c6.7,2.2,9.4,3.1,23.8-0.2c20-4.6,35.4-0.6,43.3,11.1c0,0,0,0,0,0.1c2.5,5.1,2.6,10.3,0.2,15.4c-6.2,13.2-27.9,22.8-41,26
		C355.2,320.8,348.5,321.3,343.6,321.4L343.6,321.4z M334,319.6c0,0,0.1,0,0.1,0c0.1,0,11.7,2.5,28.6-1.6
		c12.9-3.2,34.3-12.6,40.3-25.4c2.2-4.8,2.1-9.6-0.2-14.5c-7.6-11.3-22.6-15.1-42.2-10.6c-14.7,3.4-17.7,2.4-24.4,0.2
		c-1.9-0.6-4-1.3-6.8-2c-4-1-6.8-2-9.1-2.8c-4.9-1.7-6.6-2.3-10.1,0.1c-1.6,1.1-2.3,3.1-1.9,5.6c0.8,5,6,11.7,15.7,14.4
		c0.2,0,0.3,0.2,0.4,0.4s-0.1,0.4-0.2,0.5c-0.1,0.1-10.3,5.9-22.9-1c-6-3.3-9.2-6.8-11.6-9.4c-2.6-2.9-4-4.4-6.9-3.5
		c-5.6,1.7-3.5,10.6-3.4,10.7c0,0.2,0,0.3-0.1,0.5c0,0-4.9,5.6,2,18.8c7,13.3,23.9,15.8,24.1,15.8c0.1,0,0.1,0,0.2,0.1
		C305.6,315.7,315.3,321.4,334,319.6C334,319.6,334,319.6,334,319.6L334,319.6z"></path><path class="st1" d="M334,320.6c0,0-0.1,0-0.1,0c-11.6-3-26.9-10.9-28.3-15.9c-0.2-0.9-0.1-1.7,0.5-2.3c4-4.2,9.5-2.5,20.4,1.9
		c10.5,4.3,18.1,5.7,27.9,0.9c0.2-0.1,0.5,0,0.7,0.2c0.1,0.2,0,0.5-0.2,0.7c-10.2,4.9-18,3.5-28.8-0.9c-11.4-4.6-16-5.6-19.3-2.1
		c-0.4,0.4-0.4,0.8-0.3,1.3c1.2,4.1,15.6,12,27.6,15.1c0.3,0.1,0.4,0.3,0.4,0.6C334.5,320.4,334.3,320.6,334,320.6L334,320.6z"></path><path class="st1" d="M323.9,283.8c-0.2,0-0.4-0.1-0.4-0.3c-0.1-0.2,0-0.5,0.2-0.7c8.5-4.6,21.5-9.9,21.7-10c0.3-0.1,0.5,0,0.6,0.3
		s0,0.5-0.3,0.6c-0.1,0-13.1,5.4-21.6,9.9C324.1,283.7,324,283.8,323.9,283.8L323.9,283.8z"></path><path class="st1" d="M305.2,316.6c-0.1,0-0.2,0-0.3-0.1c-9.6-6.7-17.7-18.1-18.1-23c-0.2-2.4,1.3-4.6,3.7-5.5
		c2.2-0.9,5.5-0.6,8.1,2.6c4.3,5.4,11.6,9.8,11.6,9.9c0.2,0.1,0.3,0.5,0.2,0.7c-0.1,0.2-0.5,0.3-0.7,0.2c-0.3-0.2-7.5-4.6-11.9-10.1
		c-2.3-2.8-5.1-3-6.9-2.3c-2,0.8-3.2,2.6-3,4.5c0.4,4.7,8.6,15.9,17.7,22.3c0.2,0.2,0.3,0.5,0.1,0.7
		C305.5,316.5,305.4,316.6,305.2,316.6L305.2,316.6z"></path><path class="st1" d="M290.5,288.9c-0.2,0-0.3-0.1-0.4-0.2c-1.8-2.5-7-9.1-9.7-8.8c-0.3,0-0.8,0.2-1.2,1c-0.1,0.2-0.4,0.4-0.7,0.2
		c-0.2-0.1-0.4-0.4-0.2-0.7c0.6-1.2,1.4-1.5,2-1.5c3.7-0.3,9.9,8.3,10.6,9.3c0.2,0.2,0.1,0.5-0.1,0.7
		C290.7,288.9,290.6,288.9,290.5,288.9L290.5,288.9z"></path><path class="st1" d="M314.1,301.2c-0.1,0-0.2,0-0.3-0.1c-0.2-0.2-6.1-5.5-6.5-12.6c0-0.3,0.2-0.5,0.5-0.5c0.3,0,0.5,0.2,0.5,0.5
		c0.4,6.7,6.1,11.9,6.1,12c0.2,0.2,0.2,0.5,0,0.7C314.4,301.2,314.2,301.2,314.1,301.2L314.1,301.2z"></path><path class="st1" d="M351.8,298.9C351.8,298.9,351.7,298.9,351.8,298.9c-11.7-2-16.6-7.2-18.8-11.2c-2.3-4.4-1.8-8.2-1.8-8.4
		c0-0.3,0.3-0.5,0.6-0.4c0.3,0,0.5,0.3,0.4,0.6c-0.1,0.6-1.7,14.7,19.6,18.4c0.3,0,0.5,0.3,0.4,0.6
		C352.2,298.7,352,298.8,351.8,298.9L351.8,298.9z"></path></g><g id="link"><path class="st0" d="M277.9,365.1l-15.1,6.5c-5.5,2.4-11.7,2.4-17.2,0l-5.2-2.3c-10.5-4.5-15.7-16.5-11.8-27.3l1.9-5.4
		c2-5.6,6.3-10.1,11.8-12.5l15.2-6.5c11-4.7,23.8,0.3,28.5,11.3l3.3,7.6C293.9,347.6,288.8,360.4,277.9,365.1z M246.3,333.8
		c-2.8,1.2-5.1,3.6-6.1,6.5l-1.9,5.4c-2,5.6,0.7,11.9,6.1,14.2l5.2,2.3c2.8,1.2,6.1,1.2,8.9,0l15.1-6.5c5.7-2.5,8.4-9.1,5.9-14.9
		l-3.3-7.6c-2.5-5.7-9.1-8.4-14.9-5.9L246.3,333.8L246.3,333.8z"></path><path class="st1" d="M254.1,373.9c-3,0-6-0.6-8.8-1.8l-5.2-2.3c-10.8-4.6-16.1-16.9-12.1-27.9l1.9-5.4c2.1-5.7,6.5-10.4,12-12.8
		l15.1-6.5c5.4-2.3,11.5-2.4,17-0.2c5.5,2.2,9.8,6.4,12.2,11.8l3.3,7.6c2.4,5.4,2.4,11.5,0.2,17c-2.2,5.5-6.4,9.8-11.8,12.2l0,0
		l-15.1,6.5C260.1,373.3,257.1,373.9,254.1,373.9L254.1,373.9z M265.9,316.4c-2.9,0-5.7,0.6-8.4,1.7l-15.1,6.5
		c-5.3,2.3-9.5,6.8-11.5,12.2l-1.9,5.4c-3.8,10.5,1.2,22.2,11.5,26.7l5.2,2.3c5.3,2.3,11.4,2.3,16.8,0l15.1-6.5
		c5.2-2.2,9.2-6.4,11.3-11.6c2.1-5.3,2-11-0.2-16.2l-3.3-7.6c-2.2-5.2-6.4-9.2-11.6-11.3C271.2,316.9,268.6,316.4,265.9,316.4
		L265.9,316.4z M277.9,365.1L277.9,365.1L277.9,365.1z M254.1,363.5c-1.6,0-3.2-0.3-4.7-1l-5.2-2.3c-5.7-2.5-8.6-9-6.4-14.9l1.9-5.4
		c1.1-3,3.4-5.5,6.4-6.8l15.1-6.5c6-2.6,12.9,0.2,15.5,6.1l3.3,7.6c2.6,6-0.2,12.9-6.1,15.5l-15.1,6.5
		C257.3,363.2,255.7,363.5,254.1,363.5L254.1,363.5z M265.9,326.8c-1.4,0-2.9,0.3-4.3,0.9l-15.1,6.5l0,0c-2.7,1.2-4.9,3.4-5.9,6.2
		l-1.9,5.4c-1.9,5.4,0.6,11.3,5.9,13.6l5.2,2.3c2.7,1.2,5.8,1.2,8.5,0l15.1-6.5c2.6-1.1,4.7-3.2,5.8-5.9c1.1-2.7,1-5.6-0.1-8.3
		l-3.3-7.6C274.1,329.2,270.1,326.8,265.9,326.8L265.9,326.8z M246.3,333.8L246.3,333.8L246.3,333.8z"></path><path class="st0" d="M225.4,387.8l-15.1,6.5c-11,4.7-23.8-0.3-28.5-11.3l-3.3-7.6c-4.7-11,0.3-23.8,11.3-28.5l15.1-6.5
		c5.4-2.4,11.7-2.4,17.2,0l5.2,2.3c10.5,4.5,15.7,16.5,11.8,27.3l-1.9,5.4C235.2,380.9,230.9,385.4,225.4,387.8L225.4,387.8z
		 M193.9,356.4c-5.7,2.5-8.4,9.1-5.9,14.9l3.3,7.6c2.5,5.7,9.1,8.4,14.9,5.9l15.1-6.5c2.8-1.2,5.1-3.6,6.1-6.5l1.9-5.4
		c2-5.6-0.7-11.9-6.1-14.2l-5.2-2.3c-2.8-1.2-6.1-1.2-8.9,0L193.9,356.4L193.9,356.4z"></path><path class="st1" d="M201.7,396.6c-8.6,0-16.8-5-20.4-13.4l-3.3-7.6c-2.4-5.4-2.4-11.5-0.2-17s6.4-9.8,11.8-12.2l15.1-6.5
		c5.6-2.4,12-2.4,17.6,0l5.2,2.3c10.8,4.6,16.1,16.9,12.1,27.9l-1.9,5.4c-2.1,5.7-6.5,10.4-12,12.8l-15.1,6.5
		C207.6,396,204.6,396.6,201.7,396.6L201.7,396.6z M213.5,339.1c-2.9,0-5.7,0.6-8.4,1.7l-15.1,6.5c-5.2,2.2-9.2,6.4-11.3,11.6
		c-2.1,5.3-2,11,0.2,16.2l3.3,7.6c4.6,10.7,17.1,15.7,27.8,11l15.1-6.5c5.3-2.3,9.5-6.8,11.5-12.2l1.9-5.4
		c3.8-10.5-1.2-22.2-11.5-26.7l-5.2-2.3C219.2,339.6,216.4,339.1,213.5,339.1L213.5,339.1z M225.4,387.8L225.4,387.8L225.4,387.8z
		 M201.7,386.2c-1.5,0-2.9-0.3-4.4-0.8c-2.9-1.2-5.2-3.4-6.5-6.3l-3.3-7.6c-2.6-6,0.2-12.9,6.1-15.5l15.1-6.5c3-1.3,6.4-1.3,9.3,0
		l5.2,2.3c5.7,2.5,8.6,9,6.4,14.9l-1.9,5.4c-1.1,3-3.4,5.5-6.4,6.8l-15.1,6.5C204.8,385.9,203.2,386.2,201.7,386.2L201.7,386.2z
		 M213.5,349.5c-1.5,0-2.9,0.3-4.3,0.9l-15.1,6.5l0,0c-5.5,2.4-8,8.7-5.6,14.2l3.3,7.6c2.4,5.5,8.7,8,14.2,5.6l15.1-6.5
		c2.7-1.2,4.9-3.4,5.9-6.2l1.9-5.4c1.9-5.4-0.6-11.3-5.9-13.6l-5.2-2.3C216.4,349.8,215,349.5,213.5,349.5L213.5,349.5z
		 M193.9,356.4L193.9,356.4L193.9,356.4z"></path><path class="st2" d="M224.9,337l1.3-0.6c2.7-1.2,5.8,0.1,7,2.8l12.4,28.7c1.2,2.7-0.1,5.8-2.8,7l-1.3,0.6c-2.7,1.2-5.8-0.1-7-2.8
		L222.1,344C220.9,341.3,222.2,338.2,224.9,337z"></path><path class="st1" d="M239.4,376.4c-0.7,0-1.4-0.1-2.1-0.4c-1.4-0.6-2.6-1.7-3.2-3.1l-12.4-28.7c-1.3-2.9,0.1-6.4,3-7.6l1.3-0.6
		c2.9-1.3,6.4,0.1,7.6,3l12.4,28.7c1.3,2.9-0.1,6.4-3,7.6l0,0l-1.3,0.6C240.9,376.3,240.1,376.4,239.4,376.4L239.4,376.4z
		 M228.3,336.5c-0.6,0-1.3,0.1-1.9,0.4l-1.3,0.6c-2.4,1-3.6,3.9-2.5,6.3l12.4,28.7c0.5,1.2,1.4,2.1,2.6,2.6s2.5,0.5,3.7-0.1l1.3-0.6
		c2.4-1,3.6-3.9,2.5-6.3l-12.4-28.7C231.9,337.6,230.2,336.5,228.3,336.5L228.3,336.5z M242.8,374.9L242.8,374.9L242.8,374.9z"></path><path class="st1" d="M222.1,328c-2.1-4.8-4.1-9.5-6.2-14.3c-0.2-0.6-1.1-0.1-0.9,0.5c2.1,4.8,4.1,9.5,6.2,14.3
		C221.5,329.1,222.4,328.6,222.1,328L222.1,328z"></path><path class="st1" d="M229.3,326.9c1.1-3.2,2.1-6.4,3.2-9.6c0.2-0.6-0.8-0.9-1-0.3c-1.1,3.2-2.1,6.4-3.2,9.6
		C228.1,327.2,229.1,327.5,229.3,326.9L229.3,326.9z"></path><path class="st1" d="M217.4,330.7c-1.6-0.8-3.2-1.5-4.9-2.2l-2.4-1.1c-0.4-0.2-0.8-0.4-1.2-0.5c-0.3-0.2-0.7-0.3-0.8-0.7
		c-0.3-0.6-1.1-0.1-0.9,0.5c0.3,0.7,1.2,1,1.9,1.3l2.5,1.2c1.7,0.8,3.5,1.6,5.2,2.4C217.5,331.8,218,331,217.4,330.7L217.4,330.7
		L217.4,330.7z"></path><path class="st1" d="M245.3,384.1c2.1,4.8,4.1,9.5,6.2,14.3c0.2,0.6,1.1,0.1,0.9-0.5c-2.1-4.8-4.1-9.5-6.2-14.3
		C245.9,383,245,383.5,245.3,384.1L245.3,384.1z"></path><path class="st1" d="M251.4,380.1c3.1,1.4,6.1,2.9,9.2,4.3c0.6,0.3,1.1-0.6,0.5-0.9c-3.1-1.4-6.1-2.9-9.2-4.3
		C251.3,379,250.8,379.9,251.4,380.1L251.4,380.1z"></path><path class="st1" d="M240,385l-1.8,5.3l-0.9,2.7c-0.2,0.7-0.6,1.6-0.3,2.3c0.2,0.6,1.2,0.3,1-0.3c-0.2-0.4,0-0.8,0.1-1.2
		c0.1-0.4,0.2-0.8,0.4-1.1l0.8-2.5l1.6-5C241.2,384.7,240.2,384.4,240,385L240,385L240,385z"></path></g><g id="coin"><circle class="st3" cx="286.4" cy="159.9" r="26"></circle><path class="st1" d="M286.4,186.4c-14.6,0-26.5-11.9-26.5-26.5s11.9-26.5,26.5-26.5s26.5,11.9,26.5,26.5S301,186.4,286.4,186.4z
		 M286.4,134.4c-14,0-25.5,11.4-25.5,25.5s11.4,25.5,25.5,25.5s25.5-11.4,25.5-25.5S300.4,134.4,286.4,134.4z"></path><circle class="st0" cx="282.9" cy="159.9" r="26"></circle><path class="st1" d="M282.9,186.4c-14.6,0-26.5-11.9-26.5-26.5s11.9-26.5,26.5-26.5s26.5,11.9,26.5,26.5S297.5,186.4,282.9,186.4z
		 M282.9,134.4c-14,0-25.5,11.4-25.5,25.5s11.4,25.5,25.5,25.5s25.5-11.4,25.5-25.5S297,134.4,282.9,134.4z"></path><circle class="st0" cx="282.9" cy="159.9" r="21.5"></circle><path class="st1" d="M282.9,181.8c-12.1,0-22-9.9-22-21.9s9.9-21.9,22-21.9s22,9.9,22,21.9S295,181.8,282.9,181.8z M282.9,138.9
		c-11.5,0-21,9.4-21,20.9s9.4,20.9,21,20.9s21-9.4,21-20.9S294.4,138.9,282.9,138.9z"></path><path class="st3" d="M282.2,174v-2.8c-0.7-0.1-1.4-0.3-2-0.6c-0.6-0.3-1.1-0.7-1.5-1.2c-0.9-1-1.4-2.2-1.4-3.7v-1.3h3.3v1.2
		c0,0.5,0.1,1,0.4,1.4s0.6,0.7,1.2,0.9v-7.5l-1.1-0.5c-1.4-0.6-2.4-1.4-2.9-2.3c-0.5-1-0.7-2.2-0.7-3.6c0-1.7,0.4-3.1,1.2-4.3
		c0.8-1.2,2-1.9,3.6-2.1v-2.4h1.7v2.4c0.7,0.1,1.4,0.3,2,0.6c0.6,0.3,1.1,0.7,1.5,1.2c0.4,0.5,0.8,1.1,1,1.6
		c0.2,0.6,0.3,1.2,0.3,1.8v1.6h-3.3v-0.8c0-0.7-0.1-1.3-0.3-1.8s-0.6-0.8-1.2-1v6.6l1.4,0.6c0.7,0.3,1.3,0.6,1.8,1s0.8,0.8,1.1,1.3
		c0.2,0.5,0.4,1.1,0.5,1.8s0.1,1.4,0.1,2.3c0,0.9-0.1,1.8-0.2,2.6s-0.4,1.5-0.8,2.1c-0.4,0.6-0.9,1.1-1.5,1.5s-1.4,0.6-2.3,0.7v2.8
		L282.2,174L282.2,174z M282.2,150.9c-0.6,0.2-0.9,0.6-1.1,1.1c-0.2,0.6-0.3,1.2-0.3,1.9c0,0.8,0.1,1.4,0.2,1.8s0.5,0.8,1.2,1.1
		V150.9L282.2,150.9z M283.9,167.9c0.7-0.2,1.1-0.6,1.3-1.1s0.2-1.4,0.2-2.3c0-0.5,0-1,0-1.4s-0.1-0.7-0.2-0.9
		c-0.2-0.5-0.7-0.8-1.3-1.1L283.9,167.9L283.9,167.9z"></path></g><g id="graphic"><path class="st1" d="M405.2,147.4h-68.3c-0.3,0-0.5-0.2-0.5-0.5V98.1c0-0.3,0.2-0.5,0.5-0.5s0.5,0.2,0.5,0.5v48.4h67.8
		c0.3,0,0.5,0.2,0.5,0.5S405.4,147.4,405.2,147.4z"></path><rect class="st2" x="343.4" y="117" width="11.1" height="25.5"></rect><path class="st1" d="M354.5,142.9h-11.1c-0.3,0-0.5-0.2-0.5-0.5V117c0-0.3,0.2-0.5,0.5-0.5h11.1c0.3,0,0.5,0.2,0.5,0.5v25.5
		C355,142.7,354.8,142.9,354.5,142.9z M343.9,141.9H354v-24.5h-10.1V141.9z"></path><rect class="st2" x="362.5" y="109.7" width="11.1" height="32.7"></rect><path class="st1" d="M373.6,142.9h-11.1c-0.3,0-0.5-0.2-0.5-0.5v-32.7c0-0.3,0.2-0.5,0.5-0.5h11.1c0.3,0,0.5,0.2,0.5,0.5v32.7
		C374.1,142.7,373.9,142.9,373.6,142.9z M363,141.9h10.1v-31.7H363V141.9z"></path><rect class="st2" x="381.6" y="103.4" width="11.1" height="39.1"></rect><path class="st1" d="M392.7,142.9h-11.1c-0.3,0-0.5-0.2-0.5-0.5v-39.1c0-0.3,0.2-0.5,0.5-0.5h11.1c0.3,0,0.5,0.2,0.5,0.5v39.1
		C393.2,142.7,393,142.9,392.7,142.9z M382.1,141.9h10.1v-38.1h-10.1V141.9z"></path><path class="st1" d="M343.4,108.4c-0.2,0-0.5-0.2-0.5-0.4c0-0.3,0.2-0.5,0.4-0.6c15.3-1.7,43.2-18.5,43.5-18.6
		c0.2-0.1,0.5-0.1,0.7,0.2c0.1,0.2,0.1,0.5-0.2,0.7C386.2,90.3,359,106.7,343.4,108.4C343.4,108.4,343.4,108.4,343.4,108.4
		L343.4,108.4z"></path><polygon class="st2" points="377.7,89.2 391.6,86.7 383.2,98.1 	"></polygon><path class="st1" d="M383.2,98.6L383.2,98.6c-0.2,0-0.3-0.1-0.4-0.2l-5.5-8.9c-0.1-0.1-0.1-0.3,0-0.5s0.2-0.3,0.4-0.3l13.9-2.5
		c0.2,0,0.4,0.1,0.5,0.2c0.1,0.2,0.1,0.4,0,0.6l-8.4,11.4C383.5,98.5,383.3,98.6,383.2,98.6L383.2,98.6z M378.5,89.6l4.7,7.6
		l7.2-9.8L378.5,89.6z"></path></g><g id="chart"><path class="st2" d="M142.7,170.5c-25.5,0-47.4,4.2-57.7,10.4h-6.2v9.5h0.3c1.9,5.9,13.6,11,30.4,13.9v-7.8h0l33.2-15.6l36.2-7.2
		C168.6,171.7,156.2,170.5,142.7,170.5L142.7,170.5z"></path><path class="st1" d="M109.4,204.8C109.4,204.8,109.4,204.8,109.4,204.8c-17.4-3-28.5-8.1-30.7-13.9c-0.2,0-0.4-0.2-0.4-0.5v-9.5
		c0-0.3,0.2-0.5,0.5-0.5h6c10.7-6.3,33.3-10.4,57.8-10.4c13,0,25.6,1.1,36.4,3.2c0.2,0.1,0.4,0.2,0.4,0.5s-0.2,0.4-0.4,0.5
		l-36.2,7.2l-32.9,15.4v7.5c0,0.1-0.1,0.3-0.2,0.4C109.7,204.7,109.6,204.8,109.4,204.8L109.4,204.8z M79.3,189.9
		c0.1,0.1,0.2,0.2,0.2,0.3c1.7,5.5,12.7,10.5,29.4,13.4v-7.2c0-0.2,0.2-0.4,0.3-0.5l33.2-15.5c0,0,0.1,0,0.1,0l33.7-6.7
		c-10.1-1.8-21.6-2.7-33.6-2.7c-24.4,0-47,4.1-57.4,10.3c-0.1,0.1-0.2,0.1-0.3,0.1h-5.7L79.3,189.9L79.3,189.9z"></path><path class="st0" d="M195.1,170.5l-16.2,3.2l-36.2,7.2l-33.2,15.6h0c-18.4-3.2-30.6-9-30.6-15.6c0-10.1,28.6-18.2,63.9-18.2
		C164.4,162.7,183.6,165.8,195.1,170.5L195.1,170.5z"></path><path class="st1" d="M109.4,196.9c-19.5-3.4-31.2-9.4-31.2-16.1c0-10.5,28.3-18.7,64.4-18.7c21,0,40.6,2.9,52.6,7.9
		c0.2,0.1,0.3,0.3,0.3,0.5s-0.2,0.4-0.4,0.4l-52.4,10.4l-33.2,15.5C109.6,196.9,109.5,196.9,109.4,196.9L109.4,196.9z M142.7,163.2
		c-34.9,0-63.4,7.9-63.4,17.7c0,6,11.5,11.8,30.1,15l33.1-15.5c0,0,0.1,0,0.1,0l50.8-10.1C181.3,165.8,162.6,163.2,142.7,163.2
		L142.7,163.2z"></path><path class="st2" d="M170.8,197.2c-8.5,1.2-18,1.9-28.1,1.9c-12.2,0-23.6-1-33.2-2.6l33.2-15.6L170.8,197.2L170.8,197.2z"></path><path class="st1" d="M142.7,199.6c-11.8,0-23.3-0.9-33.3-2.7c-0.2,0-0.4-0.2-0.4-0.4c0-0.2,0.1-0.4,0.3-0.5l33.2-15.6
		c0.1-0.1,0.3-0.1,0.5,0l28.1,16.4c0.2,0.1,0.3,0.3,0.2,0.5c0,0.2-0.2,0.4-0.4,0.4C162,199,152.5,199.6,142.7,199.6L142.7,199.6z
		 M111.1,196.2c9.6,1.6,20.5,2.4,31.6,2.4c9.3,0,18.2-0.6,26.6-1.6l-26.6-15.5L111.1,196.2L111.1,196.2z"></path><path class="st1" d="M170.8,197.2v7.8c-8.5,1.2-18,1.9-28.1,1.9c-12.2,0-23.6-1-33.2-2.7v-7.8h0c9.7,1.7,21,2.6,33.2,2.6
		C152.8,199.1,162.3,198.4,170.8,197.2L170.8,197.2L170.8,197.2z"></path><path class="st1" d="M142.7,207.4c-11.8,0-23.3-0.9-33.3-2.7c-0.2,0-0.4-0.2-0.4-0.5v-7.8c0-0.3,0.2-0.5,0.5-0.5
		c10.1,1.7,21.5,2.6,33.2,2.6c9.8,0,19.2-0.6,28.1-1.8c0.3,0,0.6,0.2,0.6,0.5v7.8c0,0.2-0.2,0.5-0.4,0.5
		C162.1,206.8,152.6,207.4,142.7,207.4L142.7,207.4z M109.9,203.8c9.8,1.7,21.1,2.6,32.7,2.6c9.7,0,19-0.6,27.6-1.8v-6.8
		c-8.6,1.2-18,1.8-27.6,1.8c-11.5,0-22.8-0.9-32.7-2.6V203.8L109.9,203.8z"></path><path class="st0" d="M206.5,180.9c0,7.2-14.6,13.4-35.7,16.4l-28.1-16.4l36.2-7.2l16.2-3.2h0C202.3,173.4,206.5,177,206.5,180.9z"></path><path class="st1" d="M170.8,197.8c-0.1,0-0.2,0-0.2-0.1l-28.1-16.4c-0.2-0.1-0.3-0.3-0.2-0.5s0.2-0.4,0.4-0.4L195,170
		c0.1,0,0.2,0,0.3,0c7.7,3.1,11.7,6.9,11.7,10.9C207,188.1,193.2,194.6,170.8,197.8C170.9,197.7,170.8,197.7,170.8,197.8
		L170.8,197.8z M144.1,181.1l26.8,15.6c21.3-3,35.1-9.2,35.1-15.8c0-3.5-3.8-6.9-11-9.9L144.1,181.1L144.1,181.1z"></path><path class="st2" d="M206.5,180.9v9.5h-0.3c-2.1,6.5-15.9,12-35.4,14.7v-7.8C192,194.3,206.5,188.1,206.5,180.9z"></path><path class="st1" d="M170.8,205.6c-0.1,0-0.2,0-0.3-0.1c-0.1-0.1-0.2-0.2-0.2-0.4v-7.8c0-0.2,0.2-0.5,0.4-0.5
		c21.4-3,35.3-9.2,35.3-15.9c0-0.3,0.2-0.5,0.5-0.5s0.5,0.2,0.5,0.5v9.5c0,0.2-0.2,0.5-0.4,0.5C204.2,197.3,190.9,202.8,170.8,205.6
		C170.8,205.6,170.8,205.6,170.8,205.6L170.8,205.6z M171.3,197.7v6.8c19.4-2.8,32.6-8.2,34.5-14.3c0-0.1,0.1-0.2,0.2-0.3v-5.7
		C202.5,190,189.9,195,171.3,197.7L171.3,197.7z"></path></g></svg>