<svg xmlns="http://www.w3.org/2000/svg" viewBox="0 0 400 300" data-imageid="online-protection-flatline" imageName="Online protection" class="illustrations_image" style="width: 166px;"><g id="_487_online_protection_flatline" data-name="#487_online_protection_flatline"><path d="M86.27,250.93H313.73a0,0,0,0,1,0,0v5.12a4.81,4.81,0,0,1-4.81,4.81H91.08a4.81,4.81,0,0,1-4.81-4.81v-5.12a0,0,0,0,1,0,0Z"/><path d="M309.84,255.2H90.16a3.89,3.89,0,0,1-3.68-5.14l19.74-58.25a12.76,12.76,0,0,1,12.09-8.67H281.69a12.76,12.76,0,0,1,12.09,8.67l19.74,58.25A3.89,3.89,0,0,1,309.84,255.2Z" fill="#fff"/><path d="M309.84,255.66H90.16a4.35,4.35,0,0,1-4.11-5.74l19.73-58.26a13.23,13.23,0,0,1,12.53-9H281.69a13.23,13.23,0,0,1,12.53,9L314,249.92a4.35,4.35,0,0,1-4.11,5.74ZM118.31,183.59A12.3,12.3,0,0,0,106.65,192L86.91,250.21a3.43,3.43,0,0,0,3.25,4.53H309.84a3.43,3.43,0,0,0,3.25-4.53L293.35,192a12.3,12.3,0,0,0-11.66-8.37Z" fill="#231f20"/><path d="M287.52,221H113a3.2,3.2,0,0,1-3.07-4.12l7-23.64a3.58,3.58,0,0,1,3.39-2.54h159a4,4,0,0,1,3.8,2.84l7.07,23.81a2.83,2.83,0,0,1-2.71,3.65Zm-167.2-29.3a2.56,2.56,0,0,0-2.43,1.82l-7,23.65A2.2,2.2,0,0,0,113,220H287.52a1.83,1.83,0,0,0,1.75-2.36l-7.07-23.82a3,3,0,0,0-2.84-2.12Z" fill="#d1d3d4"/><path d="M230.25,247.33h-60.5a3.36,3.36,0,0,1-2.65-1.27,3.39,3.39,0,0,1-.68-2.86l2.89-13.15A5.26,5.26,0,0,1,174.4,226h51.2a5.26,5.26,0,0,1,5.09,4.09l2.89,13.15a3.39,3.39,0,0,1-.68,2.86A3.36,3.36,0,0,1,230.25,247.33ZM174.4,227a4.23,4.23,0,0,0-4.11,3.31l-2.89,13.14a2.4,2.4,0,0,0,2.35,2.92h60.5a2.4,2.4,0,0,0,2.35-2.92l-2.89-13.14A4.23,4.23,0,0,0,225.6,227Z" fill="#d1d3d4"/><rect x="109" y="57.49" width="181.85" height="125.65" rx="6.51" fill="#231f20"/><path d="M284.33,183.64H115.51a7,7,0,0,1-7-7V64a7,7,0,0,1,7-7H284.33a7,7,0,0,1,7,7V176.62A7,7,0,0,1,284.33,183.64ZM115.51,58a6,6,0,0,0-6,6V176.62a6,6,0,0,0,6,6H284.33a6,6,0,0,0,6-6V64a6,6,0,0,0-6-6Z" fill="#231f20"/><rect x="118.33" y="66.15" width="162.8" height="108.15" fill="#43a047" class="target-color"/><path d="M131.2,39.14H268.8a4.52,4.52,0,0,1,4.52,4.52V174.28a0,0,0,0,1,0,0H126.67a0,0,0,0,1,0,0V43.67A4.52,4.52,0,0,1,131.2,39.14Z" fill="#fff"/><path d="M273.33,174.73H126.67a.45.45,0,0,1-.45-.45V43.67a5,5,0,0,1,5-5H268.8a5,5,0,0,1,5,5V174.28A.45.45,0,0,1,273.33,174.73Zm-146.2-.91H272.87V43.67a4.07,4.07,0,0,0-4.07-4.07H131.2a4.07,4.07,0,0,0-4.07,4.07Z" fill="#231f20"/><path d="M273.33,53.47H126.67a.46.46,0,0,1,0-.92H273.33a.46.46,0,0,1,0,.92Z" fill="#231f20"/><rect x="135.93" y="63.26" width="46.28" height="22.64" rx="5.05" fill="#e6e7e8"/><rect x="135.93" y="92.14" width="46.28" height="73.24" rx="5.05" fill="#e6e7e8"/><rect x="188.33" y="63.26" width="75.74" height="102.11" rx="5.05" fill="#e6e7e8"/><circle cx="139.09" cy="45.8" r="2.17" fill="#e6e7e8"/><circle cx="147.49" cy="45.8" r="2.17" fill="#e6e7e8"/><circle cx="155.89" cy="45.8" r="2.17" fill="#e6e7e8"/><path d="M261.88,46.29H239a.46.46,0,0,1-.46-.46.45.45,0,0,1,.46-.45h22.9a.45.45,0,0,1,.45.45A.46.46,0,0,1,261.88,46.29Z" fill="#e6e7e8"/><ellipse cx="199.86" cy="206" rx="22" ry="4.5" fill="#e6e7e8"/><path d="M256.05,76.84V79.2c0,11.44-.11,22.88,0,34.32.27,22.39-6.74,42.38-19.81,60.33a87.37,87.37,0,0,1-34.84,28.44,3.06,3.06,0,0,1-2.88,0c-22-10.23-37.05-27.06-46.63-49.07a94.53,94.53,0,0,1-8-39.54c.16-11.49,0-23,0-34.5V76.7c3.14,0,6.07,0,9,0,9.61-.14,19.17-.63,28.55-3a56,56,0,0,0,17.23-7.4,2,2,0,0,1,2.57,0,57.92,57.92,0,0,0,26.78,9.09c8.63.77,17.32,1,26,1.4C254.66,76.86,255.26,76.84,256.05,76.84Z" fill="#43a047" class="target-color"/><path d="M200,203.1a4,4,0,0,1-1.66-.41c-21.12-9.81-36.89-26.4-46.85-49.29a95.47,95.47,0,0,1-8-39.73c.11-8,.09-16.07.06-23.91,0-3.53,0-7.06,0-10.59V76.7a.47.47,0,0,1,.46-.46h2.94c2.06,0,4.06,0,6,0,9.15-.13,18.92-.58,28.44-3a55.21,55.21,0,0,0,17.09-7.34,2.45,2.45,0,0,1,3.07,0,57.35,57.35,0,0,0,26.57,9c6,.54,12.18.8,18.13,1,2.61.11,5.23.22,7.84.36.38,0,.77,0,1.21,0h.75a.46.46,0,0,1,.46.46V79.2c0,3.56,0,7.13,0,10.69,0,7.74-.05,15.75,0,23.63.26,21.73-6.43,42.12-19.89,60.6a88.16,88.16,0,0,1-35,28.59A3.83,3.83,0,0,1,200,203.1ZM144.42,77.16v2q0,5.3,0,10.59c0,7.84.06,15.95-.06,23.92a94.64,94.64,0,0,0,8,39.35c9.87,22.68,25.48,39.11,46.4,48.83a2.61,2.61,0,0,0,2.5,0,87.16,87.16,0,0,0,34.66-28.3c13.34-18.32,20-38.52,19.72-60.05-.09-7.88-.07-15.9,0-23.64q0-5.36,0-10.69V77.3h-.29c-.46,0-.87,0-1.27,0-2.61-.13-5.22-.24-7.83-.35-6-.26-12.13-.52-18.17-1.06a58.34,58.34,0,0,1-27-9.16,1.56,1.56,0,0,0-2.07,0,56.33,56.33,0,0,1-17.37,7.46C172,76.55,162.16,77,153,77.15c-2,0-4,0-6.06,0Z" fill="#231f20"/><path d="M200,196.46a.45.45,0,0,1-.2,0c-19.35-9.32-33.27-24.22-42.54-45.54a89.29,89.29,0,0,1-7.52-37.12c.12-8.05.09-16.17.06-24l0-6.73a.48.48,0,0,1,.46-.46l2.78,0c9.53-.14,19.74-.62,29.87-3.15a62.45,62.45,0,0,0,16.86-6.83.47.47,0,0,1,.46,0,64,64,0,0,0,27.32,8.69c6.18.56,12.42.82,18.45,1.08l3.77.16a.45.45,0,0,1,.44.45l0,7.07c0,7.72-.05,15.71.05,23.59.24,20.63-5.87,39.22-18.69,56.82a81.85,81.85,0,0,1-31.34,26A.43.43,0,0,1,200,196.46Zm-49.3-113,0,6.27c0,7.86,0,16-.06,24a88.37,88.37,0,0,0,7.43,36.75c9.16,21,22.87,35.75,41.91,45a81,81,0,0,0,30.79-25.63c12.7-17.43,18.76-35.84,18.51-56.27-.09-7.88-.07-15.88,0-23.61V83.37L246,83.23c-6-.26-12.29-.52-18.49-1.08A65,65,0,0,1,200,73.48a63.9,63.9,0,0,1-16.86,6.79c-10.23,2.55-20.51,3-30.09,3.17C152.28,83.46,151.5,83.46,150.72,83.46Z" fill="#fff"/><path d="M193.82,156.23h0a6.26,6.26,0,0,1-4.6-2l-19-20.84a6.3,6.3,0,0,1,9.3-8.5l14.47,15.84,35.31-37.44a6.3,6.3,0,0,1,9.17,8.64l-40,42.38A6.28,6.28,0,0,1,193.82,156.23Z" fill="#fff"/></g></svg>