<svg transform="scale(2)" version="1.1" id="Layer_1" xmlns="http://www.w3.org/2000/svg" xmlns:xlink="http://www.w3.org/1999/xlink" x="0px" y="0px" viewBox="0 0 500 500" xml:space="preserve" class="show_show__wrapper__graphic__5Waiy "><title>React</title><style type="text/css">
	.st0{fill:#000001;}
	.st1{fill:#FFFFFF;}
	.st2{fill:#F2EBEB;}
	.st3{fill:#EA8383;}
	.st4{fill:#F3CB5C;}
	.st5{clip-path:url(#SVGID_2_);}
	.st6{fill:#469F78;}
	.st7{fill:#87CCDB;}
</style><g id="board"><polygon class="st0" points="58,68 69.2,455.8 434.4,455.8 434.4,445.5 	"></polygon><polygon class="st1" points="58,68 430.1,68 442,445.5 83.2,445.5 	"></polygon><path class="st2" d="M442,446.5H83.2c-0.5,0-1-0.4-1-0.9L57,68.1c0-0.3,0.1-0.5,0.3-0.8c0.2-0.2,0.4-0.3,0.7-0.3h372.1
		c0.6,0,1,0.4,1,1l12,377.5c0,0.3-0.1,0.5-0.3,0.7C442.6,446.4,442.3,446.6,442,446.5z M84,444.5h357L429.1,69H59L84,444.5z"></path><path class="st3" d="M103.3,84.9l-1-1.8c0.1,0,7.2-4,9.4-12c1.6-5.7,0.3-12.1-3.7-18.9c-1.8-3.1-4.6-6.8-7.2-6.3
		c-5.2,1-8.5,16.3-9.3,22.1l-2-0.3c0.3-2.3,3.4-22.3,10.9-23.7c3.1-0.6,6.1,1.8,9.3,7.2c4.3,7.3,5.6,14.2,3.8,20.5
		C111.9,77.2,108.3,81.9,103.3,84.9z"></path><path class="st3" d="M165.2,84.9l-0.9-1.8c0.6-0.3,15.5-8.6,6.9-29.4c-2.8-6.7-6.1-10-9.4-9.3c-5.5,1.1-10.6,12.4-10.6,23.6h-2
		c0-12.5,5.6-24.3,12.2-25.6c3.1-0.6,7.6,0.7,11.7,10.5c4.9,11.7,2.5,19.8-0.3,24.5C170.9,80.5,168.3,83,165.2,84.9z"></path><path class="st3" d="M220.6,85.6l-1-1.8c0.1,0,7.2-4,9.4-12c1.6-5.7,0.3-12.1-3.6-18.9c-1.8-3.1-4.6-6.8-7.2-6.3
		c-5.1,1-8.4,16.3-9.3,22.1l-2-0.3c0.3-2.3,3.4-22.3,10.9-23.8c3-0.6,6.1,1.8,9.3,7.2c4.3,7.3,5.6,14.2,3.9,20.5
		C229.2,77.9,225.5,82.6,220.6,85.6z"></path><path class="st3" d="M282.5,85.6l-0.9-1.8c0.6-0.3,15.5-8.6,6.9-29.4c-2.8-6.7-6.1-9.9-9.4-9.3c-5.5,1.1-10.6,12.4-10.6,23.6h-2
		c0-12.5,5.6-24.3,12.2-25.6c3.1-0.6,7.6,0.7,11.7,10.5c4.9,11.7,2.5,19.8-0.3,24.5C288.1,81.2,285.6,83.8,282.5,85.6z"></path><path class="st3" d="M338.8,85.6l-1-1.8c0.1,0,7.2-4,9.4-12c1.6-5.7,0.4-12.1-3.6-18.9c-1.8-3.1-4.6-6.8-7.1-6.3
		c-5.2,1-8.5,16.3-9.3,22.1l-2-0.3c0.3-2.3,3.4-22.3,10.9-23.8c3-0.6,6.1,1.8,9.3,7.2c4.3,7.3,5.6,14.2,3.8,20.5
		C347.4,77.9,343.8,82.6,338.8,85.6z"></path><path class="st3" d="M400.7,85.6l-0.9-1.8c0.6-0.3,15.5-8.6,6.9-29.4c-2.8-6.7-6.1-9.9-9.4-9.3c-5.5,1.1-10.6,12.4-10.6,23.6h-2
		c0-12.5,5.6-24.3,12.2-25.6c3.1-0.6,7.6,0.7,11.7,10.5c4.9,11.7,2.5,19.8-0.3,24.5C406.4,81.2,403.8,83.8,400.7,85.6z"></path><path class="st2" d="M246.1,112.2c0,0,10.2,310.8,11.3,300.9S254.5,84.7,246.1,112.2z"></path><path class="st2" d="M100.2,255.9c0,0,311-2.9,301.1-4.2S72.9,246.9,100.2,255.9z"></path><path class="st2" d="M203.4,277.6l-1.5-1.4c2.1-2.3,5.9-6.1,8-5.4c0.7,0.3,1.2,0.9,1.3,1.7c0.1,0.7,0.1,1.5,0.1,2.2v0.5
		c1-0.5,1.9-1.1,2.8-1.7c1.5-1,2.6-1.5,3.4-1s0.7,1.5,0.6,2.1c0,0,0,0.1,0,0.2c0.6-0.2,1.2-0.5,1.7-0.9c4.1-2.5,5.6-1,6.6,0.6
		c0.6,0.9,0.6,1,1.8,0.3c1.1-0.6,2.1-1.5,2.8-2.6l0.1-0.2l0.2-0.6c0.2-0.6,0.4-1.6,1.3-1.6h0.8l0.2,0.8c0.1,0.9-0.2,1.7-0.7,2.4
		c-0.2,0.5-0.3,0.9-0.2,1.4c0,0,0.6,0.5,4.5-0.7l0.6,1.9c-3.6,1.1-5.5,1.2-6.5,0.2c-0.1-0.1-0.3-0.3-0.4-0.5c-0.5,0.4-1,0.8-1.6,1.1
		c-2.8,1.7-3.9-0.1-4.5-1s-1.1-1.7-3.9,0c-2.1,1.3-3.2,1.5-4,1c-0.6-0.5-0.9-1.3-0.7-2c-0.2,0.1-0.5,0.3-0.9,0.6
		c-3,2-4.1,2.6-5.1,2.1s-0.8-1.4-0.8-2.5c0-0.7,0-1.3-0.1-2l0,0C208.2,272.9,205.6,275.1,203.4,277.6z"></path><path class="st2" d="M102.1,158.6c-0.7-0.4-1.1-1.1-0.9-1.9c0.1-2.7,3.2-8,6.9-9.4c1.9-0.8,4.2-0.3,5.6,1.3
		c0.8,0.8,1.6,1.7,2.3,2.7c1.4-1.8,3.2-3.3,5.3-4.2c1.9-0.8,4-0.3,5.3,1.2c0.2,0.3,0.5,0.6,0.7,0.9c2.5-2.2,6.1-3.6,9.4-1.7l-1,1.7
		c-2.4-1.5-4.9-0.2-6.1,0.7c-0.4,0.3-0.8,0.6-1.1,0.9c1.4,2.6,0.7,4,0.2,4.6c-1,1-2.5,1.1-3.6,0.3c-0.4-0.3-1.6-1.4,0.1-4.1
		c0.2-0.3,0.5-0.7,0.7-1c-0.2-0.3-0.5-0.6-0.8-1c-0.7-0.9-2-1.2-3-0.7c-2,0.9-3.7,2.4-5,4.2c0.6,1,0.6,2.3,0,3.3
		c-0.6,0.9-1.7,1.3-2.8,0.9c-0.5-0.2-0.9-0.7-0.9-1.3c0.2-1.1,0.6-2.2,1.3-3.1c-0.7-1.1-1.5-2.1-2.5-3c-1.1-1.2-2.9-1.4-4.2-0.4
		c-3.1,1.9-5.1,6.6-4.8,7.5c0-0.1-0.1-0.2-0.2-0.2L102.1,158.6z M126.2,154.1c0.3,0.2,0.6,0.2,0.9,0c0.2-0.2,0.2-0.8-0.1-1.6
		C126.5,153,126.3,153.5,126.2,154.1z"></path><path class="st2" d="M333.4,292.6l-1.8-1c1.1-2.1,7.1-12.6,11.6-12.8c1.1,0,2.2,0.5,2.8,1.5c0.2,0.3,0.4,0.7,0.6,1
		c1.3-1.2,2.7-2.1,4.3-2.8c2.1-1,4.5-1,6.5,0.2c0.9,0.5,1.6,1.2,2.2,2c2.7-2.8,6.5-4.6,10.1-2.2c4.3,3,6.8,7,5.8,9
		c-0.3,0.5-1.1,1.6-3.5,0.8l0.7-1.9c0.9,0.3,1.1,0.2,1.1,0.2c0.2-0.5-0.9-3.5-5.2-6.4c-2.3-1.6-4.7-0.4-6.3,0.9
		c-0.6,0.4-1.1,0.9-1.6,1.5c0.4,0.9,0.5,1.9,0.4,2.9c0,1.4-0.9,2.7-2.1,3.4c-0.7,0.3-1.5,0.1-2-0.5c-1.2-1.3-0.2-3.9,1.4-6.1
		c-0.5-0.7-1.2-1.4-2-1.8c-1.5-0.8-3.2-0.8-4.7,0c-1.7,0.8-3.2,1.8-4.4,3.2c0.2,2-0.5,4.1-1.9,5.6c-1.1,1.2-2.3,1.7-3.1,1.3
		c-0.7-0.4-1-1.2-0.7-2c0.7-2.1,1.9-4,3.5-5.6c-0.2-0.5-0.4-1-0.7-1.4c-0.4-0.6-0.8-0.7-1-0.6C340.7,280.9,335.9,288.1,333.4,292.6z
		 M344.7,286.5c-0.3,0.4-0.5,0.8-0.7,1.1C344.3,287.2,344.5,286.9,344.7,286.5z M359,284.7c-0.4,0.6-0.7,1.4-0.7,2.1
		c0.4-0.5,0.7-1,0.7-1.6C359,285.1,359,284.9,359,284.7L359,284.7z"></path><path class="st2" d="M201.3,230.2l-0.4-2c2.5-0.5,4.9-1.3,7.2-2.2c-0.5-0.5-0.9-1.2-1.1-2c-0.4-2.6,1.7-5.3,3.9-6
		c1.6-0.6,3.5,0.2,4.1,1.8c0.6,1.1,0.6,2.3,0,3.4c-0.6,1.1-1.4,2-2.5,2.6c0.9,0.1,1.8,0.2,2.7,0.1c5.2-0.1,8.9-1.4,10.8-3.6
		c1-1.1,1.5-2.5,1.4-4l2-0.3c0.1,2-0.5,4-1.9,5.5c-2.3,2.7-6.5,4.2-12.3,4.3c-1.8,0.1-3.6-0.1-5.3-0.7
		C207.3,228.5,204.4,229.5,201.3,230.2z M212.2,219.7c-0.2,0-0.4,0-0.6,0.1c-1.4,0.4-2.8,2.3-2.6,3.8c0.1,0.6,0.5,1.2,1.1,1.4
		c1.3-0.6,2.4-1.5,3.2-2.7c0.3-0.5,0.3-1.1,0-1.7C213.2,220.1,212.7,219.7,212.2,219.7L212.2,219.7z"></path><path class="st2" d="M108.8,238.6c-1.2,0-2.3-0.2-3.4-0.5c-3-0.9-7-3.6-8.8-11.2c-1.2-5-0.5-9.1,2-12.2c3.6-4.5,9.8-5.5,11.3-5.5
		c7.9,0,13.6,3.1,15.7,8.5c2,5.1,0.2,11.3-4.3,15.4C117.2,236.7,112.8,238.6,108.8,238.6z M109.9,211.2c-1.2,0-6.7,0.8-9.7,4.7
		c-2.1,2.6-2.6,6.2-1.6,10.5c1.2,5.3,3.8,8.7,7.4,9.8c4.1,1.3,9.4-0.5,14-4.6c3.9-3.6,5.5-8.9,3.8-13.2
		C121.9,213.8,116.9,211.2,109.9,211.2z"></path><polygon class="st3" points="112.2,227 106.9,221.8 108.3,220.4 112.1,224.1 129,204.3 130.5,205.6 	"></polygon></g><g id="post-4"><path class="st4" d="M276.6,317.8l100.5,3.9c0,0,7.8,70.6,21.4,91.4h-96.6C301.9,413.1,274.7,376.8,276.6,317.8z"></path><g><defs><path id="SVGID_1_" d="M276.6,317.8l100.5,3.9c0,0,7.8,70.6,21.4,91.4h-96.6C301.9,413.1,274.7,376.8,276.6,317.8z"></path></defs><clipPath id="SVGID_2_"><use xlink:href="#SVGID_1_" style="overflow: visible;"></use></clipPath><g class="st5"><path class="st1" d="M440.9,407.7L440.9,407.7l-226.5-5.5c-0.3,0-0.5-0.2-0.5-0.5c0,0,0,0,0,0c0-0.3,0.2-0.5,0.5-0.5l226.5,5.5
				c0.3,0,0.5,0.2,0.5,0.5c0,0,0,0,0,0C441.4,407.4,441.2,407.7,440.9,407.7z"></path><path class="st1" d="M440.9,391.8L440.9,391.8l-226-1.5c-0.3,0-0.5-0.2-0.5-0.5s0.2-0.5,0.5-0.5l0,0l226,1.5
				c0.3,0,0.5,0.2,0.5,0.5S441.2,391.8,440.9,391.8z"></path><path class="st1" d="M214.8,377.4c-0.3,0-0.5-0.2-0.5-0.5s0.2-0.5,0.5-0.5l226-0.4l0,0c0.3,0,0.5,0.2,0.5,0.5
				c0,0.3-0.2,0.5-0.5,0.5L214.8,377.4L214.8,377.4z"></path><path class="st1" d="M214.7,364.7c-0.3,0-0.5-0.2-0.5-0.5s0.2-0.5,0.5-0.5l226.1-1.7l0,0c0.3,0,0.5,0.2,0.5,0.5s-0.2,0.5-0.5,0.5
				L214.7,364.7L214.7,364.7z"></path><path class="st1" d="M214.8,354.1c-0.3,0-0.5-0.2-0.5-0.5c0-0.3,0.2-0.5,0.5-0.5c0,0,0,0,0,0l226-6.3c0.3,0,0.5,0.2,0.5,0.5
				c0,0.3-0.2,0.5-0.5,0.5L214.8,354.1L214.8,354.1z"></path><path class="st1" d="M214.8,342.7c-0.3,0-0.5-0.2-0.5-0.5c0-0.3,0.2-0.5,0.5-0.5l226-7.7c0.3,0,0.5,0.2,0.5,0.5
				c0,0.3-0.2,0.5-0.5,0.5c0,0,0,0,0,0L214.8,342.7L214.8,342.7z"></path><path class="st1" d="M214.8,335.4c-0.3,0-0.5-0.2-0.5-0.5s0.2-0.5,0.5-0.5l226-8.5c0.3,0,0.5,0.2,0.5,0.5c0,0.3-0.2,0.5-0.5,0.5
				c0,0,0,0,0,0L214.8,335.4L214.8,335.4z"></path><path class="st1" d="M214.8,326.1c-0.3,0-0.5-0.2-0.5-0.5s0.2-0.5,0.5-0.5l226-6.3c0.3,0,0.5,0.2,0.5,0.5s-0.2,0.5-0.5,0.5
				L214.8,326.1L214.8,326.1z"></path><path class="st1" d="M272.4,453.6c-0.3,0-0.5-0.2-0.5-0.5c0,0,0,0,0,0l-0.3-190.5c0-0.3,0.2-0.5,0.5-0.5l0,0
				c0.3,0,0.5,0.2,0.5,0.5c0,0,0,0,0,0l0.3,190.5C272.9,453.3,272.7,453.6,272.4,453.6z"></path><path class="st1" d="M260.9,453.3L260.9,453.3c-0.3,0-0.5-0.2-0.5-0.5c0,0,0,0,0,0l2-188c0-0.3,0.2-0.5,0.5-0.5l0,0
				c0.3,0,0.5,0.2,0.5,0.5l-2,188C261.3,453.1,261.1,453.3,260.9,453.3z"></path><path class="st1" d="M248.2,453.3c-0.3,0-0.5-0.2-0.5-0.5l-0.2-145.5c0-0.3,0.2-0.5,0.5-0.5c0,0,0,0,0,0l0,0
				c0.3,0,0.5,0.2,0.5,0.5l0.2,145.5C248.7,453.1,248.5,453.3,248.2,453.3L248.2,453.3z"></path><path class="st1" d="M235.8,453.4c-0.3,0-0.5-0.2-0.5-0.5l-1.6-145.6c0-0.3,0.2-0.5,0.5-0.5c0,0,0,0,0,0l0,0
				c0.3,0,0.5,0.2,0.5,0.5l1.6,145.6C236.3,453.2,236.1,453.4,235.8,453.4C235.8,453.4,235.8,453.4,235.8,453.4z"></path><path class="st1" d="M225.4,453.4c-0.3,0-0.5-0.2-0.5-0.5l-6-145.5c0-0.3,0.2-0.5,0.5-0.5c0,0,0,0,0,0c0.3,0,0.5,0.2,0.5,0.5
				l6,145.5C225.9,453.1,225.7,453.3,225.4,453.4C225.4,453.4,225.4,453.4,225.4,453.4L225.4,453.4z"></path><path class="st1" d="M214.2,453.4c-0.3,0-0.5-0.2-0.5-0.5l-7.4-145.5c0-0.3,0.2-0.5,0.5-0.5c0,0,0,0,0,0c0.3,0,0.5,0.1,0.5,0.4
				c0,0,0,0,0,0.1l7.4,145.5C214.8,453.1,214.6,453.3,214.2,453.4C214.3,453.4,214.3,453.4,214.2,453.4L214.2,453.4z"></path><path class="st1" d="M207.1,453.4c-0.3,0-0.5-0.2-0.5-0.5l-8.2-145.5c0-0.3,0.2-0.5,0.5-0.5c0,0,0,0,0,0c0.3,0,0.5,0.2,0.5,0.4
				c0,0,0,0,0,0l8.2,145.5C207.6,453.1,207.4,453.3,207.1,453.4C207.1,453.4,207.1,453.4,207.1,453.4L207.1,453.4z"></path><path class="st1" d="M198,453.4c-0.3,0-0.5-0.2-0.5-0.5l-6-145.5c0-0.3,0.2-0.5,0.5-0.5s0.5,0.2,0.5,0.5l6,145.5
				C198.5,453.2,198.3,453.4,198,453.4C198,453.4,198,453.4,198,453.4L198,453.4z"></path><path class="st1" d="M318.9,462.6L318.9,462.6c-0.3,0-0.5-0.2-0.5-0.5l5.4-239.6c0-0.3,0.2-0.5,0.5-0.5l0,0
				c0.3,0,0.5,0.2,0.5,0.5c0,0,0,0,0,0l-5.4,239.7C319.4,462.4,319.2,462.6,318.9,462.6C318.9,462.6,318.9,462.6,318.9,462.6z"></path><path class="st1" d="M307.3,462.2L307.3,462.2c-0.3,0-0.5-0.2-0.5-0.5l1.4-239.2c0-0.3,0.2-0.5,0.5-0.5l0,0
				c0.3,0,0.5,0.2,0.5,0.5l-1.4,239.2C307.8,462,307.6,462.2,307.3,462.2z"></path><path class="st1" d="M294.7,462.2c-0.3,0-0.5-0.2-0.5-0.5l-0.4-239.2c0-0.3,0.2-0.5,0.5-0.5l0,0c0.3,0,0.5,0.2,0.5,0.5l0.4,239.2
				C295.2,462,295,462.2,294.7,462.2z"></path><path class="st1" d="M282.3,462.3c-0.3,0-0.5-0.2-0.5-0.5L280,222.6c0-0.3,0.2-0.5,0.5-0.5c0,0,0,0,0,0l0,0
				c0.3,0,0.5,0.2,0.5,0.5l1.8,239.3C282.8,462.1,282.5,462.3,282.3,462.3C282.3,462.3,282.3,462.3,282.3,462.3L282.3,462.3z"></path><path class="st1" d="M271.9,462.2c-0.3,0-0.5-0.2-0.5-0.5l-6.2-239.2c0-0.3,0.2-0.5,0.5-0.5s0.5,0.2,0.5,0.5l6.2,239.2
				C272.4,462,272.2,462.3,271.9,462.2C271.9,462.3,271.9,462.3,271.9,462.2L271.9,462.2z"></path><path class="st1" d="M260.7,462.2c-0.3,0-0.5-0.2-0.5-0.5c0,0,0,0,0,0l-7.6-239.2c0-0.3,0.2-0.5,0.5-0.5c0.3,0,0.5,0.2,0.5,0.5
				l7.6,239.2C261.2,462,261,462.2,260.7,462.2L260.7,462.2z"></path><path class="st1" d="M253.6,462.2c-0.3,0-0.5-0.2-0.5-0.5l-8.4-239.2c0-0.3,0.2-0.5,0.5-0.5c0.3,0,0.5,0.2,0.5,0.5c0,0,0,0,0,0
				l8.4,239.2C254.1,462,253.8,462.2,253.6,462.2L253.6,462.2z"></path><path class="st1" d="M244.5,462.2c-0.3,0-0.5-0.2-0.5-0.5c0,0,0,0,0,0l-6.2-239.2c0-0.3,0.2-0.5,0.5-0.5c0.3,0,0.5,0.2,0.5,0.5
				l6.2,239.2C245,462,244.8,462.2,244.5,462.2L244.5,462.2z"></path><path class="st1" d="M408.1,316.8L408.1,316.8l-186.6-5.6c-0.3,0-0.5-0.2-0.5-0.5c0-0.3,0.2-0.5,0.5-0.5c0,0,0,0,0,0l186.6,5.6
				c0.3,0,0.5,0.2,0.5,0.5c0,0,0,0,0,0C408.6,316.6,408.4,316.8,408.1,316.8z"></path><path class="st1" d="M408.1,300.9L408.1,300.9l-186.2-1.5c-0.3,0-0.5-0.2-0.5-0.5s0.2-0.5,0.5-0.5l0,0l186.2,1.5
				c0.3,0,0.5,0.2,0.5,0.5c0,0,0,0,0,0C408.6,300.7,408.4,300.9,408.1,300.9z"></path><path class="st1" d="M221.9,286.5c-0.3,0-0.5-0.2-0.5-0.5s0.2-0.5,0.5-0.5l186.2-0.3l0,0c0.3,0,0.5,0.2,0.5,0.5
				c0,0.3-0.2,0.5-0.5,0.5L221.9,286.5z"></path><path class="st1" d="M221.7,273.8c-0.3,0-0.5-0.2-0.5-0.5c0-0.3,0.2-0.5,0.5-0.5l186.3-1.7l0,0c0.3,0,0.5,0.2,0.5,0.5
				s-0.2,0.5-0.5,0.5L221.7,273.8L221.7,273.8z"></path><path class="st1" d="M221.8,263.2c-0.3,0-0.5-0.2-0.5-0.5s0.2-0.5,0.5-0.5L408,256c0.3,0,0.5,0.2,0.5,0.5c0,0,0,0,0,0
				c0,0.3-0.2,0.5-0.5,0.5L221.8,263.2L221.8,263.2z"></path><path class="st1" d="M221.8,251.8c-0.3,0-0.5-0.2-0.5-0.5c0-0.3,0.2-0.5,0.5-0.5c0,0,0,0,0,0l186.2-7.7c0.3,0,0.5,0.2,0.5,0.5
				c0,0.3-0.2,0.5-0.5,0.5c0,0,0,0,0,0L221.8,251.8L221.8,251.8z"></path><path class="st1" d="M221.8,244.4c-0.3,0-0.5-0.2-0.5-0.5c0-0.3,0.2-0.5,0.5-0.5c0,0,0,0,0,0L408,235c0.3,0,0.5,0.2,0.5,0.4
				c0,0,0,0,0,0.1c0,0.3-0.2,0.5-0.5,0.5c0,0,0,0,0,0L221.8,244.4L221.8,244.4z"></path><path class="st1" d="M221.8,235.2c-0.3,0-0.5-0.2-0.5-0.5s0.2-0.5,0.5-0.5L408,228c0.3,0,0.5,0.2,0.5,0.4c0,0,0,0,0,0.1
				c0,0.3-0.2,0.5-0.5,0.5c0,0,0,0,0,0L221.8,235.2L221.8,235.2z"></path><path class="st1" d="M410.4,467L410.4,467c-0.3,0-0.5-0.2-0.5-0.5c0,0,0,0,0,0l5.4-239.6c0-0.3,0.2-0.5,0.5-0.5l0,0
				c0.3,0,0.5,0.2,0.5,0.5c0,0,0,0,0,0l-5.4,239.6C410.9,466.8,410.7,467,410.4,467z"></path><path class="st1" d="M398.9,466.6L398.9,466.6c-0.3,0-0.5-0.2-0.5-0.5l1.4-239.2c0-0.3,0.2-0.5,0.5-0.5c0,0,0,0,0,0l0,0
				c0.3,0,0.5,0.2,0.5,0.5l-1.4,239.2C399.4,466.3,399.1,466.6,398.9,466.6z"></path><path class="st1" d="M386.2,466.6c-0.3,0-0.5-0.2-0.5-0.5l-0.4-239.2c0-0.3,0.2-0.5,0.5-0.5c0,0,0,0,0,0l0,0
				c0.3,0,0.5,0.2,0.5,0.5l0.4,239.2C386.7,466.4,386.5,466.6,386.2,466.6L386.2,466.6z"></path><path class="st1" d="M373.8,466.7c-0.3,0-0.5-0.2-0.5-0.5c0,0,0,0,0,0l-1.8-239.3c0-0.3,0.2-0.5,0.5-0.5c0,0,0,0,0,0l0,0
				c0.3,0,0.5,0.2,0.5,0.5l1.8,239.3C374.3,466.5,374.1,466.7,373.8,466.7L373.8,466.7z"></path><path class="st1" d="M363.4,466.6c-0.3,0-0.5-0.2-0.5-0.5L356.7,227c0-0.3,0.2-0.5,0.5-0.5l0,0c0.3,0,0.5,0.2,0.5,0.5l6.2,239.2
				C363.9,466.4,363.7,466.6,363.4,466.6L363.4,466.6z"></path><path class="st1" d="M352.2,466.6c-0.3,0-0.5-0.2-0.5-0.5l-7.6-239.2c0-0.3,0.2-0.5,0.5-0.5s0.5,0.2,0.5,0.5l7.6,239.2
				C352.8,466.4,352.5,466.6,352.2,466.6C352.3,466.6,352.3,466.6,352.2,466.6L352.2,466.6z"></path><path class="st1" d="M345.1,466.6c-0.3,0-0.5-0.2-0.5-0.5L336.2,227c0-0.3,0.2-0.5,0.5-0.5c0,0,0,0,0,0c0.3,0,0.5,0.2,0.5,0.5
				l8.4,239.2C345.6,466.4,345.4,466.6,345.1,466.6C345.1,466.7,345.1,466.7,345.1,466.6L345.1,466.6z"></path><path class="st1" d="M336,466.6c-0.3,0-0.5-0.2-0.5-0.5L329.3,227c0-0.3,0.2-0.5,0.5-0.5l0,0c0.3,0,0.5,0.2,0.5,0.5l6.2,239.2
				C336.5,466.4,336.3,466.6,336,466.6C336,466.7,336,466.7,336,466.6L336,466.6z"></path></g></g><path class="st0" d="M297.6,336.9c-0.9,0-5.8,0.9-4.6,6.1s5.5,4.9,8.5,2.1S304,336.9,297.6,336.9z"></path><path class="st0" d="M312.1,344.9l-1.5-1.4c2.1-2.3,5.9-6.1,8-5.4c0.8,0.2,1.3,0.9,1.4,1.7c0.1,0.7,0.1,1.5,0.1,2.2v0.5
		c1-0.5,1.9-1.1,2.8-1.7c1.5-1,2.6-1.5,3.4-1s0.7,1.5,0.6,2.1c0,0.1,0,0.1,0,0.2c0.6-0.2,1.2-0.5,1.7-0.9c4.1-2.5,5.6-1,6.6,0.6
		c0.6,0.9,0.6,1,1.8,0.4c1.1-0.6,2.1-1.5,2.8-2.6c0-0.1,0-0.1,0.1-0.2l0.2-0.6c0.2-0.6,0.4-1.6,1.3-1.6h0.8l0.2,0.8
		c0,0.9-0.2,1.7-0.7,2.4c-0.2,0.5-0.3,0.9-0.2,1.4c0,0,0.6,0.5,4.5-0.7l0.6,1.9c-3.6,1.1-5.5,1.2-6.5,0.2c-0.2-0.1-0.3-0.3-0.4-0.5
		c-0.5,0.4-1,0.8-1.6,1.1c-2.8,1.7-3.9-0.1-4.5-1s-1.1-1.7-3.9,0c-2.1,1.3-3.2,1.5-4,1c-0.6-0.5-0.9-1.3-0.7-2
		c-0.3,0.2-0.6,0.4-0.9,0.6c-3,2-4.1,2.6-5.1,2.1s-0.9-1.4-0.9-2.5c0-0.7,0-1.3-0.1-2l0,0C317,340.2,314.4,342.4,312.1,344.9z"></path><path class="st0" d="M302.5,368.1c-0.5,0-1-0.1-1.5-0.2c-1.3-0.4-2.9-1.5-3.7-4.6c-0.5-1.7-0.2-3.6,0.9-5.1
		c1.2-1.4,2.9-2.2,4.7-2.3c3.2,0,5.5,1.3,6.4,3.6c0.8,2.3,0.1,4.8-1.8,6.4C306.2,367.2,304.4,368,302.5,368.1z M302.9,357.9
		c-1.2,0.1-2.3,0.6-3.1,1.5c-0.7,1-0.9,2.2-0.5,3.4c0.3,1.2,0.9,2.8,2.3,3.2s3.1-0.2,4.6-1.6c1.2-1,1.7-2.7,1.2-4.2
		C306.9,358.7,305.2,357.9,302.9,357.9z"></path><path class="st0" d="M316.2,363.6l-1.5-1.4c2.1-2.3,5.9-6.1,8-5.4c0.7,0.2,1.2,0.9,1.3,1.7c0.1,0.7,0.1,1.5,0.1,2.2v0.5
		c1-0.5,1.9-1.1,2.8-1.7c1.5-1,2.6-1.5,3.4-1s0.7,1.5,0.6,2.1c0,0,0,0.1,0,0.2c0.6-0.2,1.2-0.5,1.7-0.9c4.1-2.5,5.6-1,6.6,0.6
		c0.6,0.9,0.6,1,1.8,0.4c1.1-0.6,2-1.5,2.8-2.6l0.1-0.2l0.2-0.6c0.2-0.6,0.4-1.6,1.3-1.6h0.8l0.2,0.8c0.1,0.9-0.2,1.7-0.7,2.4
		c-0.2,0.5-0.3,0.9-0.2,1.4c0,0,0.6,0.5,4.5-0.7l0.6,1.9c-3.6,1.1-5.5,1.2-6.5,0.3c-0.1-0.1-0.3-0.3-0.4-0.5c-0.5,0.4-1,0.8-1.6,1.1
		c-2.8,1.7-3.9-0.1-4.5-1s-1.1-1.7-3.9,0c-2.1,1.2-3.2,1.5-4,1c-0.6-0.5-0.9-1.3-0.7-2.1c-0.2,0.1-0.5,0.3-0.9,0.6
		c-3,2-4.1,2.6-5.1,2.1s-0.8-1.4-0.8-2.5c0-0.7,0-1.3-0.1-2l0,0C321.1,358.9,318.5,361.1,316.2,363.6z"></path><path class="st0" d="M331.5,322.7c0,0-2.9,7.5-1.8,6.4s4.8-6.4,4.8-6.4H331.5z"></path><path class="st6" d="M335.8,309.9c0,0-4.5,5.6-7.5,6.4s1.8,7.1,6.2,7.7c3,0.3,6,0.3,9,0v-10.5c0,0,6.3-5.1,3.4-7.4
		s-11.1-4.1-11.5-1.1C335.1,306.6,335.3,308.3,335.8,309.9z"></path><path class="st1" d="M337.5,310.9c1.4,0.4,2.6,1,3.8,1.3c0.6,0.2,1.2,0.3,1.8,0.4c0.6,0.1,1.3-0.1,1.8-0.5c-0.3,0.7-1,1.2-1.8,1.2
		c-0.7,0.1-1.5,0-2.2-0.2C339.6,312.7,338.4,311.9,337.5,310.9z"></path></g><g id="post-3"><path class="st7" d="M278.4,122.7c0,0,103.6-7.8,105.5-5.4s3.4,51.3,3.4,78.2v67.3l-100.7,5.5l-0.5-18.1c0,0,9-2.6,5.7-7.9
		s-6.2-5-6.2-5l-1.6-12.9c0,0,9.1,1.1,7.8-5.8s-8.3-7.1-8.3-7.1s-2.4-12.4-0.8-12.9s11.6-1.8,7.1-8.1s-7.4-2.6-7.4-2.6l-0.5-12.4
		c0,0,10,2.4,8.7-5s-9.5-8.4-9.5-8.4l-0.3-10.5c0,0,8.1-1.1,6.6-7.6c-0.6-3.6-4-6.1-7.6-5.5L278.4,122.7z"></path><path class="st1" d="M308,152.6c-0.7,0-1.4-0.1-2-0.3c-1.7-0.6-4-2.1-5-6.4c-0.7-2.8-0.3-5.2,1.2-7c1.6-1.9,4-3,6.5-3.1
		c4.5,0,7.7,1.8,8.9,4.9c1.1,3.2,0.1,6.7-2.5,8.8C313.2,151.4,310.7,152.5,308,152.6z M308.6,137.8c-1.9,0.1-3.6,1-4.9,2.4
		c-1.1,1.5-1.4,3.5-0.8,5.3c0.6,2.7,1.9,4.4,3.7,5c2,0.6,4.8-0.3,7.1-2.4c1.9-1.6,2.7-4.2,1.9-6.6
		C314.8,139.1,312.3,137.8,308.6,137.8L308.6,137.8z"></path><path class="st6" d="M303.5,141.3c2,1.5,3.8,3.1,5.6,4.7h-1c0.8-1.2,1.7-2.3,2.5-3.4s1.8-2.2,2.8-3.2c1.9-2.2,4-4.1,6.3-5.9
		c-1.4,2.5-3,4.9-4.8,7.1c-0.9,1.1-1.8,2.2-2.8,3.2s-2,2.1-3,3l-0.5,0.5l-0.4-0.5C306.6,145.1,305,143.3,303.5,141.3z"></path><rect class="st1" x="326.1" y="141.8" transform="matrix(0.9976 -6.923414e-02 6.923414e-02 0.9976 -9.0589 24.2951)" width="39.8" height="2"></rect><rect class="st1" x="326.1" y="148.4" width="11.4" height="2"></rect><path class="st1" d="M310.5,183.5c-0.7,0-1.4-0.1-2-0.3c-1.7-0.5-4-2.1-5-6.4c-0.7-2.8-0.3-5.2,1.2-7c1.6-1.9,4-3,6.5-3.1
		c4.5,0,7.7,1.8,8.9,4.9c1.1,3.2,0.1,6.7-2.5,8.8C315.7,182.2,313.2,183.3,310.5,183.5z M311.1,168.6c-1.9,0.1-3.6,1-4.9,2.4
		c-1,1.3-1.3,3.1-0.8,5.3c0.6,2.7,1.9,4.4,3.7,5c2,0.6,4.8-0.3,7.1-2.4c1.9-1.6,2.7-4.2,1.9-6.6
		C317.3,169.9,314.8,168.6,311.1,168.6z"></path><path class="st6" d="M306,172.2c2,1.5,3.8,3.1,5.6,4.7h-1c0.8-1.2,1.7-2.3,2.5-3.4s1.8-2.2,2.8-3.2c1.9-2.2,4-4.1,6.3-5.9
		c-1.4,2.5-3,4.9-4.8,7.1c-0.9,1.1-1.8,2.2-2.8,3.2s-2,2.1-3,3.1l-0.5,0.5l-0.4-0.5C309.1,176,307.5,174.1,306,172.2z"></path><rect class="st1" x="328.6" y="172.7" transform="matrix(0.9976 -6.923414e-02 6.923414e-02 0.9976 -11.1883 24.5415)" width="39.8" height="2"></rect><rect class="st1" x="328.6" y="179.2" width="11.4" height="2"></rect><path class="st1" d="M312.3,214.8c-0.7,0-1.4-0.1-2-0.3c-1.7-0.5-4-2.1-5-6.4c-0.7-2.8-0.3-5.2,1.2-7c1.6-1.9,4-3,6.5-3.1
		c4.5,0,7.7,1.8,8.9,4.9c1.1,3.2,0.1,6.7-2.5,8.8C317.5,213.5,315,214.6,312.3,214.8z M312.9,199.9c-1.9,0.1-3.6,1-4.9,2.4
		c-1.1,1.5-1.4,3.5-0.8,5.3c0.6,2.7,1.9,4.4,3.7,5c2,0.6,4.8-0.3,7.1-2.4c1.9-1.6,2.7-4.2,1.9-6.6
		C319.1,201.2,316.6,199.9,312.9,199.9z"></path><rect class="st1" x="330.4" y="204" transform="matrix(0.9976 -6.923414e-02 6.923414e-02 0.9976 -13.3503 24.742)" width="39.8" height="2"></rect><rect class="st1" x="330.4" y="210.5" width="11.4" height="2"></rect><path class="st1" d="M314.3,247.9c-0.7,0-1.4-0.1-2-0.3c-1.7-0.5-4-2.1-5-6.4c-0.7-2.8-0.3-5.2,1.2-7c1.6-1.9,4-3,6.5-3.1
		c4.5,0,7.7,1.8,8.9,4.9c1.1,3.2,0.1,6.7-2.5,8.8C319.4,246.7,316.9,247.8,314.3,247.9z M314.9,233.1c-1.9,0.1-3.6,1-4.9,2.4
		c-1,1.3-1.3,3.1-0.8,5.3c0.6,2.7,1.9,4.4,3.7,5c2,0.6,4.8-0.3,7.1-2.4c1.9-1.6,2.7-4.2,1.9-6.6C321,234.4,318.5,233.1,314.9,233.1z
		"></path><rect class="st1" x="332.3" y="237.1" transform="matrix(0.9976 -6.923414e-02 6.923414e-02 0.9976 -15.6412 24.956)" width="39.8" height="2"></rect><rect class="st1" x="332.4" y="243.7" width="11.4" height="2"></rect><path class="st0" d="M338,122.1c0,0,2.5,7.5,1.5,6.4c-1-1.1-4.2-6.4-4.2-6.4H338z"></path><path class="st4" d="M334.3,109.3c0,0,3.9,5.6,6.5,6.4s-1.5,7.1-5.4,7.7c-2.6,0.3-5.2,0.3-7.8,0v-10.5c0,0-5.5-5.1-2.9-7.4
		s9.5-4,9.9-1.1C334.9,106,334.7,107.7,334.3,109.3z"></path><path class="st1" d="M332.8,110.3c-0.7,1-1.8,1.8-3,2.3c-0.6,0.3-1.3,0.3-2,0.2c-0.7-0.1-1.3-0.6-1.5-1.2c0.5,0.4,1.1,0.6,1.7,0.5
		c0.5-0.1,1.1-0.2,1.6-0.4C330.6,111.2,331.6,110.7,332.8,110.3z"></path></g><g id="post-2"><path class="st6" d="M144.7,201.4c0,0,8.3-35.9,0-66.2h71.1c0,0,4.1,48.7,4.1,67.2L144.7,201.4z"></path><path class="st0" d="M161,130c0,0,1.4,14.7,4.9,14.7s30.1-2.8,30.1-2.8s1.4-13.7-2.4-13.7S161,130,161,130z"></path><path class="st4" d="M184.4,137.8l-6.4-16.4l0.5-0.2c0.1,0,5.4-1.7,5.9-5.4c0.1-0.7-0.3-1.3-0.9-1.6c-2.8-1.7-10.4-1-14.8,2
		c-1.1,0.8-1.6,1.5-1.5,2.2c0.3,1.5,3.8,2.8,5.9,3.3l0.4,0.1v15.7h-1v-14.9c-1.4-0.4-5.9-1.7-6.3-4c-0.2-1.1,0.4-2.2,1.9-3.2
		c4.8-3.3,12.9-3.9,15.9-2.1c0.9,0.5,1.5,1.5,1.3,2.6c-0.5,3.6-4.6,5.5-6.1,6l6.1,15.4L184.4,137.8z"></path><path class="st1" d="M189.4,165.9c1-1.9,2.1-3.6,3.4-5.3c1.2-1.7,2.6-3.2,4.2-4.7c-1,1.9-2.1,3.6-3.4,5.3
		C192.3,162.9,190.9,164.5,189.4,165.9z"></path><path class="st1" d="M188.6,155.1c-0.8,0.1-1.5,0.4-2,1c-0.5,0.6-0.6,1.3-0.4,2.1c0.1,0.7,0.5,1.3,1,1.8c0.5,0.4,1.1,0.6,1.7,0.4
		c0.7-0.2,1.3-0.5,1.8-1c0.5-0.4,0.9-1.1,1-1.8c0-0.3,0-0.7-0.2-1c-0.2-0.3-0.4-0.6-0.7-0.9C190.2,155.3,189.4,155.1,188.6,155.1z
		 M188.6,155.1c0.8,0,1.6,0.1,2.2,0.5c0.4,0.2,0.7,0.5,0.9,0.8c0.2,0.4,0.4,0.8,0.4,1.2c0,0.9-0.3,1.7-0.9,2.4
		c-0.6,0.6-1.3,1.1-2.2,1.3c-0.9,0.2-1.9-0.1-2.6-0.8c-0.5-0.7-0.8-1.5-0.9-2.4c-0.1-0.8,0.2-1.6,0.8-2.2
		C187,155.5,187.8,155.2,188.6,155.1z"></path><path class="st1" d="M198.2,160.9c-0.8,0.1-1.5,0.4-2,1c-0.5,0.6-0.6,1.3-0.4,2.1c0.1,0.7,0.5,1.3,1,1.8c0.5,0.4,1.1,0.6,1.7,0.4
		c0.7-0.2,1.3-0.5,1.8-1c0.5-0.4,0.9-1.1,1-1.8c0-0.3,0-0.7-0.2-1c-0.2-0.3-0.4-0.6-0.7-0.9C199.8,161.1,199,160.9,198.2,160.9z
		 M198.2,160.9c0.8,0,1.6,0.1,2.2,0.5c0.4,0.2,0.7,0.5,0.9,0.8c0.2,0.4,0.3,0.8,0.4,1.2c0,0.9-0.3,1.7-0.9,2.4
		c-0.6,0.6-1.3,1.1-2.2,1.3c-0.9,0.2-1.9-0.1-2.6-0.8c-0.5-0.7-0.8-1.5-0.8-2.4c-0.1-0.8,0.2-1.6,0.8-2.2
		C196.7,161.3,197.4,161,198.2,160.9z"></path><path class="st1" d="M159.1,163.1c0.7-0.9,1.4-1.7,2.2-2.5c0.4-0.4,0.8-0.8,1.3-1.1c0.5-0.4,1-0.7,1.6-0.9c0.2,0,0.5,0,0.7,0.1
		c0.2,0.1,0.3,0.4,0.4,0.6c0,0.3,0.1,0.6,0.1,0.9v0.8c0,0.2,0,0.4,0.1,0.6c0,0-0.1-0.1-0.1-0.1c0.1,0,0.1,0,0.2,0
		c0.2-0.1,0.4-0.2,0.6-0.3c0.5-0.3,0.9-0.6,1.4-0.9s0.9-0.6,1.4-0.9c0.2-0.1,0.5-0.3,0.8-0.4c0.4-0.2,0.8-0.2,1.2,0
		c0.3,0.2,0.6,0.6,0.6,1c0.1,0.3,0.1,0.6,0.2,0.8c0,0.2,0.1,0.4,0.2,0.6l0,0c0.1,0,0.2,0,0.3-0.1c1-0.6,2.1-0.9,3.2-1
		c1.1,0,2.2,0.2,3.3,0.6c-1.1-0.2-2.2-0.3-3.2-0.1c-1.1,0.2-2,0.6-2.9,1.2c-0.2,0.1-0.3,0.1-0.5,0.2c-0.3,0-0.5-0.1-0.7-0.2
		c-0.2-0.3-0.4-0.6-0.4-0.9c-0.1-0.3-0.1-0.5-0.2-0.8c0-0.2-0.1-0.3-0.2-0.4c-0.1,0-0.3,0-0.4,0.1c-0.2,0.1-0.5,0.2-0.7,0.3
		c-0.4,0.3-0.9,0.6-1.4,0.9s-0.9,0.6-1.4,0.9c-0.3,0.2-0.5,0.3-0.8,0.4c-0.2,0.1-0.4,0.1-0.6,0.1c-0.3,0-0.6-0.3-0.7-0.6
		c-0.1-0.3-0.1-0.7-0.1-1v-0.8c0-0.2,0-0.6,0-0.8s0-0.1,0-0.1s0,0-0.1,0c-0.5,0.1-0.9,0.3-1.3,0.6c-0.4,0.3-0.9,0.6-1.3,1
		C160.7,161.6,159.9,162.4,159.1,163.1z"></path><path class="st1" d="M190.6,186.3c2-3.7,4.5-7.1,7.5-9.9c-1,1.9-2.1,3.6-3.4,5.3C193.6,183.3,192.2,184.8,190.6,186.3z"></path><path class="st1" d="M189.8,175.5c-0.8,0.1-1.5,0.4-2,1c-0.5,0.6-0.6,1.3-0.4,2.1c0.1,0.7,0.5,1.3,1,1.8c0.5,0.4,1.1,0.6,1.7,0.4
		c0.7-0.2,1.3-0.5,1.8-0.9c0.5-0.4,0.9-1.1,1-1.8c0-0.3,0-0.7-0.2-1c-0.2-0.3-0.4-0.6-0.7-0.9C191.4,175.7,190.6,175.5,189.8,175.5z
		 M189.8,175.5c0.8,0,1.6,0.1,2.2,0.5c0.4,0.2,0.7,0.5,0.9,0.8c0.2,0.4,0.3,0.8,0.4,1.2c0,0.9-0.3,1.7-0.9,2.4
		c-0.6,0.6-1.3,1.1-2.2,1.3c-0.9,0.2-1.9-0.1-2.5-0.8c-0.5-0.7-0.8-1.5-0.9-2.4c-0.1-0.8,0.2-1.7,0.8-2.2
		C188.3,175.9,189,175.6,189.8,175.5z"></path><path class="st1" d="M199.4,181.3c-0.8,0.1-1.5,0.4-2,1c-0.5,0.6-0.6,1.3-0.4,2.1c0.2,0.7,0.5,1.3,1,1.8c0.5,0.4,1.1,0.6,1.7,0.4
		c0.7-0.2,1.3-0.5,1.8-1c0.5-0.4,0.9-1.1,1-1.8c0-0.3,0-0.7-0.2-1c-0.2-0.3-0.4-0.6-0.7-0.9C201,181.5,200.3,181.3,199.4,181.3z
		 M199.4,181.3c0.8,0,1.6,0.1,2.2,0.5c0.4,0.2,0.7,0.5,0.9,0.8c0.2,0.4,0.3,0.8,0.4,1.2c0,0.9-0.3,1.7-0.9,2.4
		c-0.6,0.6-1.3,1.1-2.2,1.3c-0.9,0.2-1.9-0.1-2.6-0.8c-0.5-0.7-0.8-1.5-0.9-2.4c-0.1-0.8,0.2-1.7,0.8-2.2
		C197.9,181.6,198.7,181.3,199.4,181.3z"></path><path class="st1" d="M160.3,183.5c0.7-0.9,1.4-1.7,2.2-2.5c0.4-0.4,0.8-0.8,1.2-1.1c0.5-0.4,1-0.7,1.6-0.9c0.2,0,0.5,0,0.7,0.1
		c0.2,0.1,0.3,0.4,0.4,0.6c0,0.3,0.1,0.6,0.1,0.9v0.8c0,0.2,0,0.4,0.1,0.6c0,0,0-0.1-0.1-0.1c0.1,0,0.1,0,0.2,0
		c0.2-0.1,0.4-0.2,0.6-0.3c0.4-0.3,0.9-0.6,1.4-0.9s0.9-0.6,1.4-0.9c0.2-0.1,0.5-0.3,0.8-0.4c0.4-0.2,0.8-0.2,1.2,0
		c0.3,0.2,0.5,0.6,0.6,0.9c0.1,0.3,0.1,0.6,0.2,0.8c0,0.2,0.1,0.4,0.2,0.6l0,0c0.1,0,0.2,0,0.3-0.1c1-0.6,2.1-0.9,3.2-1
		c1.1,0,2.2,0.2,3.3,0.6c-1.1-0.2-2.2-0.3-3.2-0.1c-1.1,0.2-2,0.6-2.9,1.2c-0.2,0.1-0.3,0.1-0.5,0.2c-0.3,0-0.5-0.1-0.7-0.2
		c-0.2-0.3-0.4-0.6-0.4-0.9c-0.1-0.3-0.1-0.5-0.2-0.8c0-0.2-0.1-0.3-0.2-0.4c-0.1,0-0.3,0-0.4,0.1c-0.2,0.1-0.4,0.2-0.7,0.3
		c-0.5,0.3-0.9,0.6-1.4,0.9s-0.9,0.6-1.4,0.9c-0.3,0.2-0.5,0.3-0.8,0.4c-0.2,0.1-0.4,0.1-0.6,0.1c-0.3,0-0.6-0.3-0.7-0.6
		c-0.1-0.3-0.1-0.7-0.1-1v-0.8c0-0.2,0-0.5,0-0.8c0-0.1,0-0.1,0-0.1s0,0-0.1,0c-0.5,0.1-0.9,0.3-1.3,0.6c-0.4,0.3-0.9,0.6-1.3,1
		C162,182,161.1,182.7,160.3,183.5z"></path></g><g id="post-1"><path class="st2" d="M113.1,398.9c0,0,10.4-57.9,0-106.9h89.6c0,0,5.3,78.6,5.3,108.4L113.1,398.9z"></path><path class="st3" d="M182.5,369.9h40c0,0,6.6,45.3,3.9,45.3h-39.2L182.5,369.9z"></path><path class="st1" d="M193.6,392.6c0.4-0.3,0.9-0.5,1.4-0.6c0.5-0.1,1-0.2,1.5-0.4c1-0.2,2-0.3,3-0.4c2-0.2,4-0.2,6-0.2
		c2,0,4,0.2,6,0.4c2,0.2,4,0.6,5.9,1.1c-2,0.3-4,0.4-6,0.5c-2,0-4,0.1-6,0s-4-0.2-5.9-0.3l-3-0.2c-0.5,0-1-0.1-1.5-0.1
		C194.5,392.4,194,392.4,193.6,392.6z"></path><path class="st1" d="M203.1,379.1c0.7,2,1.3,4,1.8,6c0.5,2,0.9,4,1.2,6.1c0.4,2,0.6,4.1,0.8,6.2c0.2,2.1,0.3,4.2,0.2,6.3
		c-0.7-2-1.3-4-1.8-6c-0.5-2-0.9-4.1-1.2-6.1s-0.6-4.1-0.8-6.2C203.2,383.3,203.1,381.2,203.1,379.1z"></path><rect class="st1" x="129.6" y="308.4" transform="matrix(0.9976 -6.923414e-02 6.923414e-02 0.9976 -21.0606 11.0939)" width="39.8" height="2"></rect><rect class="st1" x="129.7" y="314.9" width="11.4" height="2"></rect><path class="st1" d="M185.4,306.1c-1.1,0-7.1,1.1-5.6,7.5s6.7,6,10.4,2.6S193.3,306.1,185.4,306.1z"></path><path class="st4" d="M181.2,309.9c1.7,1.2,3.2,2.5,4.8,3.8h-1c0.7-1,1.4-2,2.1-2.9s1.5-1.8,2.3-2.7c1.6-1.8,3.4-3.4,5.4-4.8
		c-1.1,2.2-2.4,4.2-3.9,6.1c-0.8,0.9-1.5,1.8-2.3,2.7s-1.7,1.7-2.6,2.5l-0.6,0.5l-0.4-0.5C183.7,313.1,182.4,311.6,181.2,309.9z"></path><rect class="st1" x="130.8" y="329" transform="matrix(0.9976 -6.923414e-02 6.923414e-02 0.9976 -22.4823 11.2272)" width="39.8" height="2"></rect><rect class="st1" x="130.9" y="335.5" width="11.4" height="2"></rect><path class="st1" d="M186.6,326.7c-1.1,0-7.1,1.1-5.6,7.4s6.7,6,10.4,2.6S194.5,326.7,186.6,326.7z"></path><path class="st4" d="M182.4,330.5c1.7,1.2,3.2,2.5,4.8,3.8h-0.9c0.6-1,1.4-2,2.1-2.9s1.5-1.9,2.3-2.7c1.6-1.8,3.4-3.4,5.4-4.8
		c-1.1,2.2-2.4,4.2-3.9,6.1c-0.8,0.9-1.5,1.8-2.3,2.7s-1.7,1.7-2.6,2.5l-0.6,0.5l-0.4-0.5C184.9,333.7,183.6,332.1,182.4,330.5z"></path><rect class="st1" x="130.9" y="351.7" transform="matrix(0.9976 -6.923414e-02 6.923414e-02 0.9976 -24.0578 11.2877)" width="39.8" height="2"></rect><rect class="st1" x="131" y="358.3" width="11.4" height="2"></rect><path class="st1" d="M186.2,362.9c-0.6,0-1.2-0.1-1.7-0.3c-1.5-0.5-3.5-1.8-4.3-5.5c-0.6-2-0.3-4.3,1-6c1.4-1.6,3.4-2.6,5.5-2.7
		c3.8,0,6.6,1.5,7.6,4.2c0.9,2.7,0.1,5.7-2.1,7.6C190.6,361.8,188.5,362.7,186.2,362.9z M186.8,350.4c-1.5,0.1-3,0.8-4,1.9
		c-0.9,1.3-1.1,2.8-0.6,4.3c0.5,2.2,1.6,3.6,3,4c1.6,0.5,3.9-0.2,5.8-2c1.6-1.3,2.2-3.4,1.6-5.4
		C191.8,351.5,189.7,350.4,186.8,350.4z"></path><polygon class="st7" points="154.6,285.2 154.6,300.3 158.5,297 163.5,298.8 162.8,285.2 	"></polygon></g></svg>