<svg opacity="0.2" id="visual" viewBox="0 0 900 600" width="900" height="600" xmlns="http://www.w3.org/2000/svg" xmlns:xlink="http://www.w3.org/1999/xlink" version="1.1"><rect x="0" y="0" width="900" height="600" fill="#ffffff"></rect><defs><linearGradient id="grad1_0" x1="33.3%" y1="100%" x2="100%" y2="0%"><stop offset="20%" stop-color="#43a047" stop-opacity="1"></stop><stop offset="80%" stop-color="#43a047" stop-opacity="1"></stop></linearGradient></defs><defs><linearGradient id="grad1_1" x1="33.3%" y1="100%" x2="100%" y2="0%"><stop offset="20%" stop-color="#43a047" stop-opacity="1"></stop><stop offset="80%" stop-color="#62ae61" stop-opacity="1"></stop></linearGradient></defs><defs><linearGradient id="grad1_2" x1="33.3%" y1="100%" x2="100%" y2="0%"><stop offset="20%" stop-color="#7ebb7a" stop-opacity="1"></stop><stop offset="80%" stop-color="#62ae61" stop-opacity="1"></stop></linearGradient></defs><defs><linearGradient id="grad1_3" x1="33.3%" y1="100%" x2="100%" y2="0%"><stop offset="20%" stop-color="#7ebb7a" stop-opacity="1"></stop><stop offset="80%" stop-color="#98c994" stop-opacity="1"></stop></linearGradient></defs><defs><linearGradient id="grad1_4" x1="33.3%" y1="100%" x2="100%" y2="0%"><stop offset="20%" stop-color="#b2d7ae" stop-opacity="1"></stop><stop offset="80%" stop-color="#98c994" stop-opacity="1"></stop></linearGradient></defs><defs><linearGradient id="grad1_5" x1="33.3%" y1="100%" x2="100%" y2="0%"><stop offset="20%" stop-color="#b2d7ae" stop-opacity="1"></stop><stop offset="80%" stop-color="#cce4c8" stop-opacity="1"></stop></linearGradient></defs><defs><linearGradient id="grad1_6" x1="33.3%" y1="100%" x2="100%" y2="0%"><stop offset="20%" stop-color="#e5f2e3" stop-opacity="1"></stop><stop offset="80%" stop-color="#cce4c8" stop-opacity="1"></stop></linearGradient></defs><defs><linearGradient id="grad1_7" x1="33.3%" y1="100%" x2="100%" y2="0%"><stop offset="20%" stop-color="#e5f2e3" stop-opacity="1"></stop><stop offset="80%" stop-color="#ffffff" stop-opacity="1"></stop></linearGradient></defs><defs><linearGradient id="grad2_0" x1="0%" y1="100%" x2="66.7%" y2="0%"><stop offset="20%" stop-color="#43a047" stop-opacity="1"></stop><stop offset="80%" stop-color="#43a047" stop-opacity="1"></stop></linearGradient></defs><defs><linearGradient id="grad2_1" x1="0%" y1="100%" x2="66.7%" y2="0%"><stop offset="20%" stop-color="#62ae61" stop-opacity="1"></stop><stop offset="80%" stop-color="#43a047" stop-opacity="1"></stop></linearGradient></defs><defs><linearGradient id="grad2_2" x1="0%" y1="100%" x2="66.7%" y2="0%"><stop offset="20%" stop-color="#62ae61" stop-opacity="1"></stop><stop offset="80%" stop-color="#7ebb7a" stop-opacity="1"></stop></linearGradient></defs><defs><linearGradient id="grad2_3" x1="0%" y1="100%" x2="66.7%" y2="0%"><stop offset="20%" stop-color="#98c994" stop-opacity="1"></stop><stop offset="80%" stop-color="#7ebb7a" stop-opacity="1"></stop></linearGradient></defs><defs><linearGradient id="grad2_4" x1="0%" y1="100%" x2="66.7%" y2="0%"><stop offset="20%" stop-color="#98c994" stop-opacity="1"></stop><stop offset="80%" stop-color="#b2d7ae" stop-opacity="1"></stop></linearGradient></defs><defs><linearGradient id="grad2_5" x1="0%" y1="100%" x2="66.7%" y2="0%"><stop offset="20%" stop-color="#cce4c8" stop-opacity="1"></stop><stop offset="80%" stop-color="#b2d7ae" stop-opacity="1"></stop></linearGradient></defs><defs><linearGradient id="grad2_6" x1="0%" y1="100%" x2="66.7%" y2="0%"><stop offset="20%" stop-color="#cce4c8" stop-opacity="1"></stop><stop offset="80%" stop-color="#e5f2e3" stop-opacity="1"></stop></linearGradient></defs><defs><linearGradient id="grad2_7" x1="0%" y1="100%" x2="66.7%" y2="0%"><stop offset="20%" stop-color="#ffffff" stop-opacity="1"></stop><stop offset="80%" stop-color="#e5f2e3" stop-opacity="1"></stop></linearGradient></defs><g transform="translate(900, 600)"><path d="M-540.8 0C-531.7 -103.4 -522.7 -206.7 -468.4 -270.4C-414.1 -334.1 -314.6 -358.2 -229 -396.6C-143.4 -435.1 -71.7 -488 0 -540.8L0 0Z" fill="#f2f8f1"></path><path d="M-473.2 0C-465.3 -90.4 -457.3 -180.9 -409.8 -236.6C-362.3 -292.4 -275.3 -313.4 -200.4 -347.1C-125.5 -380.7 -62.7 -427 0 -473.2L0 0Z" fill="#d8ebd6"></path><path d="M-405.6 0C-398.8 -77.5 -392 -155 -351.3 -202.8C-310.6 -250.6 -235.9 -268.6 -171.8 -297.5C-107.6 -326.3 -53.8 -366 0 -405.6L0 0Z" fill="#bfddbb"></path><path d="M-338 0C-332.3 -64.6 -326.7 -129.2 -292.7 -169C-258.8 -208.8 -196.6 -223.9 -143.1 -247.9C-89.6 -271.9 -44.8 -305 0 -338L0 0Z" fill="#a5d0a1"></path><path d="M-270.4 0C-265.9 -51.7 -261.3 -103.4 -234.2 -135.2C-207 -167.1 -157.3 -179.1 -114.5 -198.3C-71.7 -217.6 -35.9 -244 0 -270.4L0 0Z" fill="#8bc287"></path><path d="M-202.8 0C-199.4 -38.8 -196 -77.5 -175.6 -101.4C-155.3 -125.3 -118 -134.3 -85.9 -148.7C-53.8 -163.2 -26.9 -183 0 -202.8L0 0Z" fill="#70b56d"></path><path d="M-135.2 0C-132.9 -25.8 -130.7 -51.7 -117.1 -67.6C-103.5 -83.5 -78.6 -89.5 -57.3 -99.2C-35.9 -108.8 -17.9 -122 0 -135.2L0 0Z" fill="#53a754"></path><path d="M-67.6 0C-66.5 -12.9 -65.3 -25.8 -58.5 -33.8C-51.8 -41.8 -39.3 -44.8 -28.6 -49.6C-17.9 -54.4 -9 -61 0 -67.6L0 0Z" fill="#43a047"></path></g><g transform="translate(0, 0)"><path d="M540.8 0C514.8 87.2 488.7 174.3 446.9 258C405.1 341.7 347.5 421.8 270.4 468.4C193.3 514.9 96.7 527.9 0 540.8L0 0Z" fill="#f2f8f1"></path><path d="M473.2 0C450.4 76.3 427.6 152.5 391 225.7C354.4 299 304.1 369.1 236.6 409.8C169.2 450.6 84.6 461.9 0 473.2L0 0Z" fill="#d8ebd6"></path><path d="M405.6 0C386.1 65.4 366.5 130.8 335.2 193.5C303.8 256.2 260.6 316.4 202.8 351.3C145 386.2 72.5 395.9 0 405.6L0 0Z" fill="#bfddbb"></path><path d="M338 0C321.7 54.5 305.4 109 279.3 161.2C253.2 213.5 217.2 263.6 169 292.7C120.8 321.8 60.4 329.9 0 338L0 0Z" fill="#a5d0a1"></path><path d="M270.4 0C257.4 43.6 244.3 87.2 223.4 129C202.5 170.8 173.8 210.9 135.2 234.2C96.7 257.5 48.3 263.9 0 270.4L0 0Z" fill="#8bc287"></path><path d="M202.8 0C193 32.7 183.3 65.4 167.6 96.7C151.9 128.1 130.3 158.2 101.4 175.6C72.5 193.1 36.2 198 0 202.8L0 0Z" fill="#70b56d"></path><path d="M135.2 0C128.7 21.8 122.2 43.6 111.7 64.5C101.3 85.4 86.9 105.5 67.6 117.1C48.3 128.7 24.2 132 0 135.2L0 0Z" fill="#53a754"></path><path d="M67.6 0C64.3 10.9 61.1 21.8 55.9 32.2C50.6 42.7 43.4 52.7 33.8 58.5C24.2 64.4 12.1 66 0 67.6L0 0Z" fill="#43a047"></path></g></svg>